SplineFontDB: 3.0
FontName: OblivionScript
FullName: Oblivion Script
FamilyName: Oblivion Script
Weight: Book
Copyright: Font outlines by Steve Deffeyes 2003, based on Daedric letterforms originally created by Bethesda Softworks. Distribute freely, do not modify or sell without permission.
Version: 1.0; 2003; initial release
ItalicAngle: 0
UnderlinePosition: -128
UnderlineWidth: 51.2
Ascent: 922
Descent: 102
InvalidEm: 0
sfntRevision: 0x00010000
LayerCount: 2
Layer: 0 1 "Back" 1
Layer: 1 1 "Fore" 0
XUID: [1021 334 2127345828 3216803]
StyleMap: 0x0000
FSType: 0
OS2Version: 0
OS2_WeightWidthSlopeOnly: 0
OS2_UseTypoMetrics: 0
CreationTime: 1049212800
ModificationTime: 1559393512
PfmFamily: 17
TTFWeight: 400
TTFWidth: 5
LineGap: 0
VLineGap: 0
Panose: 2 0 5 6 2 0 0 2 0 4
OS2TypoAscent: 922
OS2TypoAOffset: 0
OS2TypoDescent: -102
OS2TypoDOffset: 0
OS2TypoLinegap: 77
OS2WinAscent: 964
OS2WinAOffset: 0
OS2WinDescent: 129
OS2WinDOffset: 0
HheadAscent: 0
HheadAOffset: 0
HheadDescent: 0
HheadDOffset: 0
OS2SubXSize: 209
OS2SubYSize: 209
OS2SubXOff: 0
OS2SubYOff: 293
OS2SupXSize: 209
OS2SupYSize: 209
OS2SupXOff: 0
OS2SupYOff: 293
OS2StrikeYSize: 51
OS2StrikeYPos: 256
OS2Vendor: 'PYRS'
OS2UnicodeRanges: 80000001.00000000.00000000.00000000
Lookup: 258 0 0 "'kern' Horizontal Kerning in Latin lookup 0" { "'kern' Horizontal Kerning in Latin lookup 0 subtable"  } ['kern' ('DFLT' <'dflt' > 'latn' <'dflt' > ) ]
MarkAttachClasses: 1
DEI: 91125
TtTable: prep
PUSHW_1
 0
CALL
SVTCA[y-axis]
PUSHW_3
 1
 1
 2
CALL
SVTCA[x-axis]
PUSHW_3
 2
 1
 2
CALL
PUSHW_7
 2
 110
 90
 70
 50
 30
 8
CALL
PUSHW_7
 1
 55
 45
 35
 25
 15
 8
CALL
EndTTInstrs
TtTable: fpgm
PUSHW_1
 0
FDEF
MPPEM
PUSHW_1
 9
LT
IF
PUSHB_2
 1
 1
INSTCTRL
EIF
PUSHW_1
 511
SCANCTRL
PUSHW_1
 68
SCVTCI
PUSHW_2
 9
 3
SDS
SDB
ENDF
PUSHW_1
 1
FDEF
DUP
DUP
RCVT
ROUND[Black]
WCVTP
PUSHB_1
 1
ADD
ENDF
PUSHW_1
 2
FDEF
PUSHW_1
 1
LOOPCALL
POP
ENDF
PUSHW_1
 3
FDEF
DUP
GC[cur]
PUSHB_1
 3
CINDEX
GC[cur]
GT
IF
SWAP
EIF
DUP
ROLL
DUP
ROLL
MD[grid]
ABS

StartChar: a
Encoding: 97 97 0
Width: 497
Flags: W
LayerCount: 2
Fore
SplineSet
445 614 m 0,0,1
 449 609 449 609 448 603 c 0,2,3
 447 592 447 592 444 578 c 0,4,5
 439 559 439 559 426 517 c 0,6,7
 417 488 417 488 411 474 c 0,8,9
 402 453 402 453 392.5 436 c 128,-1,10
 383 419 383 419 374 408.5 c 128,-1,11
 365 398 365 398 356 399 c 1,12,13
 343 413 343 413 343 433 c 0,14,15
 343 434 343 434 344 434 c 0,16,17
 344 455 344 455 348.5 476.5 c 128,-1,18
 353 498 353 498 357 518 c 0,19,20
 359 526 359 526 359 534 c 0,21,22
 358 544 358 544 356 551 c 1,23,24
 348 550 348 550 332.5 544.5 c 128,-1,25
 317 539 317 539 298.5 531 c 128,-1,26
 280 523 280 523 258 513.5 c 128,-1,27
 236 504 236 504 214 496 c 1,28,29
 196 463 196 463 176.5 427 c 128,-1,30
 157 391 157 391 141 354.5 c 128,-1,31
 125 318 125 318 114.5 284.5 c 128,-1,32
 104 251 104 251 104 223 c 0,33,34
 104 188 104 188 114.5 149.5 c 128,-1,35
 125 111 125 111 145 84 c 1,36,37
 165 94 165 94 182 121 c 128,-1,38
 199 148 199 148 217.5 179.5 c 128,-1,39
 236 211 236 211 258.5 239 c 128,-1,40
 281 267 281 267 312 282 c 1,41,42
 309 246 309 246 296.5 202 c 128,-1,43
 284 158 284 158 266 115 c 128,-1,44
 248 72 248 72 228 34 c 128,-1,45
 208 -4 208 -4 190 -27 c 1,46,47
 156 -12 156 -12 130 18.5 c 128,-1,48
 104 49 104 49 86.5 87 c 128,-1,49
 69 125 69 125 59.5 167 c 128,-1,50
 50 209 50 209 50 247 c 0,51,52
 50 273 50 273 58.5 303 c 128,-1,53
 67 333 67 333 79.5 362.5 c 128,-1,54
 92 392 92 392 107.5 421 c 128,-1,55
 123 450 123 450 138 472 c 1,56,57
 132 471 132 471 126 470.5 c 128,-1,58
 120 470 120 470 114 471 c 0,59,60
 104 471 104 471 93.5 473.5 c 128,-1,61
 83 476 83 476 74 482 c 128,-1,62
 65 488 65 488 58 498.5 c 128,-1,63
 51 509 51 509 50 525 c 1,64,65
 62 519 62 519 74 520 c 0,66,67
 94 521 94 521 116 530 c 0,68,69
 153 544 153 544 202 566 c 0,70,71
 270 596 270 596 278 600 c 0,72,73
 323 621 323 621 349 628 c 0,74,75
 376 635 376 635 398 635 c 0,76,77
 402 635 402 635 407 635 c 0,78,79
 430 635 430 635 445 614 c 0,0,1
EndSplineSet
Validated: 1
EndChar

StartChar: b
Encoding: 98 98 1
Width: 518
Flags: W
LayerCount: 2
Fore
SplineSet
95 334 m 1,0,-1
 95 329 l 1,1,-1
 95 334 l 1,0,-1
306 525 m 1,2,3
 283 521 283 521 261 515.5 c 128,-1,4
 239 510 239 510 213 506 c 1,5,6
 199 469 199 469 198.5 436.5 c 128,-1,7
 198 404 198 404 198 378 c 0,8,9
 198 354 198 354 205.5 333 c 128,-1,10
 213 312 213 312 226 293.5 c 128,-1,11
 239 275 239 275 254.5 258.5 c 128,-1,12
 270 242 270 242 287 225 c 0,13,14
 346 166 346 166 369 95 c 128,-1,15
 392 24 392 24 385 -40 c 1,16,17
 316 -26 316 -26 259 11 c 128,-1,18
 202 48 202 48 162.5 98 c 128,-1,19
 123 148 123 148 104.5 208 c 128,-1,20
 86 268 86 268 95 329 c 1,21,22
 100 298 100 298 112.5 265 c 128,-1,23
 125 232 125 232 142 202.5 c 128,-1,24
 159 173 159 173 180 147.5 c 128,-1,25
 201 122 201 122 222 105.5 c 128,-1,26
 243 89 243 89 263.5 83.5 c 128,-1,27
 284 78 284 78 301 88 c 1,28,29
 301 99 301 99 295 114 c 128,-1,30
 289 129 289 129 279 146 c 128,-1,31
 269 163 269 163 256 181 c 128,-1,32
 243 199 243 199 227 216 c 0,33,34
 209 235 209 235 190.5 255.5 c 128,-1,35
 172 276 172 276 157 297.5 c 128,-1,36
 142 319 142 319 133 343 c 128,-1,37
 124 367 124 367 124 392 c 0,38,39
 124 458 124 458 154 511 c 1,40,41
 113 518 113 518 83.5 543 c 128,-1,42
 54 568 54 568 50 594 c 1,43,44
 68 587 68 587 89 583.5 c 128,-1,45
 110 580 110 580 124 580 c 0,46,47
 150 580 150 580 177.5 590.5 c 128,-1,48
 205 601 205 601 232 614 c 128,-1,49
 259 627 259 627 285 637.5 c 128,-1,50
 311 648 311 648 336 648 c 0,51,52
 350 648 350 648 372.5 643 c 128,-1,53
 395 638 395 638 416 624.5 c 128,-1,54
 437 611 437 611 452.5 588 c 128,-1,55
 468 565 468 565 468 530 c 0,56,57
 468 500 468 500 460 472 c 128,-1,58
 452 444 452 444 440 418 c 128,-1,59
 428 392 428 392 414 369.5 c 128,-1,60
 400 347 400 347 390 329 c 1,61,62
 386 359 386 359 379.5 389.5 c 128,-1,63
 373 420 373 420 362.5 447 c 128,-1,64
 352 474 352 474 338 495 c 128,-1,65
 324 516 324 516 306 525 c 1,2,3
EndSplineSet
Validated: 37
EndChar

StartChar: c
Encoding: 99 99 2
Width: 548
Flags: W
LayerCount: 2
Fore
SplineSet
498 577 m 1,0,1
 483 569 483 569 468 562 c 128,-1,2
 453 555 453 555 440 551 c 1,3,4
 442 513 442 513 442 472 c 0,5,6
 442 442 442 442 441 410 c 0,7,8
 439 337 439 337 430 255 c 0,9,10
 422 180 422 180 408 100 c 0,11,12
 394 16 394 16 380 -45 c 1,13,14
 376 7 376 7 368 75.5 c 128,-1,15
 360 144 360 144 354 220 c 0,16,17
 350 275 350 275 346 373 c 0,18,19
 345 399 345 399 345 423 c 0,20,21
 345 431 345 431 345 440 c 0,22,23
 344.8 445.6 344.8 445.6 344.8 452.12 c 0,24,25
 344.8 478.2 344.8 478.2 348 519 c 1,26,27
 301 508 301 508 262 508 c 0,28,29
 260 507 260 507 257 507 c 0,30,31
 221 507 221 507 188 515 c 1,32,33
 196 476 196 476 200.5 438.5 c 128,-1,34
 205 401 205 401 205 371 c 0,35,36
 205 321 205 321 197.5 272.5 c 128,-1,37
 190 224 190 224 176.5 179.5 c 128,-1,38
 163 135 163 135 141.5 96 c 128,-1,39
 120 57 120 57 91 27 c 1,40,41
 99 102 99 102 100 159 c 0,42,43
 101 200 101 200 101 241 c 0,44,45
 101 279 101 279 100 309 c 0,46,47
 97 395 97 395 91 461 c 0,48,49
 84 536 84 536 71 597 c 0,50,51
 68 605 68 605 63 612.5 c 128,-1,52
 58 620 58 620 50 628 c 1,53,54
 83 606 83 606 124 598 c 0,55,56
 155 592 155 592 186 592 c 0,57,58
 200 592 200 592 200 592 c 0,59,60
 277 599 277 599 278 600 c 0,61,62
 286 608 286 608 354 608 c 0,63,64
 366 608 366 608 377 608 c 0,65,66
 381 608 381 608 385 608 c 0,67,68
 387.5 608.166666667 387.5 608.166666667 390.361111111 608.166666667 c 0,69,70
 404.666666667 608.166666667 404.666666667 608.166666667 428 604 c 0,71,72
 468 597 468 597 498 577 c 1,0,1
EndSplineSet
Validated: 524289
EndChar

StartChar: d
Encoding: 100 100 3
Width: 700
Flags: W
LayerCount: 2
Fore
SplineSet
501 658 m 1,0,1
 493 576 493 576 493 479 c 256,2,3
 493 383 493 383 508 284 c 0,4,5
 524 180 524 180 556 94 c 0,6,7
 590 3 590 3 651 -65 c 1,8,9
 554 6 554 6 506 78 c 0,10,11
 455 154 455 154 438 226 c 0,12,13
 422.304347826 292.086956522 422.304347826 292.086956522 422.304347826 355.444234405 c 0,14,15
 422.304347826 368.782608696 422.304347826 368.782608696 423 382 c 0,16,17
 427 461 427 461 439 544 c 1,18,19
 412 539 412 539 355 534 c 0,20,21
 335.444444444 532.222222222 335.444444444 532.222222222 315.098765432 532.222222222 c 0,22,23
 289.666666667 532.222222222 289.666666667 532.222222222 263 535 c 1,24,25
 262.733333333 532.6 262.733333333 532.6 262.733333333 530.217777778 c 0,26,27
 262.733333333 514.733333333 262.733333333 514.733333333 274 500 c 0,28,29
 288 482 288 482 306 472 c 0,30,31
 322 463 322 463 348 456 c 0,32,33
 364.5 451.5 364.5 451.5 378.1875 451.5 c 0,34,35
 382.75 451.5 382.75 451.5 387 452 c 1,36,37
 357 423 357 423 322 421 c 0,38,39
 318.111111111 420.777777778 318.111111111 420.777777778 314.234567901 420.777777778 c 0,40,41
 283.222222222 420.777777778 283.222222222 420.777777778 253 435 c 0,42,43
 217 452 217 452 191 480 c 0,44,45
 164 509 164 509 151 544 c 1,46,47
 142 499.6 142 499.6 142 460.24 c 0,48,49
 142 434 142 434 146 410 c 0,50,51
 156 347 156 347 189 290 c 0,52,53
 223 231 223 231 279 178 c 0,54,55
 337 123 337 123 418 65 c 1,56,57
 311 89 311 89 242 130 c 0,58,59
 166 175 166 175 125 226 c 0,60,61
 81 280 81 280 63 339 c 0,62,63
 50.04 381.48 50.04 381.48 50.04 422.4048 c 0,64,65
 50.04 438.32 50.04 438.32 52 454 c 0,66,67
 59 513 59 513 87 559 c 0,68,69
 116 607 116 607 165 638 c 1,70,71
 208 610 208 610 252 602 c 0,72,73
 277.142857143 597.428571429 277.142857143 597.428571429 301.959183673 597.428571429 c 0,74,75
 320.571428571 597.428571429 320.571428571 597.428571429 339 600 c 0,76,77
 382 605 382 605 423 620.5 c 128,-1,78
 464 636 464 636 501 658 c 1,0,1
EndSplineSet
Validated: 524289
EndChar

StartChar: e
Encoding: 101 101 4
Width: 512
Flags: W
LayerCount: 2
Fore
SplineSet
128 95 m 1,0,1
 154 110 154 110 185 114 c 0,2,3
 202.5 116 202.5 116 218.5 116 c 128,-1,4
 234.5 116 234.5 116 249 114 c 0,5,6
 286 108 286 108 312 98 c 0,7,8
 333 90 333 90 364 72 c 0,9,10
 383 61 383 61 398 44 c 0,11,12
 411 29 411 29 406 18 c 0,13,14
 400 4 400 4 379 7 c 0,15,16
 367 9 367 9 329 20 c 0,17,18
 304 27 304 27 267 39 c 0,19,20
 235 49 235 49 205 49 c 0,21,22
 170 49 170 49 151 36 c 0,23,24
 130 21 130 21 118 8 c 0,25,26
 112 1 112 1 94 -17 c 0,27,28
 84 -27 84 -27 70 -18 c 0,29,30
 50 -5 50 -5 50 19 c 0,31,32
 50 45 50 45 59 80 c 0,33,34
 71 128 71 128 82 160 c 0,35,36
 93 193 93 193 108 258 c 0,37,38
 118 303 118 303 124 370 c 0,39,40
 125.388888889 386.388888889 125.388888889 386.388888889 125.388888889 403.240740741 c 0,41,42
 125.388888889 447.055555556 125.388888889 447.055555556 116 494 c 1,43,44
 137 462 137 462 152 420 c 0,45,46
 165 383 165 383 168 348 c 1,47,48
 194.833333333 343.916666667 194.833333333 343.916666667 219.284722222 343.916666667 c 0,49,50
 236.75 343.916666667 236.75 343.916666667 253 346 c 0,51,52
 296 352 296 352 340 365 c 1,53,54
 339.2 375.8 339.2 375.8 339.2 386.12 c 0,55,56
 339.2 401.6 339.2 401.6 341 416 c 0,57,58
 346 458 346 458 347 462 c 0,59,60
 352 487 352 487 354 502 c 0,61,62
 355.8 514 355.8 514 355.8 525.28 c 0,63,64
 355.8 532.8 355.8 532.8 355 540 c 1,65,66
 340 531 340 531 309 522 c 0,67,68
 277 513 277 513 250 512 c 0,69,70
 245 511.833333333 245 511.833333333 239.972222222 511.833333333 c 0,71,72
 214.833333333 511.833333333 214.833333333 511.833333333 189 516 c 0,73,74
 154 522 154 522 133 534 c 0,75,76
 107 549 107 549 94 570 c 0,77,78
 80.9333333333 591.466666667 80.9333333333 591.466666667 80.9333333333 622.515555556 c 0,79,80
 80.9333333333 624.733333333 80.9333333333 624.733333333 81 627 c 1,81,82
 121 605 121 605 153 597 c 0,83,84
 183 590 183 590 217 590 c 0,85,86
 246 590 246 590 275 596 c 128,-1,87
 304 602 304 602 333 609 c 128,-1,88
 362 616 362 616 392 622 c 0,89,90
 417.714285714 627.142857143 417.714285714 627.142857143 447.102040816 627.142857143 c 0,91,92
 452 627.142857143 452 627.142857143 457 627 c 1,93,94
 463.260869565 601.956521739 463.260869565 601.956521739 463.260869565 576.096408318 c 0,95,96
 463.260869565 552.391304348 463.260869565 552.391304348 458 528 c 0,97,98
 450 490 450 490 430 432 c 0,99,100
 403 353 403 353 396 332 c 0,101,102
 380 281 380 281 380 224 c 1,103,104
 365 257 365 257 361 268 c 0,105,106
 354 288 354 288 349 307 c 1,107,108
 278.239130435 286.108695652 278.239130435 286.108695652 223.373818526 286.108695652 c 0,109,110
 196.826086957 286.108695652 196.826086957 286.108695652 174 291 c 1,111,112
 166 181 166 181 128 95 c 1,0,1
EndSplineSet
Validated: 1
EndChar

StartChar: f
Encoding: 102 102 5
Width: 543
Flags: W
LayerCount: 2
Fore
SplineSet
302 395 m 1,0,1
 332.871794872 400.025641026 332.871794872 400.025641026 362.841551611 400.025641026 c 0,2,3
 416.358974359 400.025641026 416.358974359 400.025641026 467 384 c 1,4,5
 473 367 473 367 476 345 c 0,6,7
 478 330.333333333 478 330.333333333 478 315.888888889 c 0,8,9
 478 308.666666667 478 308.666666667 477.5 301.5 c 0,10,11
 476 280 476 280 470 260.5 c 128,-1,12
 464 241 464 241 452 229 c 1,13,14
 453.142857143 237.571428571 453.142857143 237.571428571 453.142857143 247.775510204 c 0,15,16
 453.142857143 255.428571429 453.142857143 255.428571429 452.5 264 c 0,17,18
 451 284 451 284 447 302.5 c 128,-1,19
 443 321 443 321 437.5 335.5 c 128,-1,20
 432 350 432 350 426 358 c 1,21,22
 379 358 379 358 335.5 344.5 c 128,-1,23
 292 331 292 331 260 307 c 1,24,25
 221 225 221 225 194.5 134 c 128,-1,26
 168 43 168 43 153 -54 c 1,27,28
 136 -18 136 -18 131 30 c 0,29,30
 128.619047619 52.8571428571 128.619047619 52.8571428571 128.619047619 77.074829932 c 0,31,32
 128.619047619 103.714285714 128.619047619 103.714285714 131.5 132 c 0,33,34
 137 186 137 186 152 245 c 128,-1,35
 167 304 167 304 189 362 c 128,-1,36
 211 420 211 420 239.5 474 c 128,-1,37
 268 528 268 528 302 575 c 1,38,39
 250.16 563.48 250.16 563.48 198.32 563.48 c 0,40,-1
 194 563.5 l 0,41,42
 140 564 140 564 101 581 c 1,43,44
 107 548 107 548 108.5 511.5 c 0,45,46
 109.4 489.6 109.4 489.6 109.4 470.04 c 0,47,48
 109.4 457 109.4 457 109 445 c 0,49,50
 108 415 108 415 105 395 c 128,-1,51
 102 375 102 375 101 375 c 0,52,53
 92 375 92 375 84.5 397.5 c 128,-1,54
 77 420 77 420 74 452.5 c 0,55,56
 72.3636363636 470.227272727 72.3636363636 470.227272727 72.3636363636 489.144628099 c 0,57,58
 72.3636363636 504.909090909 72.3636363636 504.909090909 73.5 521.5 c 0,59,60
 76 558 76 558 85 586 c 1,61,62
 70 594 70 594 61.5 603 c 128,-1,63
 53 612 53 612 50 628 c 1,64,65
 81 622 81 622 120 618.5 c 0,66,67
 142.75 616.458333333 142.75 616.458333333 166.690972222 616.458333333 c 0,68,69
 183.791666667 616.458333333 183.791666667 616.458333333 201.5 617.5 c 0,70,71
 244 620 244 620 287.5 628 c 128,-1,72
 331 636 331 636 370 653 c 0,73,74
 378 660 378 660 387.5 668 c 128,-1,75
 397 676 397 676 406 684 c 1,76,77
 421 668 421 668 443.5 656 c 128,-1,78
 466 644 466 644 493 633 c 1,79,80
 447 597 447 597 397.5 535 c 128,-1,81
 348 473 348 473 302 395 c 1,0,1
EndSplineSet
Validated: 1
EndChar

StartChar: g
Encoding: 103 103 6
Width: 438
Flags: W
LayerCount: 2
Fore
SplineSet
343 633 m 1,0,1
 368 608 368 608 378.5 565.5 c 0,2,3
 388.522727273 524.931818182 388.522727273 524.931818182 388.522727273 476.16322314 c 0,4,5
 388.522727273 473.840909091 388.522727273 473.840909091 388.5 471.5 c 0,6,7
 388 420 388 420 379 364 c 128,-1,8
 370 308 370 308 355.5 258 c 128,-1,9
 341 208 341 208 322 168 c 128,-1,10
 303 128 303 128 285 108 c 1,11,12
 258 92 258 92 224 65 c 128,-1,13
 190 38 190 38 157 9.5 c 128,-1,14
 124 -19 124 -19 95.5 -45.5 c 128,-1,15
 67 -72 67 -72 50 -88 c 1,16,17
 82 -51 82 -51 119 -2.5 c 128,-1,18
 156 46 156 46 191 103 c 128,-1,19
 226 160 226 160 256 223.5 c 128,-1,20
 286 287 286 287 301.5 353.5 c 0,21,22
 315.632352941 414.132352941 315.632352941 414.132352941 315.632352941 476.011678201 c 0,23,24
 315.632352941 482 315.632352941 482 315.5 488 c 0,25,26
 314 556 314 556 289 623 c 1,27,28
 271 615 271 615 247.5 608 c 128,-1,29
 224 601 224 601 201 596.5 c 128,-1,30
 178 592 178 592 156.5 591.5 c 0,31,32
 154.111111111 591.444444444 154.111111111 591.444444444 151.827160494 591.444444444 c 0,33,34
 133.555555556 591.444444444 133.555555556 591.444444444 122 595 c 1,35,36
 117 583 117 583 118 564 c 128,-1,37
 119 545 119 545 127 524 c 1,38,39
 113 534 113 534 102.5 549.5 c 128,-1,40
 92 565 92 565 86 582 c 128,-1,41
 80 599 80 599 78 615 c 128,-1,42
 76 631 76 631 78 643 c 1,43,44
 106.571428571 635.857142857 106.571428571 635.857142857 131.826530612 635.857142857 c 0,45,46
 141.928571429 635.857142857 141.928571429 635.857142857 151.5 637 c 0,47,48
 185 641 185 641 216 649.5 c 128,-1,49
 247 658 247 658 277.5 667.5 c 128,-1,50
 308 677 308 677 343 677 c 0,51,52
 363 677 363 677 374.5 670 c 0,53,54
 383.032258065 664.806451613 383.032258065 664.806451613 383.032258065 646.952133195 c 0,55,56
 383.032258065 640.741935484 383.032258065 640.741935484 382 633 c 1,57,58
 374 640 374 640 360.5 638.5 c 128,-1,59
 347 637 347 637 343 633 c 1,0,1
EndSplineSet
Validated: 1
EndChar

StartChar: h
Encoding: 104 104 7
Width: 623
Flags: W
LayerCount: 2
Fore
SplineSet
512 622 m 0,0,1
 534 622 534 622 547 606.5 c 128,-1,2
 560 591 560 591 566.5 569 c 128,-1,3
 573 547 573 547 573.5 523.5 c 0,4,5
 573.555555556 520.888888889 573.555555556 520.888888889 573.555555556 518.358024691 c 0,6,7
 573.555555556 498.111111111 573.555555556 498.111111111 570 483 c 1,8,9
 548 516 548 516 525 538.5 c 128,-1,10
 502 561 502 561 472 572 c 1,11,12
 432 568 432 568 386 562.5 c 128,-1,13
 340 557 340 557 296 557 c 1,14,15
 329 539 329 539 357 517.5 c 128,-1,16
 385 496 385 496 406.5 475 c 128,-1,17
 428 454 428 454 442.5 434.5 c 128,-1,18
 457 415 457 415 463 400 c 1,19,20
 445 407 445 407 428.5 407 c 128,-1,21
 412 407 412 407 389 395 c 0,22,23
 383 391 383 391 374 370.5 c 128,-1,24
 365 350 365 350 351 319 c 128,-1,25
 337 288 337 288 318 250 c 128,-1,26
 299 212 299 212 273.5 172.5 c 128,-1,27
 248 133 248 133 215.5 96 c 128,-1,28
 183 59 183 59 143 32 c 0,29,30
 128 21 128 21 117.5 14 c 128,-1,31
 107 7 107 7 96.5 0.5 c 128,-1,32
 86 -6 86 -6 75.5 -14.5 c 128,-1,33
 65 -23 65 -23 50 -38 c 1,34,35
 97 31 97 31 138.5 102.5 c 128,-1,36
 180 174 180 174 212 243.5 c 128,-1,37
 244 313 244 313 264.5 378 c 128,-1,38
 285 443 285 443 291 499 c 1,39,40
 250 529 250 529 221 559 c 128,-1,41
 192 589 192 589 187 611 c 1,42,43
 201 603 201 603 216 599 c 128,-1,44
 231 595 231 595 247 587 c 1,45,46
 300 587 300 587 343.5 592.5 c 128,-1,47
 387 598 387 598 420 604 c 128,-1,48
 453 610 453 610 476 616 c 128,-1,49
 499 622 499 622 512 622 c 0,0,1
EndSplineSet
Validated: 1
EndChar

StartChar: i
Encoding: 105 105 8
Width: 445
Flags: W
LayerCount: 2
Fore
SplineSet
290 641 m 0,0,1
 312 641 312 641 332 633 c 0,2,3
 350 626 350 626 366 612 c 0,4,5
 378 602 378 602 388 584 c 0,6,7
 396.333333333 569.833333333 396.333333333 569.833333333 396.333333333 557.75 c 0,8,9
 396.333333333 555.333333333 396.333333333 555.333333333 396 553 c 0,10,11
 393 530 393 530 388 512 c 0,12,13
 382 492 382 492 373 472 c 0,14,15
 368 461 368 461 355 442 c 0,16,17
 346 429 346 429 336 429 c 0,18,19
 320 429 320 429 310 446 c 0,20,21
 298 467 298 467 293 486 c 0,22,23
 286 515 286 515 284 536 c 0,24,25
 283 548.5 283 548.5 283 559.25 c 128,-1,26
 283 570 283 570 284 579 c 1,27,28
 270 583 270 583 248 583 c 256,29,30
 226 583 226 583 206 579 c 1,31,32
 219 568 219 568 238 540 c 0,33,34
 254 517 254 517 274 486 c 1,35,36
 274 486 274 486 264 426 c 0,37,38
 257 384 257 384 244 330 c 128,-1,39
 231 276 231 276 213 217 c 0,40,41
 199 170 199 170 173 104 c 0,42,43
 151 47 151 47 127 8 c 0,44,45
 102 -33 102 -33 74 -51 c 1,46,47
 78 -37 78 -37 91 24 c 0,48,49
 100 68 100 68 111 132 c 0,50,51
 120 183 120 183 131 258 c 0,52,53
 141 324 141 324 149 384 c 0,54,55
 158 445 158 445 165 495 c 0,56,57
 173 545 173 545 177 573 c 1,58,59
 161 573 161 573 149 570 c 128,-1,60
 137 567 137 567 129 563 c 1,61,62
 129.6 555.2 129.6 555.2 129.6 547.84 c 0,63,64
 129.6 518.4 129.6 518.4 120 496 c 1,65,66
 79 511 79 511 62 545 c 0,67,68
 50.44 568.12 50.44 568.12 50.44 596.7888 c 0,69,70
 50.44 610.28 50.44 610.28 53 625 c 1,71,72
 67 621 67 621 81 616 c 128,-1,73
 95 611 95 611 101 599 c 1,74,75
 128 608 128 608 155 616 c 0,76,77
 183 625 183 625 208 630 c 0,78,79
 234 635 234 635 255.5 638 c 128,-1,80
 277 641 277 641 290 641 c 0,0,1
EndSplineSet
Validated: 1
EndChar

StartChar: j
Encoding: 106 106 9
Width: 519
Flags: W
LayerCount: 2
Fore
SplineSet
272 627 m 0,0,1
 301 627 301 627 335.5 615 c 128,-1,2
 370 603 370 603 399.5 571 c 128,-1,3
 429 539 429 539 449 481 c 128,-1,4
 469 423 469 423 469 332 c 0,5,6
 469 228 469 228 440 159.5 c 128,-1,7
 411 91 411 91 372 50.5 c 128,-1,8
 333 10 333 10 294.5 -5 c 0,9,10
 260.529411765 -18.2352941176 260.529411765 -18.2352941176 241.740484429 -18.2352941176 c 0,11,12
 239.235294118 -18.2352941176 239.235294118 -18.2352941176 237 -18 c 1,13,14
 264 1 264 1 288.5 29.5 c 128,-1,15
 313 58 313 58 332 95.5 c 128,-1,16
 351 133 351 133 363 178.5 c 128,-1,17
 375 224 375 224 375 276 c 0,18,19
 375 332 375 332 371.5 386.5 c 128,-1,20
 368 441 368 441 357.5 484 c 128,-1,21
 347 527 347 527 327.5 554 c 128,-1,22
 308 581 308 581 278 581 c 0,23,24
 254 581 254 581 237.5 566.5 c 128,-1,25
 221 552 221 552 211 531 c 128,-1,26
 201 510 201 510 195.5 487 c 128,-1,27
 190 464 190 464 190 446 c 1,28,29
 162 446 162 446 136.5 436.5 c 128,-1,30
 111 427 111 427 91 415 c 1,31,32
 82 432 82 432 75 459.5 c 128,-1,33
 68 487 68 487 63 521 c 128,-1,34
 58 555 58 555 55 592 c 128,-1,35
 52 629 52 629 50 664 c 1,36,37
 74 628 74 628 91.5 601 c 128,-1,38
 109 574 109 574 128 555 c 1,39,40
 147 582 147 582 184 604.5 c 128,-1,41
 221 627 221 627 272 627 c 0,0,1
EndSplineSet
Validated: 1
EndChar

StartChar: k
Encoding: 107 107 10
Width: 616
Flags: W
LayerCount: 2
Fore
SplineSet
208 573 m 1,0,1
 224 573 224 573 237.5 567.5 c 128,-1,2
 251 562 251 562 260 553 c 128,-1,3
 269 544 269 544 274 533.5 c 128,-1,4
 279 523 279 523 277 514 c 1,5,6
 256 512 256 512 235 494.5 c 128,-1,7
 214 477 214 477 196 449.5 c 128,-1,8
 178 422 178 422 164.5 386 c 128,-1,9
 151 350 151 350 143 310.5 c 128,-1,10
 135 271 135 271 134.5 230 c 0,11,12
 134.476190476 228.047619048 134.476190476 228.047619048 134.476190476 226.102040816 c 0,13,14
 134.476190476 187.19047619 134.476190476 187.19047619 144 151 c 1,15,16
 152 145 152 145 159.5 158 c 128,-1,17
 167 171 167 171 177 190 c 128,-1,18
 187 209 187 209 200.5 228 c 128,-1,19
 214 247 214 247 232 254 c 1,20,21
 221 217 221 217 219.5 172.5 c 128,-1,22
 218 128 218 128 216.5 89 c 128,-1,23
 215 50 215 50 208 24 c 128,-1,24
 201 -2 201 -2 178 -2 c 0,25,26
 169 -2 169 -2 148 12.5 c 128,-1,27
 127 27 127 27 105 56.5 c 128,-1,28
 83 86 83 86 66.5 132.5 c 128,-1,29
 50 179 50 179 50 244 c 0,30,31
 50 303 50 303 65 354.5 c 128,-1,32
 80 406 80 406 103 447.5 c 128,-1,33
 126 489 126 489 154 521 c 128,-1,34
 182 553 182 553 208 573 c 1,0,1
566 579 m 1,35,36
 559 565 559 565 546 553.5 c 128,-1,37
 533 542 533 542 517 535 c 1,38,39
 519.181818182 500.818181818 519.181818182 500.818181818 519.181818182 468.421487603 c 0,40,41
 519.181818182 411.727272727 519.181818182 411.727272727 512.5 360.5 c 0,42,43
 502 280 502 280 480.5 218 c 128,-1,44
 459 156 459 156 428.5 113.5 c 128,-1,45
 398 71 398 71 366 52 c 1,46,47
 397 105 397 105 414.5 169 c 128,-1,48
 432 233 432 233 440.5 296.5 c 128,-1,49
 449 360 449 360 450 418.5 c 0,50,51
 450.333333333 438 450.333333333 438 450.333333333 455.666666667 c 0,52,53
 450.333333333 491 450.333333333 491 449 519 c 1,54,-1
 399 519 l 2,55,56
 347 519 347 519 308 534.5 c 128,-1,57
 269 550 269 550 247 598 c 1,58,59
 280.793103448 584.482758621 280.793103448 584.482758621 310.857312723 584.482758621 c 0,60,61
 311.931034483 584.482758621 311.931034483 584.482758621 313 584.5 c 0,62,63
 344 585 344 585 371.5 591 c 128,-1,64
 399 597 399 597 424.5 604.5 c 128,-1,65
 450 612 450 612 473 612 c 0,66,67
 506 612 506 612 529 601 c 128,-1,68
 552 590 552 590 566 579 c 1,35,36
EndSplineSet
Validated: 1
EndChar

StartChar: l
Encoding: 108 108 11
Width: 462
Flags: W
LayerCount: 2
Fore
SplineSet
337 666 m 1,0,1
 366 654 366 654 385.5 637 c 128,-1,2
 405 620 405 620 412 595 c 1,3,4
 379 575 379 575 351 545.5 c 128,-1,5
 323 516 323 516 298 470 c 1,6,7
 291 495 291 495 290.5 522 c 0,8,9
 290.444444444 525 290.444444444 525 290.444444444 527.962962963 c 0,10,11
 290.444444444 551.666666667 290.444444444 551.666666667 294 573 c 1,12,13
 264 565 264 565 233.5 561 c 128,-1,14
 203 557 203 557 173 557 c 1,15,16
 189 489 189 489 192.5 411.5 c 0,17,18
 193.407407407 391.407407407 193.407407407 391.407407407 193.407407407 371.382030178 c 0,19,20
 193.407407407 314.166666667 193.407407407 314.166666667 186 257.5 c 0,21,22
 176 181 176 181 154 113 c 128,-1,23
 132 45 132 45 98 -2 c 1,24,25
 114 -5 114 -5 129.5 -12.5 c 128,-1,26
 145 -20 145 -20 159 -29 c 1,27,28
 129 -41 129 -41 104 -42.5 c 0,29,30
 98.2307692308 -42.8461538462 98.2307692308 -42.8461538462 92.4615384615 -42.8461538462 c 0,31,-1
 54 -39 l 1,32,33
 70 22 70 22 88.5 97.5 c 128,-1,34
 107 173 107 173 119 253 c 128,-1,35
 131 333 131 333 134 411 c 0,36,37
 134.6 426.6 134.6 426.6 134.6 441.8 c 0,38,39
 134.6 502.6 134.6 502.6 125 557 c 1,40,41
 92 565 92 565 72.5 586.5 c 128,-1,42
 53 608 53 608 50 649 c 1,43,44
 76 637 76 637 113.5 632 c 0,45,46
 140.285714286 628.428571429 140.285714286 628.428571429 168.091836735 628.428571429 c 0,47,48
 179.214285714 628.428571429 179.214285714 628.428571429 190.5 629 c 0,49,50
 230 631 230 631 269 640.5 c 128,-1,51
 308 650 308 650 337 666 c 1,0,1
EndSplineSet
Validated: 524289
EndChar

StartChar: m
Encoding: 109 109 12
Width: 531
Flags: W
LayerCount: 2
Fore
SplineSet
294 424 m 1,0,1
 269 425 269 425 251 440 c 128,-1,2
 233 455 233 455 221 476 c 128,-1,3
 209 497 209 497 204 522 c 0,4,5
 200.428571429 539.857142857 200.428571429 539.857142857 200.428571429 557.204081633 c 0,6,7
 200.428571429 564.142857143 200.428571429 564.142857143 201 571 c 1,8,9
 215 562 215 562 233 542 c 0,10,11
 248 525 248 525 260 507 c 1,12,13
 287 534 287 534 314 553 c 128,-1,14
 341 572 341 572 377 591 c 1,15,16
 374 567 374 567 364 544 c 0,17,18
 355 524 355 524 342 507 c 0,19,20
 331 493 331 493 314 477 c 0,21,22
 300 464 300 464 284 453 c 1,23,24
 288 446 288 446 291 438.5 c 128,-1,25
 294 431 294 431 294 424 c 1,0,1
132 635 m 1,26,27
 139.272727273 636.454545455 139.272727273 636.454545455 146.280991736 636.454545455 c 0,28,29
 158.545454545 636.454545455 158.545454545 636.454545455 170 632 c 0,30,31
 190 624 190 624 201 605 c 1,32,33
 165 546 165 546 141 478 c 0,34,35
 116 406 116 406 98 305 c 1,36,37
 78 314 78 314 64 346 c 128,-1,38
 50 378 50 378 50 424 c 0,39,40
 51 470 51 470 69.5 525 c 128,-1,41
 88 580 88 580 132 635 c 1,26,27
383 630 m 1,42,43
 423 612 423 612 444 580 c 0,44,45
 466 547 466 547 475 507 c 0,46,47
 481.4 478.2 481.4 478.2 481.4 441.72 c 0,48,49
 481.4 432.6 481.4 432.6 481 423 c 0,50,51
 479 384 479 384 468 337 c 0,52,53
 457 293 457 293 442 258 c 0,54,55
 425 221 425 221 407 198 c 0,56,57
 360 140 360 140 289 68 c 0,58,59
 220 -2 220 -2 156 -58 c 1,60,61
 221 38 221 38 268 124 c 0,62,63
 318 215 318 215 348 302 c 0,64,65
 379 389 379 389 389 471.5 c 0,66,67
 392.846153846 503.230769231 392.846153846 503.230769231 392.846153846 534 c 0,68,69
 392.846153846 583.230769231 392.846153846 583.230769231 383 630 c 1,42,43
EndSplineSet
Validated: 524289
EndChar

StartChar: n
Encoding: 110 110 13
Width: 517
Flags: W
LayerCount: 2
Fore
SplineSet
467 564 m 1,0,1
 465 541 465 541 457.5 514.5 c 128,-1,2
 450 488 450 488 439 463 c 128,-1,3
 428 438 428 438 415.5 415.5 c 128,-1,4
 403 393 403 393 391 380 c 1,5,-1
 391 346 l 1,6,7
 384.793103448 344.275862069 384.793103448 344.275862069 378.705112961 344.275862069 c 0,8,9
 367.137931034 344.275862069 367.137931034 344.275862069 356 350.5 c 0,10,11
 339 360 339 360 325 378.5 c 128,-1,12
 311 397 311 397 301.5 421.5 c 128,-1,13
 292 446 292 446 288 471 c 1,14,15
 322 465 322 465 348 439 c 1,16,17
 358 459 358 459 373 480 c 128,-1,18
 388 501 388 501 405 518 c 128,-1,19
 422 535 422 535 438.5 547 c 128,-1,20
 455 559 455 559 467 564 c 1,0,1
439 639 m 1,21,22
 433 621 433 621 412 611.5 c 128,-1,23
 391 602 391 602 362.5 599 c 0,24,25
 346.954545455 597.363636364 346.954545455 597.363636364 330.070247934 597.363636364 c 0,26,27
 316 597.363636364 316 597.363636364 301 598.5 c 0,28,29
 268 601 268 601 240 607 c 1,30,31
 254 583 254 583 260 534.5 c 0,32,33
 263.428571429 506.785714286 263.428571429 506.785714286 263.428571429 474.010204082 c 0,34,35
 263.428571429 449.428571429 263.428571429 449.428571429 261.5 422 c 0,36,37
 257 358 257 358 242 285.5 c 128,-1,38
 227 213 227 213 201.5 143.5 c 128,-1,39
 176 74 176 74 138 12 c 128,-1,40
 100 -50 100 -50 50 -92 c 1,41,42
 93 1 93 1 123.5 106.5 c 128,-1,43
 154 212 154 212 168 315.5 c 0,44,45
 179.878787879 403.318181818 179.878787879 403.318181818 179.878787879 484.297061524 c 0,46,47
 179.878787879 498.757575758 179.878787879 498.757575758 179.5 513 c 0,48,49
 177 607 177 607 153 678 c 1,50,51
 165 674 165 674 177 669.5 c 128,-1,52
 189 665 189 665 201 656 c 1,53,54
 262 639 262 639 317.5 635.5 c 0,55,56
 336 634.333333333 336 634.333333333 355.666666667 634.333333333 c 0,57,58
 395 634.333333333 395 634.333333333 439 639 c 1,21,22
EndSplineSet
Validated: 524289
EndChar

StartChar: o
Encoding: 111 111 14
Width: 561
Flags: W
LayerCount: 2
Fore
SplineSet
257 301 m 1,0,1
 248 314 248 314 248 332 c 0,2,3
 247 334 247 334 247 335 c 0,4,5
 247 354 247 354 252 367 c 0,6,7
 259 385 259 385 268 398 c 0,8,9
 279 411 279 411 292 415 c 1,10,11
 302 405 302 405 302 389 c 0,12,13
 302 386 302 386 302 383 c 0,14,15
 303 372 303 372 298 354.5 c 128,-1,16
 293 337 293 337 282 322 c 128,-1,17
 271 307 271 307 257 301 c 1,0,1
503 645 m 1,18,19
 511 628 511 628 511 615 c 0,20,21
 511 611 511 611 510 606 c 0,22,23
 509 590 509 590 492 578 c 128,-1,24
 475 566 475 566 451 558 c 0,25,26
 428 551 428 551 394 547 c 1,27,28
 424 510 424 510 440 444 c 0,29,30
 450 402 450 402 450 357 c 0,31,32
 450 333 450 333 447 308 c 0,33,34
 438 234 438 234 406 166 c 0,35,36
 374 95 374 95 311 46 c 1,37,38
 342 121 342 121 360.5 195 c 128,-1,39
 379 269 379 269 384 334 c 0,40,41
 386 360 386 360 386 383 c 0,42,43
 386 422 386 422 381 455 c 0,44,45
 373 511 373 511 350 547 c 1,46,-1
 292 547 l 1,47,48
 246 499 246 499 212.5 439 c 128,-1,49
 179 379 179 379 158 311 c 0,50,51
 135 241 135 241 127 168 c 0,52,53
 120 104 120 104 120 44 c 0,54,55
 120 33 120 33 120 16 c 1,56,57
 105 5 105 5 94 -4.5 c 128,-1,58
 83 -14 83 -14 75 -33 c 1,59,60
 64 1 64 1 60 46 c 0,61,62
 58 70 58 70 58 95 c 128,-1,63
 58 120 58 120 60 146 c 0,64,65
 64 200 64 200 73 257 c 128,-1,66
 82 314 82 314 96.5 369.5 c 128,-1,67
 111 425 111 425 130.5 474.5 c 128,-1,68
 150 524 150 524 173 562 c 1,69,70
 121 573 121 573 87.5 587.5 c 128,-1,71
 54 602 54 602 50 621 c 1,72,73
 73 617 73 617 111.5 613.5 c 128,-1,74
 150 610 150 610 198 606 c 1,75,76
 213 620 213 620 227 636 c 1,77,78
 241 628 241 628 255.5 620 c 128,-1,79
 270 612 270 612 282 601 c 1,80,81
 307 600 307 600 331 600 c 0,82,83
 339 600 339 600 355 600 c 0,84,85
 385 600 385 600 422 606 c 0,86,87
 453 611 453 611 474.5 621 c 128,-1,88
 496 631 496 631 503 645 c 1,18,19
EndSplineSet
Validated: 1
EndChar

StartChar: p
Encoding: 112 112 15
Width: 550
Flags: W
LayerCount: 2
Fore
SplineSet
402 665 m 1,0,1
 416 663 416 663 432 655 c 128,-1,2
 448 647 448 647 461.5 637 c 128,-1,3
 475 627 475 627 485.5 615 c 128,-1,4
 496 603 496 603 500 593 c 1,5,6
 455 557 455 557 418.5 499.5 c 128,-1,7
 382 442 382 442 354.5 369.5 c 128,-1,8
 327 297 327 297 309 212 c 128,-1,9
 291 127 291 127 283 36 c 1,10,11
 266 20 266 20 247.5 -6.5 c 128,-1,12
 229 -33 229 -33 217 -57 c 1,13,14
 211 -13 211 -13 211 34 c 0,15,16
 211 43 211 43 211 57 c 0,17,18
 211 101 211 101 221 174 c 0,19,20
 229 233 229 233 242.5 289.5 c 128,-1,21
 256 346 256 346 272 397 c 1,22,23
 230 348 230 348 190.5 319.5 c 128,-1,24
 151 291 151 291 110 274 c 1,25,26
 94 290 94 290 78 299.5 c 128,-1,27
 62 309 62 309 50 317 c 1,28,29
 87 378 87 378 94 458 c 0,30,31
 99 513 99 513 99 569 c 0,32,33
 99 594 99 594 98 626 c 1,34,35
 127 610 127 610 140 578 c 0,36,37
 154 544 154 544 156 512 c 0,38,39
 157 496 157 496 157 479 c 0,40,41
 157 473 157 473 157 467 c 0,42,43
 158 458 158 458 156 444 c 0,44,45
 151 412 151 412 147 393 c 1,46,47
 154 392 154 392 158 392 c 0,48,49
 173 393 173 393 182 395 c 0,50,51
 202 400 202 400 218.5 407 c 128,-1,52
 235 414 235 414 254 424 c 0,53,54
 272 433 272 433 289 441 c 1,55,56
 300 483 300 483 315.5 517 c 128,-1,57
 331 551 331 551 347 571 c 1,58,59
 316 561 316 561 281 561 c 0,60,61
 280 561 280 561 278 562 c 0,62,63
 242 562 242 562 209.5 571 c 128,-1,64
 177 580 177 580 153 595.5 c 128,-1,65
 129 611 129 611 121 632 c 1,66,67
 177 614 177 614 229 614 c 0,68,69
 250 614 250 614 270 617 c 0,70,71
 342 628 342 628 402 665 c 1,0,1
EndSplineSet
Validated: 1
EndChar

StartChar: q
Encoding: 113 113 16
Width: 694
Flags: W
LayerCount: 2
Fore
SplineSet
288 553 m 1,0,1
 312 534 312 534 323 505.5 c 128,-1,2
 334 477 334 477 334 450 c 0,3,4
 334 442 334 442 333.5 435 c 128,-1,5
 333 428 333 428 330 424 c 1,6,-1
 340 424 l 1,7,8
 367 471 367 471 406 510 c 128,-1,9
 445 549 445 549 500 584 c 1,10,11
 481.481481481 585.851851852 481.481481481 585.851851852 462.208504801 585.851851852 c 0,12,13
 429.444444444 585.851851852 429.444444444 585.851851852 394.5 580.5 c 0,14,15
 339 572 339 572 288 553 c 1,0,1
474 429 m 1,16,17
 505 429 505 429 535.5 427 c 128,-1,18
 566 425 566 425 590 421.5 c 128,-1,19
 614 418 614 418 629 412 c 128,-1,20
 644 406 644 406 644 398 c 256,21,22
 644 390 644 390 625.5 387.5 c 128,-1,23
 607 385 607 385 580 385 c 256,24,25
 553 385 553 385 523 386 c 128,-1,26
 493 387 493 387 469 387 c 256,27,28
 445 387 445 387 422 386.5 c 128,-1,29
 399 386 399 386 376 383 c 1,30,31
 344 328 344 328 331 257.5 c 128,-1,32
 318 187 318 187 313 94 c 1,33,34
 306 140 306 140 302.5 179.5 c 128,-1,35
 299 219 299 219 299 258 c 1,36,37
 290 221 290 221 279 184 c 128,-1,38
 268 147 268 147 260.5 109.5 c 128,-1,39
 253 72 253 72 250 32 c 0,40,41
 249 18.6666666667 249 18.6666666667 249 5 c 0,42,43
 249 -22.3333333333 249 -22.3333333333 253 -51 c 1,44,45
 235 -21 235 -21 226 14.5 c 128,-1,46
 217 50 217 50 215 89 c 0,47,48
 214.272727273 103.181818182 214.272727273 103.181818182 214.272727273 117.363636364 c 0,49,50
 214.272727273 142.181818182 214.272727273 142.181818182 216.5 167 c 0,51,52
 220 206 220 206 225 242.5 c 128,-1,53
 230 279 230 279 236.5 309.5 c 128,-1,54
 243 340 243 340 247 361 c 1,55,-1
 144 361 l 1,56,57
 144 315 144 315 124 285 c 1,58,59
 96 312 96 312 81.5 341 c 128,-1,60
 67 370 67 370 50 409 c 1,61,62
 74 406.538461538 74 406.538461538 103.301775148 406.538461538 c 0,63,64
 121.615384615 406.538461538 121.615384615 406.538461538 142 407.5 c 0,65,66
 195 410 195 410 253 414 c 1,67,68
 245 469 245 469 214 516 c 128,-1,69
 183 563 183 563 128 594 c 1,70,71
 146.838709677 596.064516129 146.838709677 596.064516129 163.879292404 596.064516129 c 0,72,73
 212.870967742 596.064516129 212.870967742 596.064516129 247 579 c 1,74,75
 243 590 243 590 239.5 605.5 c 128,-1,76
 236 621 236 621 231 636 c 1,77,78
 285.444444444 639.62962963 285.444444444 639.62962963 335.990397805 639.62962963 c 0,79,80
 382.925925926 639.62962963 382.925925926 639.62962963 426.5 636.5 c 0,81,82
 517 630 517 630 588 610 c 1,83,84
 588 595 588 595 590 583 c 128,-1,85
 592 571 592 571 592 564 c 1,86,87
 531 536 531 536 484.5 504 c 128,-1,88
 438 472 438 472 408 429 c 1,89,-1
 474 429 l 1,90,-1
 474 429 l 1,16,17
EndSplineSet
Validated: 524293
EndChar

StartChar: r
Encoding: 114 114 17
Width: 543
Flags: W
LayerCount: 2
Fore
SplineSet
493 587 m 1,0,1
 396 573 396 573 328 536 c 128,-1,2
 260 499 260 499 209 447 c 1,3,4
 194 384 194 384 189 311.5 c 0,5,6
 186.222222222 271.222222222 186.222222222 271.222222222 186.222222222 231.561728395 c 0,7,8
 186.222222222 199.833333333 186.222222222 199.833333333 188 168.5 c 0,9,10
 192 98 192 98 201.5 36 c 128,-1,11
 211 -26 211 -26 225 -69 c 1,12,13
 182 -10 182 -10 161 60.5 c 128,-1,14
 140 131 140 131 134.5 205 c 0,15,16
 131.869565217 240.391304348 131.869565217 240.391304348 131.869565217 275.668241966 c 0,17,18
 131.869565217 314.152173913 131.869565217 314.152173913 135 352.5 c 0,19,20
 141 426 141 426 153 494 c 1,21,22
 204 510 204 510 243.5 542 c 128,-1,23
 283 574 283 574 317 613 c 1,24,25
 300.03030303 613.96969697 300.03030303 613.96969697 283.119375574 613.96969697 c 0,26,27
 230.272727273 613.96969697 230.272727273 613.96969697 178 604.5 c 0,28,29
 109 592 109 592 50 561 c 1,30,31
 75 593 75 593 110.5 615 c 128,-1,32
 146 637 146 637 188 648 c 128,-1,33
 230 659 230 659 275 661 c 0,34,35
 284 661.4 284 661.4 292.82 661.4 c 0,36,37
 328.1 661.4 328.1 661.4 360.5 655 c 0,38,39
 401 647 401 647 436 630 c 128,-1,40
 471 613 471 613 493 587 c 1,0,1
EndSplineSet
Validated: 524289
EndChar

StartChar: s
Encoding: 115 115 18
Width: 571
Flags: W
LayerCount: 2
Fore
SplineSet
50 -60 m 1,0,1
 112 -16 112 -16 148.5 38 c 128,-1,2
 185 92 185 92 197 161 c 0,3,4
 203 196 203 196 203 236 c 0,5,6
 203 274 203 274 198 317 c 0,7,8
 187 402 187 402 153 515 c 1,9,10
 190 515 190 515 224.5 505 c 128,-1,11
 259 495 259 495 286 480 c 1,12,13
 287 488 287 488 287 493 c 0,14,15
 286 512 286 512 285 516 c 0,16,17
 283 530 283 530 276 554 c 0,18,19
 274 563 274 563 264 594 c 0,20,21
 261 602 261 602 251 633 c 1,22,23
 276 635 276 635 305.5 637.5 c 128,-1,24
 335 640 335 640 365 640 c 256,25,26
 395 640 395 640 423.5 637 c 128,-1,27
 452 634 452 634 473.5 625.5 c 128,-1,28
 495 617 495 617 508 602.5 c 128,-1,29
 521 588 521 588 521 564 c 0,30,31
 521 541 521 541 503 530.5 c 128,-1,32
 485 520 485 520 463 520 c 1,33,34
 463 542 463 542 463.5 563.5 c 128,-1,35
 464 585 464 585 468 603 c 1,36,37
 449 595 449 595 396 580 c 0,38,39
 368 572 368 572 336 572 c 0,40,41
 324 572 324 572 315 573 c 1,42,43
 338 525 338 525 354.5 463.5 c 128,-1,44
 371 402 371 402 374 343 c 1,45,46
 358 359 358 359 339 376.5 c 128,-1,47
 320 394 320 394 301.5 408.5 c 128,-1,48
 283 423 283 423 265 432 c 128,-1,49
 247 441 247 441 231 441 c 1,50,51
 249 399 249 399 261 350 c 0,52,53
 275 292 275 292 275 249 c 0,54,55
 275 241 275 241 275 233 c 0,56,57
 275.307692308 227.769230769 275.307692308 227.769230769 275.307692308 222.136094675 c 0,58,59
 275.307692308 191.153846154 275.307692308 191.153846154 266 148 c 0,60,61
 255 97 255 97 229 56 c 128,-1,62
 203 15 203 15 159 -16 c 128,-1,63
 115 -47 115 -47 50 -60 c 1,0,1
EndSplineSet
Validated: 524289
EndChar

StartChar: t
Encoding: 116 116 19
Width: 535
Flags: W
LayerCount: 2
Fore
SplineSet
341 741 m 1,0,1
 340.928571429 736.642857143 340.928571429 736.642857143 340.928571429 732.382653061 c 0,2,3
 340.928571429 677 340.928571429 677 353 638 c 0,4,5
 368 590 368 590 387 558 c 0,6,7
 410 520 410 520 430 496 c 0,8,9
 445 478 445 478 467 448 c 0,10,11
 483 426 483 426 486 406 c 0,12,13
 486.727272727 401.454545455 486.727272727 401.454545455 486.727272727 397.305785124 c 0,14,15
 486.727272727 378.636363636 486.727272727 378.636363636 472 368 c 0,16,17
 469 366 469 366 451 368 c 0,18,19
 435 370 435 370 416 380 c 128,-1,20
 397 390 397 390 376 412 c 128,-1,21
 355 434 355 434 341 466 c 1,22,23
 312 480 312 480 274 496 c 0,24,25
 243 509 243 509 215 513 c 1,26,27
 255 455 255 455 273 392 c 0,28,29
 286.761904762 344.238095238 286.761904762 344.238095238 286.761904762 298.442176871 c 0,30,31
 286.761904762 287.666666667 286.761904762 287.666666667 286 277 c 0,32,33
 282 224 282 224 259 169 c 0,34,35
 237 117 237 117 200 70 c 1,36,37
 206.857142857 69.4285714286 206.857142857 69.4285714286 213.734693878 69.4285714286 c 0,38,39
 255 69.4285714286 255 69.4285714286 297 90 c 0,40,41
 348 115 348 115 415 168 c 1,42,43
 390 99 390 99 358 59 c 0,44,45
 328 21 328 21 291 4 c 0,46,47
 263.181818182 -9.13636363636 263.181818182 -9.13636363636 236.55785124 -9.13636363636 c 0,48,49
 228.727272727 -9.13636363636 228.727272727 -9.13636363636 221 -8 c 0,50,51
 186 -3 186 -3 154 17 c 1,52,53
 142 2 142 2 127 -8 c 128,-1,54
 112 -18 112 -18 98 -33 c 1,55,56
 105 -13 105 -13 111 6 c 0,57,58
 118 24 118 24 125 41 c 1,59,60
 98 68 98 68 82 100 c 0,61,62
 63 137 63 137 56 174 c 0,63,64
 49.7692307692 203.769230769 49.7692307692 203.769230769 49.7692307692 232.579881657 c 0,65,66
 49.7692307692 245.384615385 49.7692307692 245.384615385 51 258 c 0,67,68
 55 303 55 303 74 349 c 1,69,70
 73.5 335 73.5 335 73.5 322.1875 c 0,71,72
 73.5 283.75 73.5 283.75 78 256 c 0,73,74
 86 209 86 209 95 183 c 0,75,76
 106 152 106 152 119 131 c 128,-1,77
 132 110 132 110 144 97 c 1,78,79
 173 187 173 187 183 262 c 0,80,81
 189.230769231 309.076923077 189.230769231 309.076923077 189.230769231 346.088757396 c 0,82,83
 189.230769231 362.538461538 189.230769231 362.538461538 188 377 c 0,84,85
 184 421 184 421 170 453 c 0,86,87
 157 482 157 482 144 500 c 0,88,89
 135 512 135 512 121 528 c 0,90,91
 113 537 113 537 116 546 c 128,-1,92
 119 555 119 555 139 559 c 0,93,94
 148 560.8 148 560.8 162.76 560.8 c 0,95,96
 172.6 560.8 172.6 560.8 185 560 c 0,97,98
 212 558 212 558 248 549 c 128,-1,99
 284 540 284 540 326 522 c 1,100,101
 318.857142857 552.714285714 318.857142857 552.714285714 318.857142857 588.275510204 c 0,102,103
 318.857142857 602.5 318.857142857 602.5 320 617.5 c 0,104,105
 324 670 324 670 341 741 c 1,0,1
EndSplineSet
Validated: 524289
EndChar

StartChar: u
Encoding: 117 117 20
Width: 455
Flags: W
LayerCount: 2
Fore
SplineSet
291 221 m 1,0,1
 283 196 283 196 269 181 c 128,-1,2
 255 166 255 166 241 159.5 c 128,-1,3
 227 153 227 153 216.5 155 c 128,-1,4
 206 157 206 157 204 169 c 0,5,6
 200 181 200 181 206.5 191 c 128,-1,7
 213 201 213 201 226 207.5 c 128,-1,8
 239 214 239 214 256.5 217.5 c 128,-1,9
 274 221 274 221 291 221 c 1,0,1
94 556 m 0,10,11
 94 565 94 565 105 575 c 128,-1,12
 116 585 116 585 130.5 592.5 c 128,-1,13
 145 600 145 600 161 605 c 128,-1,14
 177 610 177 610 188 610 c 0,15,16
 200 610 200 610 217.5 606 c 128,-1,17
 235 602 235 602 254.5 601.5 c 128,-1,18
 274 601 274 601 298.5 606 c 128,-1,19
 323 611 323 611 350 630 c 1,20,21
 345 619 345 619 338 606.5 c 128,-1,22
 331 594 331 594 321 582.5 c 128,-1,23
 311 571 311 571 298 561.5 c 128,-1,24
 285 552 285 552 266 547 c 1,25,26
 286 519 286 519 310.5 482.5 c 128,-1,27
 335 446 335 446 356 403 c 128,-1,28
 377 360 377 360 391 312 c 128,-1,29
 405 264 405 264 405 212 c 0,30,31
 405 168 405 168 391.5 130 c 128,-1,32
 378 92 378 92 353 64.5 c 128,-1,33
 328 37 328 37 292.5 21.5 c 128,-1,34
 257 6 257 6 213 6 c 0,35,36
 183 6 183 6 154 20.5 c 128,-1,37
 125 35 125 35 102 58.5 c 128,-1,38
 79 82 79 82 64.5 111.5 c 128,-1,39
 50 141 50 141 50 173 c 0,40,41
 50 201 50 201 58.5 223.5 c 128,-1,42
 67 246 67 246 80 262.5 c 128,-1,43
 93 279 93 279 108.5 287.5 c 128,-1,44
 124 296 124 296 139 296 c 0,45,46
 149 296 149 296 159 289.5 c 128,-1,47
 169 283 169 283 176.5 272.5 c 128,-1,48
 184 262 184 262 188.5 250 c 128,-1,49
 193 238 193 238 193 227 c 0,50,51
 193 210 193 210 185.5 204.5 c 128,-1,52
 178 199 178 199 168.5 200 c 128,-1,53
 159 201 159 201 149 206.5 c 128,-1,54
 139 212 139 212 134 217 c 1,55,56
 121 191 121 191 122.5 165 c 128,-1,57
 124 139 124 139 136.5 117.5 c 128,-1,58
 149 96 149 96 168.5 83 c 128,-1,59
 188 70 188 70 213 70 c 0,60,61
 235 70 235 70 257 79 c 128,-1,62
 279 88 279 88 296.5 107.5 c 128,-1,63
 314 127 314 127 325 156.5 c 128,-1,64
 336 186 336 186 336 227 c 0,65,66
 336 294 336 294 318 341 c 128,-1,67
 300 388 300 388 273.5 421 c 128,-1,68
 247 454 247 454 215 475 c 128,-1,69
 183 496 183 496 156.5 510 c 128,-1,70
 130 524 130 524 112 534.5 c 128,-1,71
 94 545 94 545 94 556 c 0,10,11
EndSplineSet
Validated: 33
EndChar

StartChar: v
Encoding: 118 118 21
Width: 535
Flags: W
LayerCount: 2
Fore
SplineSet
485.0390625 581 m 1,0,1
 452.0390625 571 452.0390625 571 418.0390625 563.5 c 128,-1,2
 384.0390625 556 384.0390625 556 349.0390625 554 c 1,3,4
 363.0390625 529 363.0390625 529 377.5390625 495.5 c 128,-1,5
 392.0390625 462 392.0390625 462 402.5390625 421.5 c 128,-1,6
 413.0390625 381 413.0390625 381 415.5390625 335 c 128,-1,7
 418.0390625 289 418.0390625 289 408.0390625 239 c 128,-1,8
 398.0390625 189 398.0390625 189 373.0390625 137.5 c 128,-1,9
 348.0390625 86 348.0390625 86 302.0390625 35 c 1,10,11
 318.0390625 97 318.0390625 97 326.5390625 170 c 128,-1,12
 335.0390625 243 335.0390625 243 335.0390625 312 c 256,13,14
 335.0390625 382 335.0390625 382 324.5390625 443 c 128,-1,15
 314.0390625 504 314.0390625 504 294.0390625 544 c 1,16,17
 236.0390625 477 236.0390625 477 198.0390625 405.5 c 128,-1,18
 160.0390625 334 160.0390625 334 148.0390625 264.5 c 128,-1,19
 136.0390625 195 136.0390625 195 153.5390625 131 c 128,-1,20
 171.0390625 67 171.0390625 67 223.0390625 16 c 1,21,22
 212.0390625 9 212.0390625 9 196.5390625 5.5 c 128,-1,23
 181.0390625 2 181.0390625 2 167.0390625 2 c 1,24,25
 108.0390625 64 108.0390625 64 79.5390625 127 c 128,-1,26
 51.0390625 190 51.0390625 190 50.0390625 256.5 c 128,-1,27
 49.0390625 323 49.0390625 323 73.5390625 392.5 c 128,-1,28
 98.0390625 462 98.0390625 462 143.0390625 539 c 1,29,-1
 97.0390625 539 l 1,30,31
 90.0390625 553 90.0390625 553 84.0390625 568.5 c 128,-1,32
 78.0390625 584 78.0390625 584 74.0390625 604 c 1,33,34
 162.0390625 597 162.0390625 597 249.5390625 600.5 c 128,-1,35
 337.0390625 604 337.0390625 604 429.0390625 618 c 1,36,37
 443.0390625 611 443.0390625 611 457.0390625 600 c 128,-1,38
 471.0390625 589 471.0390625 589 485.0390625 581 c 1,0,1
EndSplineSet
Validated: 33
EndChar

StartChar: w
Encoding: 119 119 22
Width: 612
Flags: W
LayerCount: 2
Fore
SplineSet
301 211 m 1,0,1
 319 270 319 270 331.5 336 c 128,-1,2
 344 402 344 402 341 476 c 1,3,4
 311 469 311 469 282.5 468 c 128,-1,5
 254 467 254 467 227 467 c 1,6,7
 216 422 216 422 215 380 c 128,-1,8
 214 338 214 338 223 303.5 c 128,-1,9
 232 269 232 269 251.5 244.5 c 128,-1,10
 271 220 271 220 301 211 c 1,0,1
562 393 m 1,11,12
 535 404 535 404 508 439.5 c 128,-1,13
 481 475 481 475 459 516 c 1,14,15
 445 508 445 508 429.5 501.5 c 128,-1,16
 414 495 414 495 399 492 c 1,17,18
 424 406 424 406 424 338 c 0,19,20
 424 271 424 271 407.5 219 c 128,-1,21
 391 167 391 167 362 127 c 128,-1,22
 333 87 333 87 299.5 56 c 128,-1,23
 266 25 266 25 232.5 -0.5 c 128,-1,24
 199 -26 199 -26 173 -49 c 1,25,26
 203 6 203 6 233.5 62 c 128,-1,27
 264 118 264 118 287 176 c 1,28,29
 246 201 246 201 213 234 c 128,-1,30
 180 267 180 267 160.5 306 c 128,-1,31
 141 345 141 345 138 388.5 c 128,-1,32
 135 432 135 432 154 476 c 1,33,34
 106 487 106 487 78 518.5 c 128,-1,35
 50 550 50 550 50 609 c 1,36,37
 100 565 100 565 153.5 552 c 128,-1,38
 207 539 207 539 257.5 544.5 c 128,-1,39
 308 550 308 550 352.5 568 c 128,-1,40
 397 586 397 586 429 604 c 1,41,42
 429 627 429 627 434.5 641 c 128,-1,43
 440 655 440 655 459 664 c 0,44,45
 489 673 489 673 508.5 645.5 c 128,-1,46
 528 618 528 618 540 574 c 128,-1,47
 552 530 552 530 557 480 c 128,-1,48
 562 430 562 430 562 393 c 1,11,12
EndSplineSet
Validated: 33
EndChar

StartChar: x
Encoding: 120 120 23
Width: 590
Flags: W
LayerCount: 2
Fore
SplineSet
522 688 m 1,0,1
 544 596 544 596 540 496 c 128,-1,2
 536 396 536 396 514.5 302.5 c 128,-1,3
 493 209 493 209 458 128.5 c 128,-1,4
 423 48 423 48 384 -5 c 1,5,6
 254 9 254 9 178 1 c 128,-1,7
 102 -7 102 -7 80 -44 c 1,8,9
 72 -40 72 -40 65 -34 c 128,-1,10
 58 -28 58 -28 50 -19 c 1,11,12
 70 44 70 44 173 59 c 1,13,14
 134 117 134 117 121.5 186.5 c 128,-1,15
 109 256 109 256 121 326.5 c 128,-1,16
 133 397 133 397 171 466.5 c 128,-1,17
 209 536 209 536 271 595 c 1,18,19
 248 538 248 538 226 473.5 c 128,-1,20
 204 409 204 409 192 340 c 128,-1,21
 180 271 180 271 186.5 200 c 128,-1,22
 193 129 193 129 227 59 c 1,23,24
 245 59 245 59 264 58.5 c 128,-1,25
 283 58 283 58 301 54 c 1,26,27
 341 100 341 100 374.5 172.5 c 128,-1,28
 408 245 408 245 431.5 324.5 c 128,-1,29
 455 404 455 404 467 483.5 c 128,-1,30
 479 563 479 563 478 625 c 1,31,32
 489 628 489 628 503.5 646.5 c 128,-1,33
 518 665 518 665 522 688 c 1,0,1
EndSplineSet
Validated: 33
EndChar

StartChar: y
Encoding: 121 121 24
Width: 519
Flags: W
LayerCount: 2
Fore
SplineSet
247 45 m 0,0,1
 229 52 229 52 226.5 71 c 128,-1,2
 224 90 224 90 234.5 112.5 c 128,-1,3
 245 135 245 135 265 157 c 128,-1,4
 285 179 285 179 310 193 c 1,5,6
 317 173 317 173 317.5 143.5 c 128,-1,7
 318 114 318 114 311 89.5 c 128,-1,8
 304 65 304 65 288.5 50.5 c 128,-1,9
 273 36 273 36 247 45 c 0,0,1
468 614 m 1,10,11
 473 565 473 565 464.5 517.5 c 128,-1,12
 456 470 456 470 442 421.5 c 128,-1,13
 428 373 428 373 413.5 322.5 c 128,-1,14
 399 272 399 272 394 217 c 1,15,16
 383 239 383 239 375.5 257.5 c 128,-1,17
 368 276 368 276 359 295 c 1,18,19
 311 281 311 281 265.5 276.5 c 128,-1,20
 220 272 220 272 187 281 c 1,21,22
 185 233 185 233 173.5 187 c 128,-1,23
 162 141 162 141 143 103 c 128,-1,24
 124 65 124 65 100 36.5 c 128,-1,25
 76 8 76 8 50 -4 c 1,26,27
 68 38 68 38 85 97.5 c 128,-1,28
 102 157 102 157 114 222.5 c 128,-1,29
 126 288 126 288 131.5 355.5 c 128,-1,30
 137 423 137 423 133 482 c 1,31,32
 156 449 156 449 167 410.5 c 128,-1,33
 178 372 178 372 182 335 c 1,34,35
 227 327 227 327 268.5 333.5 c 128,-1,36
 310 340 310 340 354 354 c 1,37,38
 352 384 352 384 355.5 409 c 128,-1,39
 359 434 359 434 363 455 c 128,-1,40
 367 476 367 476 368.5 494 c 128,-1,41
 370 512 370 512 365 526 c 1,42,43
 348 514 348 514 320.5 506.5 c 128,-1,44
 293 499 293 499 262.5 498 c 128,-1,45
 232 497 232 497 201.5 502.5 c 128,-1,46
 171 508 171 508 147 522 c 128,-1,47
 123 536 123 536 108 559 c 128,-1,48
 93 582 93 582 94 614 c 1,49,50
 149 586 149 586 196 584.5 c 128,-1,51
 243 583 243 583 286.5 590.5 c 128,-1,52
 330 598 330 598 374 608 c 128,-1,53
 418 618 418 618 468 614 c 1,10,11
EndSplineSet
Validated: 33
EndChar

StartChar: z
Encoding: 122 122 25
Width: 434
Flags: W
LayerCount: 2
Fore
SplineSet
115 647 m 1,0,1
 130 630 130 630 158 620.5 c 128,-1,2
 186 611 186 611 219 606 c 128,-1,3
 252 601 252 601 284.5 598 c 128,-1,4
 317 595 317 595 342 589.5 c 128,-1,5
 367 584 367 584 378.5 573.5 c 128,-1,6
 390 563 390 563 381 545 c 0,7,8
 376 537 376 537 350.5 533 c 128,-1,9
 325 529 325 529 284 535 c 1,10,11
 251 530 251 530 209 523 c 128,-1,12
 167 516 167 516 131 512 c 1,13,14
 161 524 161 524 185.5 533 c 128,-1,15
 210 542 210 542 235 550 c 1,16,17
 212 556 212 556 191.5 564.5 c 128,-1,18
 171 573 171 573 155 585.5 c 128,-1,19
 139 598 139 598 128.5 613.5 c 128,-1,20
 118 629 118 629 115 647 c 1,0,1
266 517 m 1,21,22
 274 507 274 507 282 500.5 c 128,-1,23
 290 494 290 494 297.5 488.5 c 128,-1,24
 305 483 305 483 313.5 479 c 128,-1,25
 322 475 322 475 332 469 c 1,26,27
 331 432 331 432 327.5 382 c 128,-1,28
 324 332 324 332 316 277 c 128,-1,29
 308 222 308 222 296 168.5 c 128,-1,30
 284 115 284 115 265 71 c 128,-1,31
 246 27 246 27 220 -2 c 128,-1,32
 194 -31 194 -31 158 -35 c 1,33,34
 178 15 178 15 188.5 75 c 128,-1,35
 199 135 199 135 206 198 c 128,-1,36
 213 261 213 261 220.5 324.5 c 128,-1,37
 228 388 228 388 245 447 c 1,38,39
 209 437 209 437 174 433 c 128,-1,40
 139 429 139 429 111.5 430.5 c 128,-1,41
 84 432 84 432 67 438.5 c 128,-1,42
 50 445 50 445 50 458 c 0,43,44
 50 472 50 472 67.5 479.5 c 128,-1,45
 85 487 85 487 114 489.5 c 128,-1,46
 143 492 143 492 180.5 490 c 128,-1,47
 218 488 218 488 257 484 c 1,48,49
 260 492 260 492 263 500.5 c 128,-1,50
 266 509 266 509 266 517 c 1,21,22
EndSplineSet
Validated: 33
EndChar

StartChar: quotedbl
Encoding: 34 34 26
Width: 298
Flags: W
LayerCount: 2
Fore
SplineSet
133 662 m 1,0,-1
 92 529 l 1,1,-1
 50 659 l 1,2,-1
 50 725 l 1,3,-1
 133 725 l 1,4,-1
 133 662 l 1,0,-1
248 664 m 1,5,-1
 207 532 l 1,6,-1
 165 662 l 1,7,-1
 165 728 l 1,8,-1
 248 728 l 1,9,-1
 248 664 l 1,5,-1
EndSplineSet
Validated: 1
EndChar

StartChar: quotesingle
Encoding: 39 39 27
Width: 183
Flags: W
LayerCount: 2
Fore
SplineSet
133 671 m 1,0,-1
 95 539 l 1,1,-1
 50 668 l 1,2,-1
 50 734 l 1,3,-1
 133 734 l 1,4,-1
 133 671 l 1,0,-1
EndSplineSet
Validated: 1
EndChar

StartChar: comma
Encoding: 44 44 28
Width: 203
Flags: W
LayerCount: 2
Fore
SplineSet
153 3 m 1,0,-1
 50 -129 l 1,1,-1
 71 0 l 1,2,-1
 71 67 l 1,3,-1
 153 67 l 1,4,-1
 153 3 l 1,0,-1
EndSplineSet
Validated: 1
EndChar

StartChar: hyphen
Encoding: 45 45 29
AltUni2: 0000ad.ffffffff.0
Width: 358
Flags: W
LayerCount: 2
Fore
SplineSet
50 330 m 1,0,-1
 308 333 l 1,1,-1
 284 287 l 1,2,-1
 65 287 l 1,3,-1
 50 330 l 1,0,-1
EndSplineSet
Validated: 1
EndChar

StartChar: colon
Encoding: 58 58 30
Width: 183
Flags: W
LayerCount: 2
Fore
SplineSet
133 85 m 1,0,-1
 93 61 l 1,1,-1
 50 83 l 1,2,-1
 50 148 l 1,3,-1
 133 148 l 1,4,-1
 133 85 l 1,0,-1
133 434 m 1,5,-1
 93 410 l 1,6,-1
 50 431 l 1,7,-1
 50 498 l 1,8,-1
 133 498 l 1,9,-1
 133 434 l 1,5,-1
EndSplineSet
Validated: 1
EndChar

StartChar: semicolon
Encoding: 59 59 31
AltUni2: 00037e.ffffffff.0
Width: 203
Flags: W
LayerCount: 2
Fore
SplineSet
153 102 m 1,0,-1
 50 -30 l 1,1,-1
 71 99 l 1,2,-1
 71 166 l 1,3,-1
 153 166 l 1,4,-1
 153 102 l 1,0,-1
153 433 m 1,5,-1
 113 410 l 1,6,-1
 71 431 l 1,7,-1
 71 498 l 1,8,-1
 153 498 l 1,9,-1
 153 433 l 1,5,-1
EndSplineSet
Validated: 1
EndChar

StartChar: quoteleft
Encoding: 8216 8216 32
Width: 203
Flags: W
LayerCount: 2
Fore
SplineSet
50 721 m 1,0,-1
 132 721 l 1,1,-1
 132 654 l 1,2,-1
 153 525 l 1,3,-1
 50 657 l 1,4,-1
 50 721 l 1,0,-1
EndSplineSet
Validated: 1
EndChar

StartChar: quoteright
Encoding: 8217 8217 33
Width: 203
Flags: W
LayerCount: 2
Fore
SplineSet
153 654 m 1,0,-1
 50 522 l 1,1,-1
 71 651 l 1,2,-1
 71 718 l 1,3,-1
 153 718 l 1,4,-1
 153 654 l 1,0,-1
EndSplineSet
Validated: 1
EndChar

StartChar: quotedblleft
Encoding: 8220 8220 34
Width: 317
Flags: W
LayerCount: 2
Fore
SplineSet
50 730 m 1,0,-1
 132 730 l 1,1,-1
 132 664 l 1,2,-1
 153 535 l 1,3,-1
 50 666 l 1,4,-1
 50 730 l 1,0,-1
165 727 m 1,5,-1
 247 727 l 1,6,-1
 247 662 l 1,7,-1
 267 531 l 1,8,-1
 165 664 l 1,9,-1
 165 727 l 1,5,-1
EndSplineSet
Validated: 1
EndChar

StartChar: quotedblright
Encoding: 8221 8221 35
Width: 317
Flags: W
LayerCount: 2
Fore
SplineSet
153 658 m 1,0,-1
 50 526 l 1,1,-1
 71 656 l 1,2,-1
 71 722 l 1,3,-1
 153 722 l 1,4,-1
 153 658 l 1,0,-1
267 660 m 1,5,-1
 165 529 l 1,6,-1
 185 658 l 1,7,-1
 185 725 l 1,8,-1
 267 725 l 1,9,-1
 267 660 l 1,5,-1
EndSplineSet
Validated: 1
EndChar

StartChar: period
Encoding: 46 46 36
Width: 183
Flags: W
LayerCount: 2
Fore
SplineSet
133 5 m 1,0,-1
 93 -18 l 1,1,-1
 50 2 l 1,2,-1
 50 69 l 1,3,-1
 133 69 l 1,4,-1
 133 5 l 1,0,-1
EndSplineSet
Validated: 1
EndChar

StartChar: exclam
Encoding: 33 33 37
Width: 183
Flags: W
LayerCount: 2
Fore
SplineSet
133 3 m 1,0,-1
 93 -20 l 1,1,-1
 50 1 l 1,2,-1
 50 67 l 1,3,-1
 133 67 l 1,4,-1
 133 3 l 1,0,-1
133 550 m 1,5,-1
 93 136 l 1,6,-1
 50 547 l 1,7,-1
 50 613 l 1,8,-1
 133 613 l 1,9,-1
 133 550 l 1,5,-1
EndSplineSet
Validated: 1
EndChar

StartChar: question
Encoding: 63 63 38
Width: 335
Flags: W
LayerCount: 2
Fore
SplineSet
217 67 m 1,0,-1
 134 67 l 1,1,-1
 134 1 l 1,2,-1
 177 -20 l 1,3,-1
 217 3 l 1,4,-1
 217 67 l 1,0,-1
285 525 m 0,5,6
 285 480 285 480 251 431 c 0,7,8
 236 411 236 411 220.5 391.5 c 128,-1,9
 205 372 205 372 188 351 c 0,10,11
 155 304 155 304 156 268 c 256,12,13
 156 232 156 232 176 211 c 128,-1,14
 196 190 196 190 228 190 c 0,15,16
 233 190 233 190 239 190.5 c 128,-1,17
 245 191 245 191 250 193 c 1,18,-1
 253 180 l 1,19,20
 226 157 226 157 169 133 c 1,21,22
 140 133 140 133 121 171 c 0,23,24
 103 203 103 203 102 233 c 0,25,26
 102 273 102 273 149 334 c 0,27,28
 166 357 166 357 177 373.5 c 128,-1,29
 188 390 188 390 196 401 c 0,30,31
 218 441 218 441 217 479 c 0,32,33
 217 551 217 551 145 551 c 0,34,35
 137 551 137 551 103 526 c 0,36,37
 92 518 92 518 81.5 510 c 128,-1,38
 71 502 71 502 59 494 c 1,39,-1
 50 509 l 1,40,41
 58 523 58 523 67.5 538.5 c 128,-1,42
 77 554 77 554 85 569 c 0,43,44
 99 594 99 594 118 602 c 0,45,46
 140 611 140 611 181 611 c 0,47,48
 225 611 225 611 254 591 c 0,49,50
 285 567 285 567 285 525 c 0,5,6
EndSplineSet
Validated: 41
EndChar

StartChar: endash
Encoding: 8211 8211 39
Width: 423
Flags: W
LayerCount: 2
Fore
SplineSet
50 330 m 1,0,-1
 373 333 l 1,1,-1
 342 287 l 1,2,-1
 69 287 l 1,3,-1
 50 330 l 1,0,-1
EndSplineSet
Validated: 1
EndChar

StartChar: emdash
Encoding: 8212 8212 40
Width: 487
Flags: W
LayerCount: 2
Fore
SplineSet
50 330 m 1,0,-1
 437 333 l 1,1,-1
 400 287 l 1,2,-1
 72 287 l 1,3,-1
 50 330 l 1,0,-1
EndSplineSet
Validated: 1
EndChar

StartChar: one
Encoding: 49 49 41
Width: 2925
Flags: W
LayerCount: 2
Fore
SplineSet
864 234 m 0,0,1
 864 168 864 168 828.5 133 c 128,-1,2
 793 98 793 98 731 98 c 0,3,4
 676 98 676 98 640 133 c 128,-1,5
 604 168 604 168 604 229 c 0,6,7
 604 257 604 257 614 281.5 c 128,-1,8
 624 306 624 306 641 324.5 c 128,-1,9
 658 343 658 343 682 354 c 128,-1,10
 706 365 706 365 734 365 c 0,11,12
 792 365 792 365 828 328 c 128,-1,13
 864 291 864 291 864 234 c 0,0,1
734 348 m 0,14,15
 697 348 697 348 679.5 317.5 c 128,-1,16
 662 287 662 287 662 238 c 0,17,18
 662 220 662 220 665.5 198 c 128,-1,19
 669 176 669 176 677.5 157.5 c 128,-1,20
 686 139 686 139 701 127 c 128,-1,21
 716 115 716 115 739 115 c 0,22,23
 776 115 776 115 792 147 c 128,-1,24
 808 179 808 179 808 225 c 0,25,26
 808 251 808 251 803 273.5 c 128,-1,27
 798 296 798 296 788 312.5 c 128,-1,28
 778 329 778 329 764 338.5 c 128,-1,29
 750 348 750 348 734 348 c 0,14,15
902 294 m 2,30,31
 902 325 902 325 900 332.5 c 128,-1,32
 898 340 898 340 886 340 c 2,33,-1
 872 343 l 2,34,35
 870 343 870 343 870 347 c 0,36,37
 870 352 870 352 872 356 c 1,38,39
 895 356 895 356 917 357.5 c 128,-1,40
 939 359 939 359 968 359 c 0,41,42
 992 359 992 359 1010 356 c 128,-1,43
 1028 353 1028 353 1040 343 c 0,44,45
 1054 335 1054 335 1063 319.5 c 128,-1,46
 1072 304 1072 304 1072 287 c 0,47,48
 1072 262 1072 262 1058.5 249 c 128,-1,49
 1045 236 1045 236 1032 229 c 0,50,51
 1028 229 1028 229 1028 226 c 0,52,53
 1028 224 1028 224 1032 221 c 0,54,55
 1050 182 1050 182 1061.5 159.5 c 128,-1,56
 1073 137 1073 137 1089 128 c 1,57,58
 1096 118 1096 118 1101.5 116.5 c 128,-1,59
 1107 115 1107 115 1114 115 c 1,60,61
 1119 110 1119 110 1114 104 c 0,62,63
 1109 104 1109 104 1102 101 c 128,-1,64
 1095 98 1095 98 1084 98 c 0,65,66
 1059 98 1059 98 1041 109.5 c 128,-1,67
 1023 121 1023 121 1011 140 c 0,68,69
 1006 155 1006 155 997.5 170 c 128,-1,70
 989 185 989 185 984 202 c 0,71,72
 979 210 979 210 975.5 211.5 c 128,-1,73
 972 213 972 213 962 213 c 0,74,75
 954 213 954 213 952.5 212 c 128,-1,76
 951 211 951 211 951 205 c 2,77,-1
 951 161 l 2,78,79
 951 133 951 133 954.5 127 c 128,-1,80
 958 121 958 121 971 121 c 1,81,-1
 978 115 l 2,82,83
 983 115 983 115 983 110 c 256,84,85
 983 105 983 105 978 104 c 2,86,-1
 926 104 l 1,87,-1
 872 104 l 2,88,89
 870 104 870 104 870 110 c 256,90,91
 870 115 870 115 872 115 c 2,92,-1
 881 121 l 1,93,94
 893 121 893 121 897.5 127 c 128,-1,95
 902 133 902 133 902 161 c 2,96,-1
 902 294 l 2,30,31
951 246 m 2,97,98
 951 238 951 238 954 236 c 128,-1,99
 957 234 957 234 975 234 c 0,100,101
 984 234 984 234 990 236.5 c 128,-1,102
 996 239 996 239 1004 242 c 1,103,104
 1007 249 1007 249 1011.5 257.5 c 128,-1,105
 1016 266 1016 266 1016 284 c 0,106,107
 1016 311 1016 311 1002 325.5 c 128,-1,108
 988 340 988 340 968 340 c 0,109,110
 956 340 956 340 953.5 338 c 128,-1,111
 951 336 951 336 951 324 c 2,112,-1
 951 246 l 2,97,98
1170 294 m 2,113,114
 1170 325 1170 325 1166 332.5 c 128,-1,115
 1162 340 1162 340 1150 340 c 2,116,-1
 1141 343 l 2,117,118
 1139 343 1139 343 1139 347 c 0,119,120
 1139 352 1139 352 1141 356 c 1,121,122
 1164 356 1164 356 1185.5 357.5 c 128,-1,123
 1207 359 1207 359 1235 359 c 0,124,125
 1257 359 1257 359 1277 356 c 128,-1,126
 1297 353 1297 353 1310 343 c 0,127,128
 1324 335 1324 335 1332.5 319.5 c 128,-1,129
 1341 304 1341 304 1341 287 c 0,130,131
 1341 262 1341 262 1327 249 c 128,-1,132
 1313 236 1313 236 1301 229 c 0,133,134
 1298 229 1298 229 1297 226 c 0,135,136
 1297 224 1297 224 1301 221 c 0,137,138
 1315 182 1315 182 1328 159.5 c 128,-1,139
 1341 137 1341 137 1358 128 c 1,140,141
 1364 118 1364 118 1370 116.5 c 128,-1,142
 1376 115 1376 115 1382 115 c 1,143,144
 1387 110 1387 110 1382 104 c 0,145,146
 1378 104 1378 104 1370.5 101 c 128,-1,147
 1363 98 1363 98 1353 98 c 0,148,149
 1326 98 1326 98 1309 109.5 c 128,-1,150
 1292 121 1292 121 1280 140 c 0,151,152
 1271 155 1271 155 1265 170 c 128,-1,153
 1259 185 1259 185 1251 202 c 0,154,155
 1248 210 1248 210 1244.5 211.5 c 128,-1,156
 1241 213 1241 213 1231 213 c 0,157,158
 1223 213 1223 213 1221.5 212 c 128,-1,159
 1220 211 1220 211 1220 205 c 2,160,-1
 1220 161 l 2,161,162
 1220 133 1220 133 1222.5 127 c 128,-1,163
 1225 121 1225 121 1239 121 c 1,164,-1
 1247 115 l 2,165,166
 1250 115 1250 115 1250 110 c 256,167,168
 1250 105 1250 105 1247 104 c 2,169,-1
 1195 104 l 1,170,-1
 1138 104 l 1,171,-1
 1138 115 l 1,172,-1
 1150 121 l 1,173,174
 1162 121 1162 121 1166 127 c 128,-1,175
 1170 133 1170 133 1170 161 c 2,176,-1
 1170 294 l 2,113,114
1220 246 m 2,177,178
 1220 238 1220 238 1223 236 c 128,-1,179
 1226 234 1226 234 1244 234 c 0,180,181
 1258 234 1258 234 1271 242 c 0,182,183
 1276 249 1276 249 1280 257.5 c 128,-1,184
 1284 266 1284 266 1284 284 c 0,185,186
 1284 311 1284 311 1270 325.5 c 128,-1,187
 1256 340 1256 340 1235 340 c 0,188,189
 1224 340 1224 340 1222 338 c 128,-1,190
 1220 336 1220 336 1220 324 c 2,191,-1
 1220 246 l 2,177,178
1646 234 m 0,192,193
 1646 168 1646 168 1608.5 133 c 128,-1,194
 1571 98 1571 98 1512 98 c 128,-1,195
 1453 98 1453 98 1417.5 133 c 128,-1,196
 1382 168 1382 168 1382 229 c 0,197,198
 1382 257 1382 257 1392.5 281.5 c 128,-1,199
 1403 306 1403 306 1421 324.5 c 128,-1,200
 1439 343 1439 343 1463 354 c 128,-1,201
 1487 365 1487 365 1516 365 c 0,202,203
 1574 365 1574 365 1610 328 c 128,-1,204
 1646 291 1646 291 1646 234 c 0,192,193
1512 348 m 0,205,206
 1477 348 1477 348 1460 317.5 c 128,-1,207
 1443 287 1443 287 1443 238 c 0,208,209
 1443 220 1443 220 1446.5 198 c 128,-1,210
 1450 176 1450 176 1458 157.5 c 128,-1,211
 1466 139 1466 139 1480 127 c 128,-1,212
 1494 115 1494 115 1516 115 c 0,213,214
 1553 115 1553 115 1569.5 147 c 128,-1,215
 1586 179 1586 179 1586 225 c 0,216,217
 1586 251 1586 251 1581 273.5 c 128,-1,218
 1576 296 1576 296 1566.5 312.5 c 128,-1,219
 1557 329 1557 329 1542.5 338.5 c 128,-1,220
 1528 348 1528 348 1512 348 c 0,205,206
1988 343 m 2,221,222
 1983 341 1983 341 1979 340 c 128,-1,223
 1975 339 1975 339 1971 335 c 0,224,225
 1969 329 1969 329 1965 319 c 128,-1,226
 1961 309 1961 309 1952 291 c 0,227,228
 1946 274 1946 274 1935 249.5 c 128,-1,229
 1924 225 1924 225 1913 198 c 128,-1,230
 1902 171 1902 171 1891 145 c 128,-1,231
 1880 119 1880 119 1874 98 c 1,232,-1
 1863 98 l 1,233,-1
 1854 98 l 1,234,235
 1850 108 1850 108 1845 117.5 c 128,-1,236
 1840 127 1840 127 1838 137 c 2,237,-1
 1822 172 l 2,238,239
 1819 182 1819 182 1816 190 c 128,-1,240
 1813 198 1813 198 1808 202 c 1,241,242
 1806 196 1806 196 1803 189 c 128,-1,243
 1800 182 1800 182 1798 172 c 2,244,-1
 1782 137 l 2,245,246
 1775 127 1775 127 1771 118 c 128,-1,247
 1767 109 1767 109 1765 98 c 1,248,249
 1760 96 1760 96 1757.5 95.5 c 128,-1,250
 1755 95 1755 95 1752 95 c 0,251,252
 1750 95 1750 95 1747 95.5 c 128,-1,253
 1744 96 1744 96 1744 98 c 0,254,255
 1738 110 1738 110 1727 133 c 128,-1,256
 1716 156 1716 156 1708 180 c 2,257,-1
 1646 315 l 2,258,259
 1641 333 1641 333 1636.5 338 c 128,-1,260
 1632 343 1632 343 1622 343 c 2,261,-1
 1613 343 l 1,262,263
 1613 349 1613 349 1613.5 353 c 128,-1,264
 1614 357 1614 357 1619 359 c 0,265,266
 1627 359 1627 359 1638.5 357.5 c 128,-1,267
 1650 356 1650 356 1662 356 c 256,268,269
 1674 356 1674 356 1686 357.5 c 128,-1,270
 1698 359 1698 359 1708 359 c 0,271,272
 1710 357 1710 357 1710 352 c 256,273,274
 1710 347 1710 347 1708 343 c 1,275,-1
 1703 343 l 2,276,277
 1697 343 1697 343 1696 341.5 c 0,278,279
 1695 340 l 2,280,281
 1695 333 1695 333 1711 291 c 2,282,-1
 1749 205 l 2,283,284
 1757 187 1757 187 1761.5 178.5 c 128,-1,285
 1766 170 1766 170 1768 164 c 1,286,287
 1771 170 1771 170 1774.5 179.5 c 128,-1,288
 1778 189 1778 189 1785 202 c 2,289,-1
 1789 213 l 2,290,291
 1791 217 1791 217 1794.5 223 c 0,292,-1
 1798 229 l 2,293,294
 1798 233 1798 233 1797.5 236 c 128,-1,295
 1797 239 1797 239 1792 242 c 2,296,-1
 1756 324 l 2,297,298
 1751 336 1751 336 1748 339.5 c 128,-1,299
 1745 343 1745 343 1733 343 c 2,300,-1
 1728 343 l 1,301,302
 1725 347 1725 347 1727 352 c 128,-1,303
 1729 357 1729 357 1733 359 c 0,304,305
 1741 359 1741 359 1752 357.5 c 128,-1,306
 1763 356 1763 356 1776 356 c 0,307,308
 1793 356 1793 356 1801.5 357.5 c 128,-1,309
 1810 359 1810 359 1818 359 c 0,310,311
 1823 357 1823 357 1823.5 352 c 128,-1,312
 1824 347 1824 347 1822 343 c 1,313,-1
 1814 343 l 2,314,315
 1810 343 1810 343 1807.5 341.5 c 0,316,-1
 1805 340 l 2,317,318
 1805 336 1805 336 1805.5 333.5 c 128,-1,319
 1806 331 1806 331 1808 327 c 2,320,-1
 1818 300 l 2,321,322
 1821 295 1821 295 1823.5 289 c 128,-1,323
 1826 283 1826 283 1830 278 c 1,324,325
 1833 285 1833 285 1836 290.5 c 128,-1,326
 1839 296 1839 296 1841 303 c 2,327,-1
 1841 310 l 1,328,329
 1854 332 1854 332 1854 340 c 1,330,-1
 1846 343 l 1,331,-1
 1834 343 l 1,332,333
 1834 347 1834 347 1834.5 352 c 128,-1,334
 1835 357 1835 357 1838 359 c 0,335,336
 1844 359 1844 359 1855 357.5 c 128,-1,337
 1866 356 1866 356 1874 356 c 0,338,339
 1883 356 1883 356 1892.5 357.5 c 128,-1,340
 1902 359 1902 359 1912 359 c 0,341,342
 1914 357 1914 357 1914 352 c 256,343,344
 1914 347 1914 347 1912 343 c 1,345,-1
 1899 343 l 2,346,347
 1890 341 1890 341 1886 337.5 c 128,-1,348
 1882 334 1882 334 1871 315 c 0,349,350
 1865 304 1865 304 1859 292.5 c 128,-1,351
 1853 281 1853 281 1849 270 c 0,352,353
 1847 268 1847 268 1844 261 c 0,354,-1
 1841 254 l 2,355,356
 1841 252 1841 252 1841.5 250.5 c 128,-1,357
 1842 249 1842 249 1846 242 c 2,358,-1
 1863 205 l 2,359,360
 1869 187 1869 187 1872 178.5 c 128,-1,361
 1875 170 1875 170 1879 164 c 1,362,363
 1891 199 1891 199 1904 234 c 128,-1,364
 1917 269 1917 269 1931 303 c 0,365,366
 1931 308 1931 308 1934.5 321 c 128,-1,367
 1938 334 1938 334 1938 340 c 2,368,369
 1937 341.5 l 0,370,371
 1936 343 1936 343 1931 343 c 2,372,-1
 1928 343 l 1,373,374
 1923 347 1923 347 1923 352 c 256,375,376
 1923 357 1923 357 1928 359 c 0,377,378
 1936 359 1936 359 1945.5 357.5 c 128,-1,379
 1955 356 1955 356 1964 356 c 256,380,381
 1973 356 1973 356 1981.5 357.5 c 128,-1,382
 1990 359 1990 359 1997 359 c 0,383,384
 2000 357 2000 357 2000.5 352 c 128,-1,385
 2001 347 2001 347 2001 343 c 1,386,-1
 1988 343 l 2,221,222
2070 161 m 2,387,388
 2070 133 2070 133 2072 127 c 128,-1,389
 2074 121 2074 121 2085 121 c 1,390,-1
 2098 115 l 2,391,392
 2100 115 2100 115 2100 110 c 256,393,394
 2100 105 2100 105 2098 104 c 2,395,-1
 2042 104 l 1,396,-1
 1985 104 l 1,397,-1
 1985 115 l 1,398,-1
 1997 121 l 1,399,400
 2008 121 2008 121 2012.5 127 c 128,-1,401
 2017 133 2017 133 2017 161 c 2,402,-1
 2017 303 l 2,403,404
 2017 331 2017 331 2012.5 336 c 128,-1,405
 2008 341 2008 341 1997 343 c 2,406,-1
 1985 343 l 1,407,-1
 1985 359 l 1,408,409
 1999 359 1999 359 2014.5 357.5 c 128,-1,410
 2030 356 2030 356 2042 356 c 256,411,412
 2054 356 2054 356 2068.5 357.5 c 128,-1,413
 2083 359 2083 359 2098 359 c 0,414,415
 2100 357 2100 357 2100 352 c 256,416,417
 2100 347 2100 347 2098 343 c 1,418,-1
 2085 343 l 2,419,420
 2074 341 2074 341 2072 336 c 128,-1,421
 2070 331 2070 331 2070 303 c 2,422,-1
 2070 161 l 2,387,388
2395 169 m 1,423,-1
 2395 108 l 2,424,425
 2392 106 2392 106 2384.5 102 c 128,-1,426
 2377 98 2377 98 2371 98 c 1,427,-1
 2360 112 l 0,428,429
 2349 126 2349 126 2335 140 c 2,430,-1
 2237 251 l 2,431,432
 2218 271 2218 271 2208 283 c 128,-1,433
 2198 295 2198 295 2191 300 c 1,434,435
 2189 295 2189 295 2188.5 291 c 128,-1,436
 2188 287 2188 287 2188 274 c 2,437,-1
 2188 202 l 2,438,439
 2188 177 2188 177 2190 157 c 128,-1,440
 2192 137 2192 137 2197 128 c 0,441,442
 2199 125 2199 125 2205 122.5 c 128,-1,443
 2211 120 2211 120 2221 115 c 1,444,-1
 2232 115 l 2,445,446
 2236 113 2236 113 2234 108.5 c 0,447,-1
 2232 104 l 1,448,-1
 2175 104 l 1,449,-1
 2127 104 l 1,450,-1
 2127 115 l 1,451,-1
 2134 115 l 1,452,453
 2144 120 2144 120 2150.5 122.5 c 128,-1,454
 2157 125 2157 125 2160 128 c 0,455,456
 2163 137 2163 137 2163.5 157 c 128,-1,457
 2164 177 2164 177 2164 202 c 2,458,-1
 2164 300 l 2,459,460
 2164 314 2164 314 2163.5 321 c 128,-1,461
 2163 328 2163 328 2160 332 c 0,462,463
 2160 338 2160 338 2153.5 339.5 c 128,-1,464
 2147 341 2147 341 2139 343 c 2,465,-1
 2127 343 l 1,466,467
 2125 347 2125 347 2125 352 c 256,468,469
 2125 357 2125 357 2127 359 c 0,470,471
 2142 359 2142 359 2156.5 357.5 c 128,-1,472
 2171 356 2171 356 2183 356 c 256,473,474
 2195 356 2195 356 2204.5 357.5 c 128,-1,475
 2214 359 2214 359 2221 359 c 1,476,477
 2223 347 2223 347 2243 323.5 c 128,-1,478
 2263 300 2263 300 2290 270 c 2,479,-1
 2327 234 l 2,480,481
 2341 218 2341 218 2351 208.5 c 128,-1,482
 2361 199 2361 199 2368 188 c 1,483,484
 2370 192 2370 192 2370.5 198 c 128,-1,485
 2371 204 2371 204 2371 210 c 2,486,-1
 2371 261 l 2,487,488
 2371 286 2371 286 2368.5 306 c 128,-1,489
 2366 326 2366 326 2362 332 c 0,490,491
 2358 343 2358 343 2338 343 c 2,492,-1
 2327 343 l 1,493,494
 2324 347 2324 347 2325.5 352 c 128,-1,495
 2327 357 2327 357 2327 359 c 1,496,497
 2345 359 2345 359 2358.5 357.5 c 128,-1,498
 2372 356 2372 356 2384 356 c 256,499,500
 2396 356 2396 356 2408.5 357.5 c 128,-1,501
 2421 359 2421 359 2433 359 c 1,502,-1
 2433 343 l 1,503,-1
 2424 343 l 2,504,505
 2405 343 2405 343 2400 332 c 0,506,507
 2396 326 2396 326 2395.5 306 c 128,-1,508
 2395 286 2395 286 2395 261 c 2,509,-1
 2395 169 l 1,423,-1
91 348 m 2,510,511
 89 350 89 350 89 358 c 0,512,513
 89 367 89 367 91 368 c 2,514,-1
 164 368 l 1,515,-1
 221 368 l 1,516,517
 221 341 221 341 235 314 c 128,-1,518
 249 287 249 287 267 246 c 2,519,-1
 307 169 l 2,520,521
 308 164 308 164 311.5 156 c 128,-1,522
 315 148 315 148 319.5 139.5 c 128,-1,523
 324 131 324 131 328.5 122.5 c 128,-1,524
 333 114 333 114 336 108 c 1,525,526
 341 120 341 120 348.5 134 c 128,-1,527
 356 148 356 148 369 172 c 2,528,-1
 400 234 l 2,529,530
 409 257 409 257 416.5 274 c 128,-1,531
 424 291 424 291 430 306 c 128,-1,532
 436 321 436 321 442 335 c 128,-1,533
 448 349 448 349 454 368 c 1,534,-1
 515 368 l 1,535,-1
 580 368 l 1,536,537
 594 363 594 363 580 348 c 1,538,-1
 563 343 l 2,539,540
 545 341 545 341 538 334 c 128,-1,541
 531 327 531 327 531 303 c 0,542,543
 531 260 531 260 531 226 c 256,544,545
 531 192 531 192 532 163.5 c 128,-1,546
 533 135 533 135 533.5 109.5 c 128,-1,547
 534 84 534 84 536 58 c 0,548,549
 536 38 536 38 540 27 c 128,-1,550
 544 16 544 16 560 14 c 2,551,-1
 580 14 l 1,552,553
 583 10 583 10 583 3 c 0,554,555
 583 -3 583 -3 580 -6 c 2,556,-1
 499 -6 l 1,557,-1
 414 -6 l 2,558,559
 408 -3 408 -3 407.5 3.5 c 128,-1,560
 407 10 407 10 409 14 c 1,561,-1
 430 14 l 2,562,563
 447 16 447 16 450.5 25 c 128,-1,564
 454 34 454 34 454 58 c 2,565,-1
 454 205 l 1,566,-1
 454 270 l 1,567,568
 420 202 420 202 387 132.5 c 128,-1,569
 354 63 354 63 324 -10 c 1,570,-1
 321 -12.5 l 0,571,572
 318 -15 318 -15 316 -15 c 0,573,574
 309 -15 309 -15 305.5 -12.5 c 128,-1,575
 302 -10 302 -10 300 -10 c 0,576,577
 291 16 291 16 274.5 52.5 c 128,-1,578
 258 89 258 89 240 128 c 128,-1,579
 222 167 222 167 204.5 205 c 128,-1,580
 187 243 187 243 177 270 c 1,581,-1
 173 270 l 1,582,583
 173 243 173 243 171.5 224 c 128,-1,584
 170 205 170 205 170 180 c 2,585,-1
 170 55 l 2,586,587
 170 32 170 32 174 24.5 c 128,-1,588
 178 17 178 17 194 17 c 2,589,-1
 218 14 l 2,590,591
 220 10 220 10 220 3 c 0,592,593
 220 -3 220 -3 218 -6 c 2,594,-1
 147 -6 l 1,595,-1
 83 -6 l 2,596,597
 77 -3 77 -3 76.5 3.5 c 128,-1,598
 76 10 76 10 80 14 c 1,599,-1
 91 14 l 2,600,601
 114 16 114 16 119 24 c 128,-1,602
 124 32 124 32 124 58 c 0,603,604
 127 81 127 81 129.5 115.5 c 128,-1,605
 132 150 132 150 137 188 c 0,606,607
 137 216 137 216 138.5 247.5 c 128,-1,608
 140 279 140 279 140 303 c 128,-1,609
 140 327 140 327 131 334.5 c 128,-1,610
 122 342 122 342 104 348 c 1,611,-1
 91 348 l 2,510,511
2501 274 m 2,612,613
 2501 293 2501 293 2500.5 305 c 128,-1,614
 2500 317 2500 317 2498 324.5 c 128,-1,615
 2496 332 2496 332 2490.5 335 c 128,-1,616
 2485 338 2485 338 2476 340 c 2,617,-1
 2465 340 l 2,618,619
 2461 342 2461 342 2461.5 349.5 c 128,-1,620
 2462 357 2462 357 2469 359 c 0,621,622
 2503 359 2503 359 2537.5 362 c 128,-1,623
 2572 365 2572 365 2615 365 c 0,624,625
 2649 365 2649 365 2681.5 360 c 128,-1,626
 2714 355 2714 355 2742 343 c 0,627,628
 2770 334 2770 334 2791 318 c 128,-1,629
 2812 302 2812 302 2826.5 281.5 c 128,-1,630
 2841 261 2841 261 2848.5 237 c 128,-1,631
 2856 213 2856 213 2856 188 c 0,632,633
 2856 133 2856 133 2830 91.5 c 128,-1,634
 2804 50 2804 50 2759 26 c 1,635,636
 2727 14 2727 14 2692.5 7.5 c 128,-1,637
 2658 1 2658 1 2615 1 c 0,638,639
 2596 1 2596 1 2577 3.5 c 128,-1,640
 2558 6 2558 6 2542 6 c 0,641,642
 2524 6 2524 6 2502.5 5.5 c 128,-1,643
 2481 5 2481 5 2457 1 c 1,644,645
 2454 5 2454 5 2454 11 c 0,646,647
 2454 18 2454 18 2457 23 c 2,648,-1
 2473 26 l 2,649,650
 2483 28 2483 28 2488.5 30 c 128,-1,651
 2494 32 2494 32 2497 37.5 c 128,-1,652
 2500 43 2500 43 2500.5 54 c 128,-1,653
 2501 65 2501 65 2501 83 c 2,654,-1
 2501 274 l 2,612,613
2583 104 m 2,655,656
 2583 79 2583 79 2584.5 65.5 c 128,-1,657
 2586 52 2586 52 2596 42 c 0,658,659
 2601 34 2601 34 2613 30 c 128,-1,660
 2625 26 2625 26 2639 26 c 0,661,662
 2674 26 2674 26 2698.5 40 c 128,-1,663
 2723 54 2723 54 2738 77 c 128,-1,664
 2753 100 2753 100 2759.5 129 c 128,-1,665
 2766 158 2766 158 2766 185 c 0,666,667
 2766 259 2766 259 2727.5 299.5 c 128,-1,668
 2689 340 2689 340 2615 340 c 0,669,670
 2603 340 2603 340 2595 337 c 128,-1,671
 2587 334 2587 334 2587 332 c 0,672,673
 2584 328 2584 328 2583.5 319.5 c 128,-1,674
 2583 311 2583 311 2583 300 c 2,675,-1
 2583 104 l 2,655,656
50 424 m 1,676,-1
 2875 424 l 1,677,-1
 50 424 l 1,676,-1
701 609 m 0,678,679
 699 609 699 609 696 606 c 128,-1,680
 693 603 693 603 690 603 c 0,681,682
 686 601 686 601 680.5 600.5 c 128,-1,683
 675 600 675 600 666 600 c 0,684,685
 661 600 661 600 655 599.5 c 128,-1,686
 649 599 649 599 649 596 c 2,687,-1
 649 489 l 2,688,689
 649 487 649 487 652 486.5 c 128,-1,690
 655 486 655 486 666 486 c 2,691,-1
 678 486 l 1,692,-1
 682 482 l 1,693,-1
 682 478 l 1,694,-1
 633 478 l 2,695,696
 630 478 630 478 623.5 477.5 c 128,-1,697
 617 477 617 477 612 473 c 1,698,-1
 600 473 l 2,699,700
 593 473 593 473 593 478 c 1,701,-1
 626 486 l 2,702,703
 628 486 628 486 628.5 494 c 128,-1,704
 629 502 629 502 629 514 c 2,705,-1
 629 577 l 1,706,-1
 629 596 l 2,707,708
 627 599 627 599 626 599.5 c 128,-1,709
 625 600 625 600 620 600 c 2,710,-1
 612 600 l 1,711,-1
 609 600 l 1,712,-1
 600 600 l 2,713,714
 580 600 580 600 577 596 c 1,715,716
 572 596 572 596 571 587 c 2,717,-1
 571 584 l 2,718,719
 569 584 569 584 566 585 c 128,-1,720
 563 586 563 586 563 593 c 0,721,722
 563 595 563 595 563.5 598.5 c 128,-1,723
 564 602 564 602 568 609 c 0,724,725
 570 611 570 611 576.5 613.5 c 128,-1,726
 583 616 583 616 593 616 c 2,727,-1
 629 616 l 2,728,729
 641 613 641 613 652.5 612.5 c 128,-1,730
 664 612 664 612 669 612 c 0,731,732
 685 612 685 612 691.5 614 c 0,733,-1
 698 616 l 1,734,-1
 698 620 l 1,735,-1
 694 626 l 1,736,-1
 694 629 l 1,737,738
 699 632 699 632 703 632.5 c 0,739,-1
 707 633 l 257,740,741
 708.5 632.5 l 0,742,743
 710 632 710 632 710 629 c 1,744,745
 715 629 715 629 715 626 c 0,746,747
 715 621 715 621 711 617.5 c 128,-1,748
 707 614 707 614 701 609 c 0,678,679
782 489 m 1,749,750
 787 489 787 489 790 492.5 c 128,-1,751
 793 496 793 496 796 498 c 2,752,-1
 799 495 l 2,753,754
 799 490 799 490 796 486 c 0,755,756
 792 486 792 486 789 482 c 1,757,758
 784 482 784 482 781.5 480 c 0,759,-1
 779 478 l 2,760,761
 776 474 776 474 775 473.5 c 128,-1,762
 774 473 774 473 772 473 c 2,763,-1
 767 478 l 1,764,-1
 767 486 l 1,765,-1
 767 495 l 1,766,-1
 767 498 l 2,767,768
 767 510 767 510 766.5 519 c 128,-1,769
 766 528 766 528 763 530 c 0,770,771
 763 540 763 540 758.5 543.5 c 128,-1,772
 754 547 754 547 747 547 c 2,773,-1
 744 546.5 l 0,774,775
 741 546 741 546 739 544 c 0,776,777
 731 544 731 544 731 539 c 2,778,-1
 731 530 l 1,779,-1
 731 511 l 1,780,-1
 731 489 l 1,781,-1
 731 478 l 1,782,783
 727 478 727 478 721.5 475 c 128,-1,784
 716 472 716 472 710 470 c 1,785,-1
 710 482 l 1,786,-1
 710 522 l 1,787,-1
 710 571 l 1,788,-1
 710 580 l 2,789,790
 710 585 710 585 709.5 591 c 128,-1,791
 709 597 709 597 707 600 c 2,792,-1
 703.5 602 l 0,793,794
 700 604 700 604 698 609 c 0,795,796
 695 609 695 609 694.5 610.5 c 0,797,-1
 694 612 l 1,798,-1
 698 612 l 1,799,-1
 701 614 l 0,800,801
 704 616 704 616 710 616 c 0,802,803
 716 618 716 618 719.5 619 c 0,804,-1
 723 620 l 2,805,806
 725 620 725 620 726 619 c 128,-1,807
 727 618 727 618 731 616 c 1,808,809
 731 606 731 606 728.5 598 c 128,-1,810
 726 590 726 590 726 580 c 0,811,812
 726 566 726 566 728.5 558.5 c 0,813,-1
 731 551 l 1,814,815
 737 554 737 554 743 557 c 128,-1,816
 749 560 749 560 756 560 c 0,817,818
 758 560 758 560 763.5 559 c 128,-1,819
 769 558 769 558 775 551 c 0,820,821
 778 548 778 548 780 535 c 128,-1,822
 782 522 782 522 782 498 c 2,823,-1
 782 489 l 1,749,750
864 544 m 2,824,-1
 863.5 541.5 l 0,825,826
 863 539 863 539 861 539 c 0,827,828
 853 533 853 533 832 527 c 1,829,830
 822 516 822 516 821 511 c 0,831,832
 821 507 821 507 821.5 502 c 128,-1,833
 822 497 822 497 824 495 c 0,834,835
 827 489 827 489 833 487.5 c 128,-1,836
 839 486 839 486 845 486 c 0,837,838
 847 486 847 486 850.5 486.5 c 128,-1,839
 854 487 854 487 857 489 c 0,840,841
 860 493 860 493 862 494 c 0,842,-1
 864 495 l 257,843,-1
 866.5 494.5 l 0,844,845
 869 494 869 494 869 489 c 2,846,-1
 865.5 486.5 l 0,847,848
 862 484 862 484 857 478 c 0,849,850
 850 474 850 474 843 472 c 128,-1,851
 836 470 836 470 832 470 c 0,852,853
 827 470 827 470 820 472.5 c 128,-1,854
 813 475 813 475 808 482 c 0,855,856
 801 485 801 485 800 493 c 128,-1,857
 799 501 799 501 799 511 c 2,858,-1
 799 514 l 2,859,860
 799 560 799 560 837 560 c 0,861,862
 843 560 843 560 846 557 c 128,-1,863
 849 554 849 554 853 551 c 0,864,865
 856 551 856 551 858.5 549 c 0,866,-1
 861 547 l 1,867,-1
 864 547 l 2,868,869
 864 550 864 550 866.5 550.5 c 0,870,-1
 869 551 l 2,871,872
 872 551 872 551 872 547 c 2,873,-1
 870 545.5 l 0,874,875
 868 544 868 544 864 544 c 2,824,-1
832 547 m 2,876,877
 830 547 830 547 825.5 543.5 c 128,-1,878
 821 540 821 540 821 527 c 1,879,-1
 825 528.5 l 0,880,881
 829 530 829 530 832 530 c 0,882,883
 839 534 839 534 840 536.5 c 0,884,-1
 841 539 l 1,885,-1
 837 544 l 1,886,-1
 832 547 l 2,876,877
1293 544 m 2,887,-1
 1292.5 541.5 l 0,888,889
 1292 539 1292 539 1287 539 c 0,890,891
 1285 537 1285 537 1277 533 c 128,-1,892
 1269 529 1269 529 1261 527 c 0,893,894
 1248 515 1248 515 1247 511 c 256,895,896
 1247 507 1247 507 1247.5 502 c 128,-1,897
 1248 497 1248 497 1251 495 c 0,898,899
 1254 489 1254 489 1260 487.5 c 128,-1,900
 1266 486 1266 486 1271 486 c 0,901,902
 1280 486 1280 486 1284 489 c 0,903,904
 1286 493 1286 493 1289.5 494 c 0,905,-1
 1293 495 l 257,906,-1
 1294.5 494.5 l 0,907,908
 1296 494 1296 494 1296 489 c 2,909,-1
 1293.5 486.5 l 0,910,911
 1291 484 1291 484 1284 478 c 0,912,913
 1279 474 1279 474 1271 472 c 128,-1,914
 1263 470 1263 470 1261 470 c 0,915,916
 1248 470 1248 470 1235 482 c 0,917,918
 1230 485 1230 485 1229 493 c 128,-1,919
 1228 501 1228 501 1228 511 c 2,920,-1
 1228 514 l 2,921,922
 1228 560 1228 560 1264 560 c 0,923,924
 1269 560 1269 560 1273.5 557 c 128,-1,925
 1278 554 1278 554 1280 551 c 0,926,927
 1283 551 1283 551 1285 549 c 0,928,-1
 1287 547 l 1,929,-1
 1293 547 l 2,930,931
 1293 550 1293 550 1294.5 550.5 c 0,932,-1
 1296 551 l 2,933,934
 1300 551 1300 551 1301 547 c 2,935,-1
 1298 545.5 l 0,936,937
 1295 544 1295 544 1293 544 c 2,887,-1
1261 547 m 2,938,939
 1257 547 1257 547 1252 543.5 c 128,-1,940
 1247 540 1247 540 1247 527 c 1,941,-1
 1251.5 528.5 l 0,942,943
 1256 530 1256 530 1261 530 c 0,944,945
 1266 534 1266 534 1267 536.5 c 0,946,-1
 1268 539 l 1,947,-1
 1264 544 l 1,948,-1
 1261 547 l 2,938,939
1049 498 m 1,949,-1
 1049 454 l 1,950,-1
 1043 454 l 1,951,-1
 1035 454 l 1,952,-1
 1035 486 l 1,953,954
 1003 473 1003 473 987 473 c 2,955,-1
 984 473 l 2,956,957
 972 473 972 473 960.5 479 c 128,-1,958
 949 485 949 485 942 495 c 0,959,960
 937 501 937 501 933 510 c 128,-1,961
 929 519 929 519 926 536 c 2,962,-1
 926 544 l 2,963,964
 926 552 926 552 928.5 561 c 128,-1,965
 931 570 931 570 935 580 c 0,966,967
 939 597 939 597 945 603 c 0,968,969
 950 608 950 608 953 610.5 c 128,-1,970
 956 613 956 613 962 616 c 0,971,972
 972 618 972 618 980.5 619 c 128,-1,973
 989 620 989 620 994 620 c 0,974,975
 998 620 998 620 1006.5 616.5 c 128,-1,976
 1015 613 1015 613 1027 603 c 0,977,978
 1027 600 1027 600 1032 600 c 1,979,980
 1036 616 1036 616 1043 616 c 2,981,-1
 1049 616 l 2,982,983
 1049 613 1049 613 1046 610.5 c 128,-1,984
 1043 608 1043 608 1043 603 c 0,985,986
 1027 574 1027 574 1027 567 c 1,987,-1
 1032 567 l 1,988,-1
 1052 567 l 1,989,-1
 1051.5 558 l 0,990,991
 1051 549 1051 549 1049 530 c 2,992,-1
 1049 498 l 1,949,-1
978 609 m 0,993,994
 973 609 973 609 969.5 604 c 128,-1,995
 966 599 966 599 958 596 c 1,996,997
 955 587 955 587 953 580.5 c 128,-1,998
 951 574 951 574 951 567 c 2,999,-1
 951 563 l 1,1000,-1
 958 563 l 2,1001,1002
 983 563 983 563 998 563.5 c 128,-1,1003
 1013 564 1013 564 1020 567 c 0,1004,1005
 1020 570 1020 570 1014.5 576.5 c 128,-1,1006
 1009 583 1009 583 1004 593 c 1,1007,1008
 997 598 997 598 991 603.5 c 128,-1,1009
 985 609 985 609 978 609 c 0,993,994
1020 547 m 2,1010,1011
 951 547 951 547 951 539 c 0,1012,1013
 953 527 953 527 957.5 518 c 128,-1,1014
 962 509 962 509 971 503 c 0,1015,1016
 981 497 981 497 989.5 493 c 128,-1,1017
 998 489 998 489 1011 489 c 0,1018,1019
 1018 489 1018 489 1023.5 489.5 c 128,-1,1020
 1029 490 1029 490 1035 495 c 0,1021,1022
 1035 497 1035 497 1037.5 503 c 128,-1,1023
 1040 509 1040 509 1040 519 c 2,1024,-1
 1040 547 l 1,1025,-1
 1032 547 l 1,1026,-1
 1020 547 l 2,1010,1011
1108 486 m 0,1027,1028
 1103 483 1103 483 1094 480 c 128,-1,1029
 1085 477 1085 477 1076 473 c 1,1030,-1
 1076 506 l 1,1031,-1
 1076 593 l 2,1032,1033
 1076 595 1076 595 1065 609 c 1,1034,-1
 1065 612 l 1,1035,-1
 1067.5 612.5 l 0,1036,1037
 1070 613 1070 613 1076 616 c 0,1038,1039
 1082 618 1082 618 1086 619 c 128,-1,1040
 1090 620 1090 620 1093 620 c 2,1041,-1
 1098 620 l 1,1042,-1
 1098 587 l 1,1043,-1
 1098 580 l 1,1044,-1
 1098 489 l 2,1045,1046
 1100 493 1100 493 1103 494 c 128,-1,1047
 1106 495 1106 495 1108 495 c 2,1048,-1
 1114 495 l 1,1049,1050
 1114 491 1114 491 1111 489.5 c 128,-1,1051
 1108 488 1108 488 1108 486 c 0,1027,1028
1211 486 m 2,1052,-1
 1208 484 l 0,1053,1054
 1205 482 1205 482 1203 482 c 2,1055,-1
 1203 478 l 1,1056,-1
 1195 478 l 1,1057,-1
 1187 470 l 2,1058,1059
 1184 470 1184 470 1183.5 475 c 128,-1,1060
 1183 480 1183 480 1183 486 c 1,1061,-1
 1180 485 l 0,1062,1063
 1177 484 1177 484 1170 478 c 0,1064,1065
 1167 474 1167 474 1161 472 c 128,-1,1066
 1155 470 1155 470 1150 470 c 0,1067,1068
 1148 470 1148 470 1142.5 472.5 c 128,-1,1069
 1137 475 1137 475 1134 482 c 0,1070,1071
 1127 487 1127 487 1124 496.5 c 128,-1,1072
 1121 506 1121 506 1121 514 c 2,1073,-1
 1121 519 l 2,1074,1075
 1121 560 1121 560 1162 560 c 1,1076,-1
 1183 551 l 1,1077,-1
 1183 563 l 2,1078,1079
 1180 580 1180 580 1179.5 590.5 c 128,-1,1080
 1179 601 1179 601 1179 603 c 2,1081,-1
 1176 606 l 0,1082,1083
 1173 609 1173 609 1170 609 c 0,1084,1085
 1167 611 1167 611 1164.5 613.5 c 0,1086,-1
 1162 616 l 257,1087,-1
 1166.5 618 l 0,1088,1089
 1171 620 1171 620 1174 620 c 0,1090,1091
 1181 620 1181 620 1186 623 c 128,-1,1092
 1191 626 1191 626 1195 626 c 0,1093,1094
 1197 626 1197 626 1200 622 c 128,-1,1095
 1203 618 1203 618 1203 616 c 2,1096,-1
 1203 612 l 1,1097,-1
 1203 495 l 1,1098,-1
 1203 489 l 2,1099,1100
 1205 493 1205 493 1208 494 c 0,1101,-1
 1211 495 l 2,1102,1103
 1214 495 1214 495 1214 489 c 0,1104,1105
 1214 486 1214 486 1211 486 c 2,1052,-1
1183 530 m 2,1106,1107
 1183 534 1183 534 1180.5 537 c 128,-1,1108
 1178 540 1178 540 1174 544 c 0,1109,1110
 1169 546 1169 546 1167 548.5 c 128,-1,1111
 1165 551 1165 551 1162 551 c 0,1112,1113
 1156 551 1156 551 1152.5 548.5 c 128,-1,1114
 1149 546 1149 546 1147 544 c 0,1115,1116
 1142 540 1142 540 1141.5 534 c 128,-1,1117
 1141 528 1141 528 1141 522 c 256,1118,1119
 1141 516 1141 516 1141.5 510 c 128,-1,1120
 1142 504 1142 504 1147 498 c 0,1121,1122
 1149 492 1149 492 1153.5 489 c 128,-1,1123
 1158 486 1158 486 1162 486 c 0,1124,1125
 1165 486 1165 486 1168 487 c 128,-1,1126
 1171 488 1171 488 1174 495 c 1,1127,1128
 1183 500 1183 500 1183 506 c 2,1129,-1
 1183 530 l 2,1106,1107
1385 539 m 2,1130,1131
 1383 539 1383 539 1382 539.5 c 128,-1,1132
 1381 540 1381 540 1377 544 c 1,1133,-1
 1369 544 l 1,1134,-1
 1367 543.5 l 0,1135,1136
 1365 543 1365 543 1361 539 c 0,1137,1138
 1359 537 1359 537 1356 536.5 c 0,1139,-1
 1353 536 l 1,1140,-1
 1353 482 l 1,1141,-1
 1351 480 l 0,1142,1143
 1349 478 1349 478 1346 478 c 0,1144,1145
 1343 474 1343 474 1339 473.5 c 128,-1,1146
 1335 473 1335 473 1333 473 c 2,1147,-1
 1331 477 l 0,1148,1149
 1329 481 1329 481 1329 489 c 2,1150,-1
 1329 511 l 1,1151,-1
 1329 527 l 1,1152,-1
 1329 536 l 2,1153,1154
 1329 542 1329 542 1326.5 543.5 c 128,-1,1155
 1324 545 1324 545 1320 547 c 0,1156,1157
 1318 547 1318 547 1317.5 549 c 0,1158,-1
 1317 551 l 1,1159,-1
 1320 555 l 1,1160,-1
 1329 555 l 2,1161,1162
 1332 555 1332 555 1334.5 555.5 c 128,-1,1163
 1337 556 1337 556 1341 560 c 1,1164,-1
 1350 560 l 2,1165,1166
 1352 560 1352 560 1352.5 557.5 c 0,1167,-1
 1353 555 l 1,1168,-1
 1353 551 l 1,1169,-1
 1353 547 l 1,1170,-1
 1356.5 547.5 l 0,1171,1172
 1360 548 1360 548 1366 551 c 0,1173,1174
 1372 558 1372 558 1374.5 559 c 0,1175,-1
 1377 560 l 1,1176,-1
 1385 560 l 1,1177,1178
 1389 556 1389 556 1391.5 555.5 c 0,1179,-1
 1394 555 l 2,1180,1181
 1394 552 1394 552 1392.5 549.5 c 0,1182,-1
 1391 547 l 2,1183,1184
 1387 545 1387 545 1386.5 543.5 c 0,1185,-1
 1385 539 l 2,1130,1131
1492 466 m 0,1186,1187
 1483 466 1483 466 1472 466.5 c 128,-1,1188
 1461 467 1461 467 1447 470 c 1,1189,-1
 1443 473 l 2,1190,1191
 1441 473 1441 473 1440 470 c 128,-1,1192
 1439 467 1439 467 1434 457 c 2,1193,-1
 1433.5 455 l 0,1194,1195
 1433 453 1433 453 1431 450 c 0,1196,1197
 1431 448 1431 448 1430.5 444 c 128,-1,1198
 1430 440 1430 440 1426 440 c 2,1199,-1
 1426 446 l 2,1200,1201
 1423 446 1423 446 1423 450 c 0,1202,1203
 1428 457 1428 457 1434 482 c 0,1204,1205
 1434 493 1434 493 1437.5 498 c 128,-1,1206
 1441 503 1441 503 1443 503 c 2,1207,-1
 1448 499.5 l 0,1208,1209
 1453 496 1453 496 1463 489 c 0,1210,1211
 1475 484 1475 484 1485 481 c 128,-1,1212
 1495 478 1495 478 1504 478 c 2,1213,-1
 1512 478 l 2,1214,1215
 1518 481 1518 481 1521.5 485 c 128,-1,1216
 1525 489 1525 489 1529 498 c 0,1217,1218
 1529 504 1529 504 1530.5 509.5 c 128,-1,1219
 1532 515 1532 515 1532 519 c 0,1220,1221
 1532 525 1532 525 1530.5 528.5 c 128,-1,1222
 1529 532 1529 532 1529 539 c 1,1223,1224
 1525 543 1525 543 1522 543.5 c 128,-1,1225
 1519 544 1519 544 1512 544 c 0,1226,1227
 1509 544 1509 544 1502 543.5 c 128,-1,1228
 1495 543 1495 543 1483 539 c 0,1229,1230
 1471 533 1471 533 1463 531.5 c 128,-1,1231
 1455 530 1455 530 1450 530 c 256,1232,1233
 1445 530 1445 530 1442 533.5 c 128,-1,1234
 1439 537 1439 537 1434 539 c 0,1235,1236
 1432 543 1432 543 1431.5 548 c 128,-1,1237
 1431 553 1431 553 1431 560 c 0,1238,1239
 1431 572 1431 572 1433.5 583.5 c 128,-1,1240
 1436 595 1436 595 1443 603 c 0,1241,1242
 1448 613 1448 613 1457.5 619.5 c 128,-1,1243
 1467 626 1467 626 1480 626 c 0,1244,1245
 1486 626 1486 626 1490.5 621.5 c 128,-1,1246
 1495 617 1495 617 1504 612 c 0,1247,1248
 1512 605 1512 605 1516.5 602.5 c 0,1249,-1
 1521 600 l 1,1250,-1
 1524 609 l 2,1251,1252
 1528 611 1528 611 1530 613.5 c 0,1253,-1
 1532 616 l 2,1254,1255
 1537 616 1537 616 1537 612 c 1,1256,-1
 1540 612 l 2,1257,1258
 1538 610 1538 610 1534.5 605.5 c 128,-1,1259
 1531 601 1531 601 1529 596 c 0,1260,1261
 1523 587 1523 587 1519.5 580.5 c 128,-1,1262
 1516 574 1516 574 1516 567 c 1,1263,-1
 1521 567 l 2,1264,1265
 1537 567 1537 567 1545 555 c 0,1266,1267
 1547 552 1547 552 1550 546.5 c 128,-1,1268
 1553 541 1553 541 1553 530 c 0,1269,1270
 1553 518 1553 518 1549 506.5 c 128,-1,1271
 1545 495 1545 495 1537 486 c 0,1272,1273
 1525 466 1525 466 1492 466 c 0,1186,1187
1466 609 m 0,1274,1275
 1464 609 1464 609 1461 605.5 c 128,-1,1276
 1458 602 1458 602 1456 600 c 0,1277,1278
 1451 595 1451 595 1450.5 588.5 c 128,-1,1279
 1450 582 1450 582 1450 577 c 0,1280,1281
 1450 570 1450 570 1450.5 566 c 128,-1,1282
 1451 562 1451 562 1456 560 c 1,1283,1284
 1456 555 1456 555 1463 555 c 256,1285,1286
 1470 555 1470 555 1474.5 555.5 c 128,-1,1287
 1479 556 1479 556 1488 560 c 0,1288,1289
 1496 562 1496 562 1502 564.5 c 0,1290,-1
 1508 567 l 1,1291,1292
 1478 609 1478 609 1466 609 c 0,1274,1275
1603 473 m 0,1293,1294
 1593 473 1593 473 1584.5 476.5 c 128,-1,1295
 1576 480 1576 480 1573 486 c 1,1296,1297
 1567 488 1567 488 1566 494.5 c 128,-1,1298
 1565 501 1565 501 1565 511 c 0,1299,1300
 1565 519 1565 519 1566 528.5 c 128,-1,1301
 1567 538 1567 538 1573 544 c 0,1302,1303
 1579 552 1579 552 1586 556 c 128,-1,1304
 1593 560 1593 560 1606 560 c 0,1305,1306
 1609 560 1609 560 1612 559.5 c 128,-1,1307
 1615 559 1615 559 1622 555 c 0,1308,1309
 1627 552 1627 552 1631 550.5 c 128,-1,1310
 1635 549 1635 549 1635 544 c 1,1311,-1
 1631 541 l 0,1312,1313
 1627 538 1627 538 1622 536 c 2,1314,-1
 1619 536 l 1,1315,1316
 1607 551 1607 551 1596 551 c 0,1317,1318
 1590 551 1590 551 1586 539 c 1,1319,-1
 1586 522 l 2,1320,1321
 1586 514 1586 514 1586.5 508 c 128,-1,1322
 1587 502 1587 502 1589 498 c 0,1323,1324
 1599 487 1599 487 1613 486 c 0,1325,1326
 1618 486 1618 486 1620.5 487 c 128,-1,1327
 1623 488 1623 488 1626 495 c 0,1328,1329
 1628 497 1628 497 1629 497.5 c 128,-1,1330
 1630 498 1630 498 1635 498 c 2,1331,-1
 1638 495 l 1,1332,-1
 1635.5 491 l 0,1333,1334
 1633 487 1633 487 1626 482 c 0,1335,1336
 1621 479 1621 479 1614.5 476 c 128,-1,1337
 1608 473 1608 473 1603 473 c 0,1293,1294
1703 539 m 257,1338,-1
 1701 539.5 l 0,1339,1340
 1699 540 1699 540 1695 544 c 1,1341,-1
 1687 544 l 1,1342,-1
 1678 539 l 2,1343,1344
 1676 537 1676 537 1673.5 536.5 c 0,1345,-1
 1671 536 l 1,1346,-1
 1671 482 l 1,1347,-1
 1670.5 480 l 0,1348,1349
 1670 478 1670 478 1667 478 c 0,1350,1351
 1661 474 1661 474 1657.5 473.5 c 128,-1,1352
 1654 473 1654 473 1651 473 c 2,1353,-1
 1651 489 l 1,1354,-1
 1651 511 l 1,1355,-1
 1651 527 l 1,1356,-1
 1651 536 l 2,1357,1358
 1651 542 1651 542 1648 543.5 c 128,-1,1359
 1645 545 1645 545 1643 547 c 0,1360,1361
 1640 547 1640 547 1637.5 549 c 0,1362,-1
 1635 551 l 257,1363,-1
 1636.5 551.5 l 0,1364,1365
 1638 552 1638 552 1638 555 c 2,1366,-1
 1646 555 l 2,1367,1368
 1650 555 1650 555 1653.5 555.5 c 128,-1,1369
 1657 556 1657 556 1662 560 c 1,1370,-1
 1671 560 l 1,1371,-1
 1671 555 l 1,1372,-1
 1671 551 l 1,1373,-1
 1671 547 l 1,1374,-1
 1675 547 l 1,1375,-1
 1677 547.5 l 0,1376,1377
 1679 548 1679 548 1683 551 c 0,1378,1379
 1689 558 1689 558 1692.5 559 c 128,-1,1380
 1696 560 1696 560 1700 560 c 2,1381,-1
 1708 560 l 1,1382,-1
 1711 555 l 1,1383,1384
 1711 547 1711 547 1708 547 c 1,1385,1386
 1708 545 1708 545 1706.5 543.5 c 0,1387,-1
 1703 539 l 257,1338,-1
1785 503 m 0,1388,1389
 1785 497 1785 497 1779.5 492 c 128,-1,1390
 1774 487 1774 487 1768 482 c 0,1391,1392
 1761 479 1761 479 1755.5 476 c 128,-1,1393
 1750 473 1750 473 1744 473 c 0,1394,1395
 1732 473 1732 473 1724.5 479 c 128,-1,1396
 1717 485 1717 485 1711 495 c 0,1397,1398
 1708 498 1708 498 1708 511 c 2,1399,-1
 1708 527 l 2,1400,1401
 1708 535 1708 535 1713 540.5 c 128,-1,1402
 1718 546 1718 546 1723 551 c 0,1403,1404
 1726 554 1726 554 1734.5 555 c 128,-1,1405
 1743 556 1743 556 1752 560 c 0,1406,1407
 1752 562 1752 562 1754 562.5 c 0,1408,-1
 1756 563 l 2,1409,1410
 1771 563 1771 563 1776 551 c 1,1411,1412
 1789 541 1789 541 1789 522 c 0,1413,1414
 1789 516 1789 516 1788.5 512.5 c 128,-1,1415
 1788 509 1788 509 1785 503 c 0,1388,1389
1744 551 m 256,1416,1417
 1740 551 1740 551 1740 547 c 1,1418,1419
 1736 547 1736 547 1728 539 c 0,1420,1421
 1728 537 1728 537 1725.5 532.5 c 128,-1,1422
 1723 528 1723 528 1723 522 c 256,1423,1424
 1723 516 1723 516 1726 512.5 c 128,-1,1425
 1729 509 1729 509 1733 503 c 0,1426,1427
 1737 492 1737 492 1756 486 c 0,1428,1429
 1763 486 1763 486 1768 495 c 1,1430,-1
 1768 519 l 2,1431,1432
 1768 533 1768 533 1759 539 c 0,1433,1434
 1754 545 1754 545 1751 548 c 128,-1,1435
 1748 551 1748 551 1744 551 c 256,1416,1417
1846 486 m 1,1436,1437
 1837 483 1837 483 1829.5 480 c 128,-1,1438
 1822 477 1822 477 1814 473 c 1,1439,-1
 1814 506 l 1,1440,-1
 1814 593 l 2,1441,1442
 1814 595 1814 595 1810 598.5 c 128,-1,1443
 1806 602 1806 602 1801 609 c 1,1444,-1
 1801 612 l 1,1445,-1
 1804 612.5 l 0,1446,1447
 1807 613 1807 613 1814 616 c 0,1448,1449
 1820 618 1820 618 1823 619 c 128,-1,1450
 1826 620 1826 620 1830 620 c 2,1451,-1
 1834 620 l 1,1452,-1
 1834 587 l 1,1453,-1
 1834 580 l 1,1454,-1
 1834 489 l 2,1455,1456
 1837 493 1837 493 1839.5 494 c 128,-1,1457
 1842 495 1842 495 1846 495 c 1,1458,-1
 1846 486 l 1,1436,1437
1899 486 m 0,1459,1460
 1893 483 1893 483 1886 480 c 128,-1,1461
 1879 477 1879 477 1871 473 c 0,1462,1463
 1867 473 1867 473 1866.5 482.5 c 128,-1,1464
 1866 492 1866 492 1866 506 c 2,1465,-1
 1866 593 l 2,1466,1467
 1866 595 1866 595 1858 609 c 1,1468,-1
 1856 609.5 l 0,1469,1470
 1854 610 1854 610 1854 612 c 1,1471,1472
 1856 612 1856 612 1860.5 612.5 c 128,-1,1473
 1865 613 1865 613 1871 616 c 0,1474,1475
 1877 618 1877 618 1880 619 c 128,-1,1476
 1883 620 1883 620 1886 620 c 1,1477,1478
 1886 618 1886 618 1888 608.5 c 128,-1,1479
 1890 599 1890 599 1890 587 c 2,1480,-1
 1890 580 l 1,1481,-1
 1886 489 l 1,1482,1483
 1893 493 1893 493 1896 494 c 0,1484,-1
 1899 495 l 1,1485,-1
 1903 495 l 1,1486,1487
 1903 489 1903 489 1899 486 c 0,1459,1460
1985 495 m 1,1488,1489
 1980 488 1980 488 1968 482 c 1,1490,1491
 1963 475 1963 475 1956.5 474 c 128,-1,1492
 1950 473 1950 473 1945 473 c 2,1493,-1
 1931 473 l 1,1494,1495
 1919 480 1919 480 1919 489 c 0,1496,1497
 1919 495 1919 495 1931 503 c 1,1498,1499
 1942 483 1942 483 1955 482 c 0,1500,1501
 1960 482 1960 482 1962 484 c 0,1502,-1
 1964 486 l 2,1503,1504
 1967 488 1967 488 1967.5 492 c 128,-1,1505
 1968 496 1968 496 1968 498 c 0,1506,1507
 1968 502 1968 502 1967.5 504.5 c 128,-1,1508
 1967 507 1967 507 1964 511 c 0,1509,1510
 1962 511 1962 511 1958.5 512.5 c 0,1511,-1
 1955 514 l 1,1512,-1
 1945 514 l 1,1513,-1
 1931 514 l 2,1514,1515
 1929 514 1929 514 1924 517.5 c 128,-1,1516
 1919 521 1919 521 1919 527 c 1,1517,1518
 1915 527 1915 527 1915 536 c 0,1519,1520
 1915 550 1915 550 1931 555 c 1,1521,1522
 1936 561 1936 561 1945.5 562 c 128,-1,1523
 1955 563 1955 563 1964 563 c 2,1524,-1
 1971 563 l 2,1525,1526
 1975 561 1975 561 1975.5 560 c 128,-1,1527
 1976 559 1976 559 1976 555 c 0,1528,1529
 1976 552 1976 552 1975.5 549 c 128,-1,1530
 1975 546 1975 546 1971 544 c 2,1531,-1
 1968 544 l 2,1532,1533
 1961 544 1961 544 1961 551 c 1,1534,1535
 1956 551 1956 551 1955 553 c 128,-1,1536
 1954 555 1954 555 1952 555 c 2,1537,-1
 1948 555 l 2,1538,1539
 1936 555 1936 555 1935 547 c 2,1540,-1
 1935 544 l 2,1541,1542
 1935 536 1935 536 1948 536 c 0,1543,1544
 1951 536 1951 536 1953.5 533 c 128,-1,1545
 1956 530 1956 530 1961 530 c 2,1546,-1
 1971 530 l 2,1547,1548
 1975 528 1975 528 1977.5 527 c 128,-1,1549
 1980 526 1980 526 1980 522 c 0,1550,1551
 1983 520 1983 520 1984 516.5 c 128,-1,1552
 1985 513 1985 513 1985 511 c 2,1553,-1
 1985 495 l 1,1488,1489
2139 473 m 0,1554,1555
 2130 477 2130 477 2126.5 477.5 c 128,-1,1556
 2123 478 2123 478 2118 478 c 2,1557,-1
 2107 478 l 1,1558,-1
 2053 473 l 1,1559,-1
 2053 478 l 1,1560,1561
 2059 481 2059 481 2062.5 481.5 c 128,-1,1562
 2066 482 2066 482 2070 482 c 0,1563,1564
 2082 482 2082 482 2085 486 c 2,1565,-1
 2085 503 l 1,1566,-1
 2085 580 l 1,1567,-1
 2085 600 l 2,1568,1569
 2085 602 2085 602 2083.5 603 c 128,-1,1570
 2082 604 2082 604 2082 609 c 1,1571,-1
 2061 609 l 2,1572,1573
 2055 609 2055 609 2050 610.5 c 0,1574,-1
 2045 612 l 2,1575,1576
 2045 616 2045 616 2049 616 c 1,1577,1578
 2049 619 2049 619 2053 620 c 256,1579,1580
 2057 620 2057 620 2065 618 c 128,-1,1581
 2073 616 2073 616 2082 616 c 2,1582,-1
 2094 616 l 2,1583,1584
 2104 616 2104 616 2108 616.5 c 128,-1,1585
 2112 617 2112 617 2115 620 c 2,1586,-1
 2115 626 l 2,1587,1588
 2115 629 2115 629 2118 629 c 2,1589,-1
 2121 627 l 0,1590,1591
 2124 625 2124 625 2124 620 c 2,1592,-1
 2124 616 l 2,1593,1594
 2127 616 2127 616 2131 620 c 2,1595,-1
 2139 620 l 1,1596,-1
 2139 616 l 2,1597,1598
 2139 613 2139 613 2136 612.5 c 128,-1,1599
 2133 612 2133 612 2131 612 c 2,1600,-1
 2127 612 l 2,1601,1602
 2125 612 2125 612 2124.5 610.5 c 0,1603,-1
 2124 609 l 1,1604,-1
 2124 489 l 2,1605,1606
 2124 487 2124 487 2125 486 c 128,-1,1607
 2126 485 2126 485 2131 482 c 0,1608,1609
 2143 482 2143 482 2143 478 c 2,1610,-1
 2142.5 475.5 l 0,1611,1612
 2142 473 2142 473 2139 473 c 0,1554,1555
2115 609 m 2,1613,1614
 2112 609 2112 609 2110.5 606 c 128,-1,1615
 2109 603 2109 603 2107 603 c 2,1616,-1
 2107 486 l 1,1617,-1
 2115 486 l 1,1618,-1
 2115 609 l 2,1613,1614
2221 473 m 0,1619,1620
 2211 477 2211 477 2207.5 477.5 c 128,-1,1621
 2204 478 2204 478 2200 478 c 2,1622,-1
 2188 478 l 1,1623,-1
 2134 473 l 1,1624,-1
 2134 478 l 1,1625,1626
 2141 481 2141 481 2144.5 481.5 c 128,-1,1627
 2148 482 2148 482 2150 482 c 0,1628,1629
 2163 482 2163 482 2167 486 c 2,1630,-1
 2167 503 l 1,1631,-1
 2167 580 l 1,1632,-1
 2167 600 l 2,1633,1634
 2167 602 2167 602 2165.5 603 c 128,-1,1635
 2164 604 2164 604 2164 609 c 1,1636,-1
 2143 609 l 2,1637,1638
 2134 609 2134 609 2130.5 610.5 c 0,1639,-1
 2127 612 l 2,1640,1641
 2127 616 2127 616 2131 616 c 1,1642,-1
 2131 620 l 1,1643,1644
 2137 620 2137 620 2144 618 c 128,-1,1645
 2151 616 2151 616 2164 616 c 2,1646,-1
 2175 616 l 2,1647,1648
 2185 616 2185 616 2188.5 616.5 c 128,-1,1649
 2192 617 2192 617 2197 620 c 1,1650,-1
 2197 626 l 2,1651,1652
 2197 629 2197 629 2200 629 c 2,1653,-1
 2202.5 627 l 0,1654,1655
 2205 625 2205 625 2205 620 c 2,1656,-1
 2205 616 l 1,1657,-1
 2207 616.5 l 0,1658,1659
 2209 617 2209 617 2212 620 c 2,1660,-1
 2221 620 l 1,1661,-1
 2221 616 l 2,1662,1663
 2221 613 2221 613 2218 612.5 c 128,-1,1664
 2215 612 2215 612 2212 612 c 2,1665,-1
 2208 612 l 2,1666,1667
 2206 612 2206 612 2203 610.5 c 0,1668,-1
 2200 609 l 1,1669,-1
 2200 489 l 2,1670,1671
 2200 487 2200 487 2203.5 486 c 128,-1,1672
 2207 485 2207 485 2212 482 c 0,1673,1674
 2224 482 2224 482 2224 478 c 2,1675,-1
 2223.5 475.5 l 0,1676,1677
 2223 473 2223 473 2221 473 c 0,1619,1620
2197 609 m 1,1678,1679
 2193 609 2193 609 2190.5 606 c 0,1680,-1
 2188 603 l 1,1681,-1
 2188 486 l 1,1682,-1
 2197 486 l 1,1683,-1
 2197 609 l 1,1678,1679
2302 473 m 0,1684,1685
 2293 477 2293 477 2289.5 477.5 c 128,-1,1686
 2286 478 2286 478 2280 478 c 2,1687,-1
 2270 478 l 1,1688,-1
 2216 473 l 1,1689,-1
 2216 478 l 1,1690,1691
 2222 481 2222 481 2225.5 481.5 c 128,-1,1692
 2229 482 2229 482 2232 482 c 0,1693,1694
 2244 482 2244 482 2245 486 c 0,1695,1696
 2248 489 2248 489 2248 503 c 2,1697,-1
 2248 580 l 1,1698,-1
 2248 600 l 2,1699,1700
 2246 602 2246 602 2245.5 603 c 128,-1,1701
 2245 604 2245 604 2245 609 c 1,1702,-1
 2224 609 l 2,1703,1704
 2215 609 2215 609 2211.5 610.5 c 0,1705,-1
 2208 612 l 2,1706,1707
 2208 616 2208 616 2212 616 c 1,1708,-1
 2212 620 l 1,1709,1710
 2219 620 2219 620 2225.5 618 c 128,-1,1711
 2232 616 2232 616 2245 616 c 2,1712,-1
 2257 616 l 2,1713,1714
 2267 616 2267 616 2270 616.5 c 128,-1,1715
 2273 617 2273 617 2273 620 c 2,1716,-1
 2277 626 l 2,1717,1718
 2277 629 2277 629 2280 629 c 2,1719,-1
 2283.5 627 l 0,1720,1721
 2287 625 2287 625 2287 620 c 2,1722,-1
 2287 616 l 1,1723,-1
 2289 616.5 l 0,1724,1725
 2291 617 2291 617 2294 620 c 2,1726,-1
 2302 620 l 1,1727,-1
 2302 616 l 2,1728,1729
 2302 613 2302 613 2299 612.5 c 128,-1,1730
 2296 612 2296 612 2294 612 c 2,1731,-1
 2290 612 l 2,1732,1733
 2288 612 2288 612 2284 610.5 c 0,1734,-1
 2280 609 l 1,1735,-1
 2280 489 l 2,1736,1737
 2280 487 2280 487 2284.5 486 c 128,-1,1738
 2289 485 2289 485 2294 482 c 0,1739,1740
 2306 482 2306 482 2306 478 c 2,1741,-1
 2305.5 475.5 l 0,1742,1743
 2305 473 2305 473 2302 473 c 0,1684,1685
2273 609 m 1,1744,-1
 2270 603 l 1,1745,-1
 2270 486 l 1,1746,-1
 2273 486 l 1,1747,-1
 2273 609 l 1,1744,-1
50 437 m 1,1748,-1
 50 417 l 1,1749,-1
 2875 417 l 1,1750,-1
 2875 437 l 1,1751,-1
 50 437 l 1,1748,-1
EndSplineSet
Validated: 133
EndChar

StartChar: two
Encoding: 50 50 42
Width: 2519
Flags: W
LayerCount: 2
Fore
SplineSet
549 607 m 0,0,1
 545 603 545 603 541 603 c 0,2,3
 536 601 536 601 529.5 600.5 c 128,-1,4
 523 600 523 600 517 600 c 0,5,6
 509 600 509 600 505.5 597.5 c 0,7,-1
 502 595 l 1,8,-1
 502 495 l 2,9,10
 502 488 502 488 514 487 c 2,11,-1
 525 487 l 2,12,13
 529 487 529 487 529 483 c 1,14,-1
 486 483 l 2,15,16
 481 483 481 483 475 482.5 c 128,-1,17
 469 482 469 482 463 479 c 2,18,-1
 453 479 l 2,19,20
 448 479 448 479 448 483 c 2,21,-1
 475 492 l 2,22,23
 479 492 479 492 479 518 c 2,24,-1
 479 577 l 1,25,-1
 479 595 l 1,26,27
 476.5 597.5 l 0,28,29
 474 600 474 600 471 600 c 2,30,-1
 463 600 l 1,31,-1
 460 600 l 1,32,-1
 453 600 l 2,33,34
 433 600 433 600 432 595 c 1,35,36
 425 595 425 595 425 588 c 2,37,-1
 425 580 l 1,38,39
 421 580 421 580 421 592 c 0,40,41
 421 594 421 594 421.5 597.5 c 128,-1,42
 422 601 422 601 425 603 c 0,43,44
 425 609 425 609 432 612 c 128,-1,45
 439 615 439 615 448 615 c 2,46,-1
 479 615 l 2,47,48
 493 612 493 612 502.5 611.5 c 128,-1,49
 512 611 512 611 517 611 c 0,50,51
 532 611 532 611 538.5 613 c 0,52,-1
 545 615 l 1,53,-1
 545 618 l 1,54,-1
 545 623 l 1,55,-1
 553 631 l 2,56,57
 555 631 555 631 556 630.5 c 128,-1,58
 557 630 557 630 561 627 c 1,59,-1
 561 623 l 2,60,61
 561 620 561 620 557.5 616.5 c 128,-1,62
 554 613 554 613 549 607 c 0,0,1
631 495 m 1,63,-1
 633.5 496 l 0,64,65
 636 497 636 497 641 503 c 1,66,-1
 641 495 l 1,67,-1
 638 492 l 1,68,-1
 635.5 489.5 l 0,69,70
 633 487 633 487 631 487 c 0,71,72
 627 484 627 484 626 483.5 c 128,-1,73
 625 483 625 483 623 483 c 1,74,75
 623 479 623 479 614 479 c 0,76,77
 611 482 611 482 610.5 483.5 c 128,-1,78
 610 485 610 485 610 492 c 2,79,-1
 610 499 l 1,80,-1
 610 503 l 1,81,-1
 610 534 l 2,82,83
 608 539 608 539 604.5 544 c 128,-1,84
 601 549 601 549 595 549 c 0,85,86
 593 549 593 549 589.5 548.5 c 128,-1,87
 586 548 586 548 584 546 c 0,88,89
 581 546 581 546 580 543.5 c 128,-1,90
 579 541 579 541 577 541 c 2,91,-1
 577 534 l 1,92,-1
 577 515 l 1,93,-1
 577 495 l 1,94,-1
 577 483 l 1,95,96
 573 483 573 483 569 480.5 c 128,-1,97
 565 478 565 478 556 476 c 1,98,-1
 556 487 l 1,99,-1
 556 525 l 1,100,-1
 556 572 l 1,101,-1
 556 577 l 1,102,-1
 556 600 l 1,103,-1
 553.5 602 l 0,104,105
 551 604 551 604 545 607 c 1,106,-1
 545 611 l 2,107,108
 548 611 548 611 551.5 613 c 128,-1,109
 555 615 555 615 561 615 c 0,110,111
 563 615 563 615 566 616.5 c 128,-1,112
 569 618 569 618 571 618 c 2,113,-1
 577 615 l 1,114,-1
 577 580 l 1,115,-1
 577 549 l 1,116,-1
 577 553 l 1,117,118
 582 556 582 556 588 558.5 c 128,-1,119
 594 561 594 561 599 561 c 0,120,121
 605 561 605 561 608.5 560 c 128,-1,122
 612 559 612 559 619 553 c 0,123,124
 624 550 624 550 627.5 538 c 128,-1,125
 631 526 631 526 631 503 c 2,126,-1
 631 495 l 1,63,-1
708 541 m 1,127,-1
 700 541 l 2,128,129
 696 539 696 539 690.5 535 c 128,-1,130
 685 531 685 531 677 525 c 0,131,132
 668 523 668 523 665 520 c 128,-1,133
 662 517 662 517 662 515 c 0,134,135
 662 506 662 506 669 499 c 0,136,137
 672 494 672 494 675.5 493 c 128,-1,138
 679 492 679 492 684 492 c 0,139,140
 692 492 692 492 695 495 c 0,141,142
 701 498 701 498 703 498.5 c 128,-1,143
 705 499 705 499 708 499 c 2,144,-1
 708 495 l 1,145,-1
 705 492 l 0,146,147
 702 489 702 489 700 483 c 1,148,149
 691 480 691 480 684.5 478 c 128,-1,150
 678 476 678 476 673 476 c 0,151,152
 667 476 667 476 661 478.5 c 128,-1,153
 655 481 655 481 653 487 c 1,154,155
 641 494 641 494 641 515 c 2,156,-1
 641 518 l 2,157,158
 641 538 641 538 652 549.5 c 128,-1,159
 663 561 663 561 680 561 c 0,160,161
 683 561 683 561 688 558.5 c 128,-1,162
 693 556 693 556 695 553 c 0,163,164
 699 550 699 550 700 549.5 c 128,-1,165
 701 549 701 549 704 549 c 2,166,-1
 708 553 l 2,167,168
 710 553 710 553 710.5 551 c 0,169,-1
 711 549 l 2,170,171
 711 547 711 547 710.5 546 c 128,-1,172
 710 545 710 545 708 541 c 1,127,-1
673 549 m 2,173,174
 670 549 670 549 667 544 c 128,-1,175
 664 539 664 539 662 530 c 1,176,177
 664 530 664 530 667 532 c 128,-1,178
 670 534 670 534 673 534 c 0,179,180
 678 537 678 537 681 537.5 c 0,181,-1
 684 538 l 2,182,183
 684 540 684 540 682 541 c 128,-1,184
 680 542 680 542 680 546 c 0,185,186
 678 548 678 548 676.5 548 c 0,187,-1
 673 549 l 2,173,174
1114 541 m 1,188,-1
 1106 541 l 2,189,190
 1104 539 1104 539 1098 535 c 128,-1,191
 1092 531 1092 531 1082 525 c 0,192,193
 1067 521 1067 521 1067 515 c 0,194,195
 1067 511 1067 511 1069.5 506.5 c 128,-1,196
 1072 502 1072 502 1075 499 c 0,197,198
 1078 494 1078 494 1081 493 c 128,-1,199
 1084 492 1084 492 1091 492 c 0,200,201
 1094 492 1094 492 1096.5 492.5 c 128,-1,202
 1099 493 1099 493 1103 495 c 0,203,204
 1108 498 1108 498 1109.5 498.5 c 128,-1,205
 1111 499 1111 499 1114 499 c 2,206,-1
 1114 495 l 1,207,-1
 1111.5 492 l 0,208,209
 1109 489 1109 489 1106 483 c 1,210,211
 1098 480 1098 480 1091.5 478 c 128,-1,212
 1085 476 1085 476 1079 476 c 0,213,214
 1065 476 1065 476 1060 487 c 1,215,216
 1054 490 1054 490 1051.5 498 c 128,-1,217
 1049 506 1049 506 1049 515 c 2,218,-1
 1049 518 l 2,219,220
 1049 538 1049 538 1059.5 549.5 c 128,-1,221
 1070 561 1070 561 1088 561 c 0,222,223
 1090 561 1090 561 1094.5 558.5 c 128,-1,224
 1099 556 1099 556 1103 553 c 0,225,226
 1106 549 1106 549 1110 549 c 2,227,-1
 1114 553 l 2,228,229
 1117 553 1117 553 1117.5 551 c 0,230,-1
 1118 549 l 2,231,232
 1118 547 1118 547 1117.5 546 c 128,-1,233
 1117 545 1117 545 1114 541 c 1,188,-1
1079 549 m 2,234,235
 1076 549 1076 549 1073 544 c 128,-1,236
 1070 539 1070 539 1067 530 c 1,237,238
 1070 530 1070 530 1073 532 c 128,-1,239
 1076 534 1076 534 1079 534 c 0,240,241
 1085 537 1085 537 1088 537.5 c 0,242,-1
 1091 538 l 2,243,244
 1091 540 1091 540 1089.5 541 c 128,-1,245
 1088 542 1088 542 1088 546 c 0,246,247
 1084 548 1084 548 1082.5 548 c 0,248,-1
 1079 549 l 2,234,235
878 499 m 1,249,-1
 878 461 l 1,250,-1
 873 461 l 1,251,-1
 870 456 l 1,252,-1
 870 492 l 1,253,254
 839 480 839 480 824 479 c 2,255,-1
 819 479 l 2,256,257
 805 479 805 479 795 484.5 c 128,-1,258
 785 490 785 490 777 499 c 0,259,260
 774 505 774 505 771.5 514 c 128,-1,261
 769 523 769 523 765 538 c 0,262,263
 762 538 762 538 762 546 c 0,264,265
 762 561 762 561 770 580 c 0,266,267
 774 597 774 597 780 603 c 0,268,269
 784 606 784 606 789.5 607.5 c 128,-1,270
 795 609 795 609 801 615 c 1,271,272
 809 617 809 617 815 617.5 c 128,-1,273
 821 618 821 618 827 618 c 0,274,275
 830 618 830 618 838.5 615 c 128,-1,276
 847 612 847 612 858 603 c 0,277,278
 858 601 858 601 860 600.5 c 0,279,-1
 862 600 l 1,280,281
 868 605 868 605 870.5 610 c 0,282,-1
 873 615 l 1,283,-1
 878 615 l 2,284,285
 878 612 878 612 877.5 609 c 128,-1,286
 877 606 877 606 873 603 c 0,287,288
 868 589 868 589 863 580 c 128,-1,289
 858 571 858 571 858 568 c 2,290,-1
 866 568 l 1,291,-1
 882 568 l 1,292,-1
 882 534 l 2,293,294
 879 517 879 517 878.5 512 c 0,295,-1
 878 499 l 1,249,-1
812 603 m 0,296,297
 809 603 809 603 804.5 600.5 c 128,-1,298
 800 598 800 598 797 592 c 0,299,300
 786 582 786 582 785 568 c 0,301,302
 785 564 785 564 789 564 c 2,303,-1
 793 564 l 1,304,-1
 855 564 l 1,305,306
 851 570 851 570 846 576.5 c 128,-1,307
 841 583 841 583 835 592 c 0,308,309
 824 603 824 603 812 603 c 0,296,297
850 549 m 2,310,311
 785 549 785 549 785 541 c 0,312,313
 787 530 787 530 793 521.5 c 128,-1,314
 799 513 799 513 804 507 c 0,315,316
 822 495 822 495 843 495 c 0,317,318
 848 495 848 495 856 495.5 c 128,-1,319
 864 496 864 496 870 499 c 1,320,-1
 870 522 l 1,321,-1
 870 549 l 1,322,-1
 866 549 l 1,323,-1
 850 549 l 2,310,311
936 492 m 2,324,325
 930 489 930 489 921.5 485.5 c 128,-1,326
 913 482 913 482 904 479 c 1,327,-1
 904 510 l 1,328,-1
 904 592 l 2,329,330
 904 598 904 598 897 603 c 2,331,-1
 894 607 l 2,332,333
 896 610 896 610 899.5 611 c 128,-1,334
 903 612 903 612 909 615 c 0,335,336
 911 617 911 617 916 617.5 c 0,337,-1
 921 618 l 1,338,-1
 925 618 l 1,339,-1
 925 588 l 1,340,-1
 925 577 l 1,341,-1
 925 495 l 1,342,343
 930 498 930 498 933 498.5 c 0,344,-1
 936 499 l 2,345,346
 940 499 940 499 940 495 c 2,347,-1
 936 492 l 2,324,325
1033 492 m 1,348,349
 1033 489 1033 489 1030.5 487.5 c 128,-1,350
 1028 486 1028 486 1028 483 c 2,351,-1
 1025 483 l 1,352,-1
 1021 479 l 1,353,354
 1015 479 1015 479 1014 477.5 c 0,355,-1
 1013 476 l 2,356,357
 1011 476 1011 476 1008.5 480.5 c 128,-1,358
 1006 485 1006 485 1006 492 c 1,359,-1
 997 483 l 2,360,361
 985 476 985 476 979 476 c 0,362,363
 966 476 966 476 958 487 c 0,364,365
 953 492 953 492 950.5 501 c 128,-1,366
 948 510 948 510 948 518 c 2,367,-1
 948 522 l 2,368,369
 948 542 948 542 958.5 551.5 c 128,-1,370
 969 561 969 561 986 561 c 1,371,-1
 1006 553 l 1,372,-1
 1006 561 l 2,373,374
 1006 600 1006 600 1001 603 c 2,375,-1
 998.5 603.5 l 0,376,377
 996 604 996 604 994 607 c 0,378,379
 990 611 990 611 990 615 c 2,380,-1
 993 615.5 l 0,381,382
 996 616 996 616 1001 618 c 2,383,-1
 1021 618 l 2,384,385
 1025 618 1025 618 1025 615 c 2,386,-1
 1025 611 l 1,387,-1
 1025 607 l 1,388,-1
 1025 499 l 1,389,-1
 1025 495 l 1,390,391
 1031 495 1031 495 1032 497 c 0,392,-1
 1033 499 l 2,393,394
 1035 499 1035 499 1037.5 497 c 0,395,-1
 1040 495 l 2,396,397
 1040 492 1040 492 1033 492 c 1,348,349
1006 534 m 2,398,399
 1006 537 1006 537 1003 539.5 c 128,-1,400
 1000 542 1000 542 997 546 c 2,401,-1
 990 553 l 1,402,403
 984 553 984 553 978.5 550.5 c 128,-1,404
 973 548 973 548 971 546 c 0,405,406
 968 540 968 540 967.5 535.5 c 128,-1,407
 967 531 967 531 967 525 c 0,408,409
 967 517 967 517 968 511.5 c 128,-1,410
 969 506 969 506 974 503 c 0,411,412
 978 497 978 497 981 494.5 c 128,-1,413
 984 492 984 492 990 492 c 2,414,-1
 992.5 492.5 l 0,415,416
 995 493 995 493 997 495 c 0,417,418
 1000 498 1000 498 1003 502.5 c 0,419,-1
 1006 507 l 1,420,-1
 1006 534 l 2,398,399
1199 541 m 1,421,-1
 1191 541 l 1,422,423
 1191 546 1191 546 1184 546 c 2,424,-1
 1181.5 545.5 l 0,425,426
 1179 545 1179 545 1176 541 c 0,427,428
 1174 539 1174 539 1170.5 538.5 c 0,429,-1
 1167 538 l 1,430,-1
 1167 487 l 1,431,-1
 1166.5 485 l 0,432,433
 1166 483 1166 483 1164 483 c 0,434,435
 1159 480 1159 480 1155 479.5 c 128,-1,436
 1151 479 1151 479 1149 479 c 2,437,-1
 1149 495 l 1,438,-1
 1149 515 l 1,439,-1
 1149 530 l 1,440,-1
 1149 538 l 2,441,442
 1149 544 1149 544 1137 549 c 2,443,-1
 1135.5 549.5 l 0,444,445
 1134 550 1134 550 1134 553 c 2,446,-1
 1137 553 l 2,447,448
 1142 553 1142 553 1145 557 c 1,449,-1
 1160 557 l 1,450,-1
 1164 561 l 2,451,452
 1166 561 1166 561 1166.5 559 c 0,453,-1
 1167 557 l 1,454,-1
 1167 553 l 1,455,-1
 1167 549 l 1,456,-1
 1173 546 l 1,457,-1
 1180 553 l 2,458,459
 1186 556 1186 556 1189 558.5 c 128,-1,460
 1192 561 1192 561 1195 561 c 2,461,-1
 1203 561 l 1,462,463
 1206 557 1206 557 1206 553 c 2,464,-1
 1205.5 551 l 0,465,466
 1205 549 1205 549 1203 549 c 1,467,468
 1203 543 1203 543 1202 542.5 c 0,469,-1
 1199 541 l 1,421,-1
1304 471 m 2,470,-1
 1299 471 l 2,471,472
 1293 471 1293 471 1282.5 471.5 c 128,-1,473
 1272 472 1272 472 1261 476 c 0,474,475
 1259 478 1259 478 1256 478.5 c 0,476,-1
 1253 479 l 2,477,478
 1250 479 1250 479 1249 474 c 128,-1,479
 1248 469 1248 469 1245 464 c 2,480,-1
 1245 456 l 2,481,482
 1243 454 1243 454 1242.5 451.5 c 0,483,-1
 1242 449 l 1,484,485
 1237 449 1237 449 1237 453 c 1,486,-1
 1234 453 l 1,487,488
 1236 459 1236 459 1239.5 467 c 128,-1,489
 1243 475 1243 475 1245 487 c 0,490,491
 1248 498 1248 498 1249 502.5 c 128,-1,492
 1250 507 1250 507 1253 507 c 256,493,494
 1256 507 1256 507 1260 502.5 c 128,-1,495
 1264 498 1264 498 1273 495 c 0,496,497
 1287 490 1287 490 1296.5 484.5 c 128,-1,498
 1306 479 1306 479 1312 479 c 0,499,500
 1314 479 1314 479 1316.5 481 c 0,501,-1
 1319 483 l 2,502,503
 1325 486 1325 486 1328 490.5 c 128,-1,504
 1331 495 1331 495 1335 503 c 0,505,506
 1337 508 1337 508 1337.5 512.5 c 128,-1,507
 1338 517 1338 517 1338 522 c 0,508,509
 1338 533 1338 533 1335 538 c 0,510,511
 1331 540 1331 540 1328.5 543 c 128,-1,512
 1326 546 1326 546 1323 546 c 256,513,514
 1320 546 1320 546 1312 543 c 128,-1,515
 1304 540 1304 540 1291 538 c 0,516,517
 1280 535 1280 535 1274 534.5 c 128,-1,518
 1268 534 1268 534 1265 534 c 0,519,520
 1260 534 1260 534 1254 535 c 128,-1,521
 1248 536 1248 536 1245 541 c 0,522,523
 1245 545 1245 545 1243.5 550 c 128,-1,524
 1242 555 1242 555 1242 561 c 0,525,526
 1242 572 1242 572 1244.5 583.5 c 128,-1,527
 1247 595 1247 595 1253 603 c 0,528,529
 1261 612 1261 612 1270 615 c 128,-1,530
 1279 618 1279 618 1288 618 c 0,531,532
 1299 618 1299 618 1315 607 c 0,533,534
 1321 604 1321 604 1324 599.5 c 0,535,-1
 1327 595 l 257,536,-1
 1329 598.5 l 0,537,538
 1331 602 1331 602 1335 607 c 0,539,540
 1337 610 1337 610 1338 612.5 c 128,-1,541
 1339 615 1339 615 1342 615 c 2,542,-1
 1346 611 l 1,543,-1
 1346 607 l 1,544,-1
 1343 603.5 l 0,545,546
 1340 600 1340 600 1335 592 c 0,547,548
 1327 581 1327 581 1327 568 c 1,549,-1
 1330 568 l 2,550,551
 1336 565 1336 565 1342 562.5 c 128,-1,552
 1348 560 1348 560 1354 557 c 0,553,554
 1357 554 1357 554 1357.5 548.5 c 128,-1,555
 1358 543 1358 543 1358 534 c 0,556,557
 1358 508 1358 508 1346 492 c 0,558,559
 1338 483 1338 483 1326.5 477 c 128,-1,560
 1315 471 1315 471 1304 471 c 2,470,-1
1281 607 m 0,561,562
 1271 607 1271 607 1265 595 c 0,563,564
 1262 593 1262 593 1261.5 588 c 128,-1,565
 1261 583 1261 583 1261 577 c 0,566,567
 1261 565 1261 565 1265 561 c 0,568,569
 1268 558 1268 558 1271 557.5 c 128,-1,570
 1274 557 1274 557 1276 557 c 0,571,572
 1280 557 1280 557 1285.5 557.5 c 128,-1,573
 1291 558 1291 558 1299 561 c 0,574,575
 1305 563 1305 563 1310.5 564 c 128,-1,576
 1316 565 1316 565 1319 568 c 1,577,578
 1290 607 1290 607 1281 607 c 0,561,562
1405 479 m 0,579,580
 1396 479 1396 479 1389 481.5 c 128,-1,581
 1382 484 1382 484 1377 487 c 0,582,583
 1374 492 1374 492 1371.5 499 c 128,-1,584
 1369 506 1369 506 1369 515 c 0,585,586
 1369 523 1369 523 1371.5 531.5 c 128,-1,587
 1374 540 1374 540 1377 546 c 0,588,589
 1382 554 1382 554 1391 557.5 c 128,-1,590
 1400 561 1400 561 1408 561 c 0,591,592
 1411 561 1411 561 1416 560.5 c 128,-1,593
 1421 560 1421 560 1423 557 c 0,594,595
 1435 550 1435 550 1436 546 c 2,596,-1
 1435 543 l 0,597,598
 1434 540 1434 540 1427 538 c 2,599,-1
 1423 538 l 1,600,601
 1415 546 1415 546 1410.5 549.5 c 128,-1,602
 1406 553 1406 553 1400 553 c 0,603,604
 1398 553 1398 553 1397 550 c 128,-1,605
 1396 547 1396 547 1393 541 c 0,606,607
 1390 539 1390 539 1389.5 533.5 c 128,-1,608
 1389 528 1389 528 1389 522 c 0,609,610
 1389 517 1389 517 1390 511 c 128,-1,611
 1391 505 1391 505 1397 499 c 0,612,613
 1402 492 1402 492 1415 492 c 0,614,615
 1423 492 1423 492 1427 495 c 0,616,617
 1429 501 1429 501 1432.5 502 c 0,618,-1
 1436 503 l 1,619,-1
 1439 503 l 1,620,-1
 1439 499 l 1,621,-1
 1436.5 496 l 0,622,623
 1434 493 1434 493 1427 487 c 0,624,625
 1422 484 1422 484 1416 481.5 c 128,-1,626
 1410 479 1410 479 1405 479 c 0,579,580
1505 541 m 1,627,-1
 1497 541 l 1,628,629
 1494 545 1494 545 1492 545.5 c 0,630,-1
 1490 546 l 257,631,-1
 1487 545.5 l 0,632,633
 1484 545 1484 545 1482 541 c 0,634,635
 1479 539 1479 539 1477 538.5 c 0,636,-1
 1475 538 l 1,637,-1
 1475 487 l 1,638,-1
 1471.5 485 l 0,639,640
 1468 483 1468 483 1466 483 c 0,641,642
 1462 479 1462 479 1454 479 c 0,643,644
 1451 479 1451 479 1451 495 c 2,645,-1
 1451 515 l 1,646,-1
 1451 530 l 1,647,-1
 1451 538 l 2,648,649
 1451 543 1451 543 1443 549 c 0,650,651
 1439 549 1439 549 1439 553 c 1,652,-1
 1443 553 l 1,653,-1
 1445.5 553.5 l 0,654,655
 1448 554 1448 554 1451 557 c 2,656,-1
 1462 557 l 2,657,658
 1465 560 1465 560 1466 560.5 c 128,-1,659
 1467 561 1467 561 1469 561 c 2,660,-1
 1475 557 l 1,661,-1
 1475 553 l 1,662,-1
 1475 549 l 1,663,-1
 1475 546 l 1,664,-1
 1477.5 548 l 0,665,666
 1480 550 1480 550 1485 553 c 0,667,668
 1489 556 1489 556 1491.5 558.5 c 128,-1,669
 1494 561 1494 561 1497 561 c 2,670,-1
 1505 561 l 2,671,672
 1507 558 1507 558 1509.5 557 c 128,-1,673
 1512 556 1512 556 1512 553 c 1,674,675
 1509 553 1509 553 1508.5 551 c 0,676,-1
 1508 549 l 1,677,-1
 1505 541 l 1,627,-1
1582 507 m 0,678,679
 1579 501 1579 501 1575.5 497 c 128,-1,680
 1572 493 1572 493 1563 487 c 0,681,682
 1557 481 1557 481 1551.5 480 c 128,-1,683
 1546 479 1546 479 1544 479 c 0,684,685
 1533 479 1533 479 1524 483 c 128,-1,686
 1515 487 1515 487 1508 499 c 1,687,-1
 1508 515 l 1,688,-1
 1508 530 l 2,689,690
 1508 542 1508 542 1524 553 c 0,691,692
 1528 553 1528 553 1533.5 555.5 c 128,-1,693
 1539 558 1539 558 1547 561 c 2,694,-1
 1551 561 l 2,695,696
 1557 561 1557 561 1563 560 c 128,-1,697
 1569 559 1569 559 1575 553 c 0,698,699
 1577 548 1577 548 1581.5 539.5 c 128,-1,700
 1586 531 1586 531 1586 525 c 0,701,702
 1586 520 1586 520 1584 514.5 c 128,-1,703
 1582 509 1582 509 1582 507 c 0,678,679
1539 549 m 2,704,-1
 1536 549 l 2,705,706
 1529 549 1529 549 1529 541 c 1,707,708
 1525 539 1525 539 1524.5 535 c 128,-1,709
 1524 531 1524 531 1524 525 c 0,710,711
 1524 520 1524 520 1524.5 516.5 c 128,-1,712
 1525 513 1525 513 1529 507 c 0,713,714
 1531 501 1531 501 1538.5 497.5 c 128,-1,715
 1546 494 1546 494 1551 492 c 0,716,717
 1562 492 1562 492 1563 499 c 2,718,-1
 1563 522 l 2,719,720
 1563 528 1563 528 1562 533.5 c 128,-1,721
 1561 539 1561 539 1554 541 c 1,722,723
 1552 547 1552 547 1547.5 548 c 128,-1,724
 1543 549 1543 549 1539 549 c 2,704,-1
1636 492 m 2,725,726
 1631 489 1631 489 1622.5 485.5 c 128,-1,727
 1614 482 1614 482 1606 479 c 1,728,-1
 1606 510 l 1,729,-1
 1606 592 l 2,730,731
 1606 594 1606 594 1603.5 597.5 c 128,-1,732
 1601 601 1601 601 1598 603 c 2,733,-1
 1593 607 l 1,734,735
 1597 610 1597 610 1600.5 611 c 128,-1,736
 1604 612 1604 612 1609 615 c 0,737,738
 1613 617 1613 617 1617 617.5 c 0,739,-1
 1621 618 l 1,740,-1
 1624 618 l 1,741,-1
 1624 588 l 1,742,-1
 1624 577 l 1,743,-1
 1624 495 l 1,744,745
 1630 498 1630 498 1633 498.5 c 0,746,-1
 1636 499 l 2,747,748
 1640 499 1640 499 1640 495 c 2,749,-1
 1636 492 l 2,725,726
1691 492 m 0,750,751
 1686 489 1686 489 1677 485.5 c 128,-1,752
 1668 482 1668 482 1660 479 c 1,753,-1
 1660 510 l 1,754,-1
 1660 592 l 2,755,756
 1660 598 1660 598 1648 603 c 1,757,-1
 1648 607 l 2,758,759
 1648 610 1648 610 1651 611 c 128,-1,760
 1654 612 1654 612 1660 615 c 0,761,762
 1666 617 1666 617 1669 617.5 c 128,-1,763
 1672 618 1672 618 1675 618 c 2,764,-1
 1678 618 l 1,765,-1
 1678 588 l 1,766,-1
 1678 577 l 1,767,-1
 1678 495 l 1,768,769
 1682 498 1682 498 1685 498.5 c 128,-1,770
 1688 499 1688 499 1691 499 c 2,771,-1
 1693 498.5 l 0,772,773
 1695 498 1695 498 1695 495 c 2,774,-1
 1693 494.5 l 0,775,776
 1691 494 1691 494 1691 492 c 0,750,751
1768 499 m 0,777,778
 1765 496 1765 496 1761.5 491 c 128,-1,779
 1758 486 1758 486 1753 483 c 0,780,781
 1747 480 1747 480 1741.5 479.5 c 128,-1,782
 1736 479 1736 479 1730 479 c 2,783,-1
 1722 479 l 2,784,785
 1713 479 1713 479 1709.5 484 c 128,-1,786
 1706 489 1706 489 1706 495 c 128,-1,787
 1706 501 1706 501 1717 507 c 1,788,789
 1723 498 1723 498 1729.5 492.5 c 128,-1,790
 1736 487 1736 487 1745 487 c 2,791,792
 1747 487.5 l 0,793,794
 1749 488 1749 488 1753 492 c 1,795,-1
 1753 499 l 2,796,797
 1753 505 1753 505 1752.5 506.5 c 128,-1,798
 1752 508 1752 508 1748 510 c 1,799,800
 1748 518 1748 518 1741 518 c 2,801,-1
 1733 518 l 1,802,-1
 1722 518 l 2,803,804
 1716 518 1716 518 1712.5 520.5 c 128,-1,805
 1709 523 1709 523 1706 525 c 2,806,-1
 1706 538 l 2,807,808
 1706 551 1706 551 1717 557 c 0,809,810
 1731 564 1731 564 1748 564 c 2,811,-1
 1760 564 l 2,812,813
 1760 562 1760 562 1762 559.5 c 0,814,-1
 1764 557 l 2,815,816
 1764 552 1764 552 1756 546 c 1,817,-1
 1753 546 l 2,818,819
 1748 546 1748 546 1745 549 c 0,820,821
 1745 552 1745 552 1743 554.5 c 0,822,-1
 1741 557 l 1,823,-1
 1738 557 l 2,824,825
 1732 557 1732 557 1727 554.5 c 128,-1,826
 1722 552 1722 552 1722 549 c 2,827,-1
 1722 546 l 2,828,829
 1722 540 1722 540 1733 534 c 1,830,-1
 1748 534 l 1,831,-1
 1760 534 l 2,832,833
 1763 532 1763 532 1764 530.5 c 128,-1,834
 1765 529 1765 529 1768 525 c 0,835,836
 1768 523 1768 523 1770 520 c 128,-1,837
 1772 517 1772 517 1772 515 c 0,838,839
 1772 511 1772 511 1771 506.5 c 128,-1,840
 1770 502 1770 502 1768 499 c 0,777,778
1919 479 m 1,841,842
 1911 482 1911 482 1905 482.5 c 128,-1,843
 1899 483 1899 483 1895 483 c 2,844,-1
 1884 483 l 1,845,-1
 1834 479 l 1,846,-1
 1834 483 l 1,847,848
 1839 483 1839 483 1844.5 483.5 c 128,-1,849
 1850 484 1850 484 1853 487 c 0,850,851
 1855 487 1855 487 1859 487.5 c 128,-1,852
 1863 488 1863 488 1865 492 c 0,853,854
 1869 495 1869 495 1869 507 c 2,855,-1
 1869 580 l 1,856,-1
 1865 600 l 2,857,858
 1865 603 1865 603 1862 607 c 1,859,-1
 1845 607 l 2,860,861
 1837 607 1837 607 1833.5 609 c 0,862,-1
 1830 611 l 1,863,-1
 1830 615 l 2,864,865
 1830 617 1830 617 1832 617.5 c 0,866,-1
 1834 618 l 2,867,868
 1837 618 1837 618 1845 616.5 c 128,-1,869
 1853 615 1853 615 1865 615 c 2,870,-1
 1877 615 l 2,871,872
 1882 615 1882 615 1887 615.5 c 128,-1,873
 1892 616 1892 616 1892 618 c 2,874,-1
 1892 623 l 1,875,-1
 1895 627 l 2,876,877
 1899 627 1899 627 1900 618 c 2,878,-1
 1900.5 616.5 l 0,879,880
 1901 615 1901 615 1904 615 c 2,881,-1
 1906.5 615.5 l 0,882,883
 1909 616 1909 616 1911 618 c 2,884,-1
 1916 618 l 1,885,-1
 1916 615 l 2,886,887
 1916 612 1916 612 1915 609.5 c 128,-1,888
 1914 607 1914 607 1908 607 c 2,889,-1
 1900 607 l 1,890,-1
 1900 492 l 1,891,-1
 1903 489.5 l 0,892,893
 1906 487 1906 487 1911 487 c 0,894,895
 1915 487 1915 487 1919 486.5 c 128,-1,896
 1923 486 1923 486 1923 483 c 256,897,898
 1923 480 1923 480 1922 480 c 0,899,-1
 1919 479 l 1,841,842
1892 607 m 1,900,901
 1888 603 1888 603 1884 603 c 1,902,-1
 1884 492 l 1,903,-1
 1892 492 l 1,904,-1
 1892 607 l 1,900,901
1996 479 m 1,905,906
 1988 482 1988 482 1982 482.5 c 128,-1,907
 1976 483 1976 483 1973 483 c 2,908,-1
 1962 483 l 1,909,-1
 1911 479 l 1,910,-1
 1911 483 l 1,911,912
 1917 483 1917 483 1922 483.5 c 128,-1,913
 1927 484 1927 484 1931 487 c 0,914,915
 1938 487 1938 487 1942 492 c 0,916,917
 1942 494 1942 494 1944.5 497.5 c 128,-1,918
 1947 501 1947 501 1947 507 c 2,919,-1
 1947 580 l 1,920,-1
 1942 600 l 2,921,922
 1942 603 1942 603 1938 607 c 1,923,-1
 1923 607 l 2,924,925
 1914 607 1914 607 1911 609 c 0,926,-1
 1908 611 l 1,927,-1
 1908 615 l 2,928,929
 1908 617 1908 617 1909.5 617.5 c 0,930,-1
 1911 618 l 2,931,932
 1915 618 1915 618 1922.5 616.5 c 128,-1,933
 1930 615 1930 615 1942 615 c 2,934,-1
 1954 615 l 2,935,936
 1960 615 1960 615 1964.5 615.5 c 128,-1,937
 1969 616 1969 616 1969 618 c 2,938,-1
 1969 623 l 1,939,-1
 1969.5 625 l 0,940,941
 1970 627 1970 627 1973 627 c 0,942,943
 1977 627 1977 627 1977 618 c 2,944,-1
 1977.5 616.5 l 0,945,946
 1978 615 1978 615 1980 615 c 2,947,-1
 1983.5 615.5 l 0,948,949
 1987 616 1987 616 1989 618 c 2,950,-1
 1993 618 l 1,951,-1
 1993 615 l 2,952,953
 1993 612 1993 612 1992 609.5 c 128,-1,954
 1991 607 1991 607 1986 607 c 2,955,-1
 1980 607 l 1,956,-1
 1977 607 l 1,957,-1
 1977 492 l 1,958,-1
 1979.5 489.5 l 0,959,960
 1982 487 1982 487 1989 487 c 128,-1,961
 1996 487 1996 487 1996 483 c 2,962,-1
 1996 479 l 1,905,906
1969 607 m 1,963,964
 1965 603 1965 603 1962 603 c 2,965,-1
 1962 492 l 1,966,-1
 1969 492 l 1,967,-1
 1969 607 l 1,963,964
2074 479 m 1,968,969
 2066 482 2066 482 2060 482.5 c 128,-1,970
 2054 483 2054 483 2050 483 c 2,971,-1
 2039 483 l 1,972,-1
 1989 479 l 1,973,-1
 1989 483 l 1,974,975
 1994 483 1994 483 1999.5 483.5 c 128,-1,976
 2005 484 2005 484 2008 487 c 0,977,978
 2010 487 2010 487 2013.5 487.5 c 128,-1,979
 2017 488 2017 488 2019 492 c 0,980,981
 2019 494 2019 494 2021 497.5 c 128,-1,982
 2023 501 2023 501 2023 507 c 2,983,-1
 2023 580 l 1,984,-1
 2019 600 l 2,985,986
 2019 602 2019 602 2017.5 603 c 128,-1,987
 2016 604 2016 604 2016 607 c 2,988,-1
 1996 607 l 2,989,990
 1991 607 1991 607 1985.5 609 c 0,991,-1
 1980 611 l 2,992,993
 1980 614 1980 614 1983 614.5 c 0,994,-1
 1986 615 l 2,995,996
 1986 617 1986 617 1987.5 617.5 c 0,997,-1
 1989 618 l 2,998,999
 1992 618 1992 618 2000 616.5 c 128,-1,1000
 2008 615 2008 615 2019 615 c 2,1001,-1
 2032 615 l 2,1002,1003
 2037 615 2037 615 2042 615.5 c 128,-1,1004
 2047 616 2047 616 2047 618 c 2,1005,-1
 2047 623 l 1,1006,1007
 2047.5 625 l 0,1008,1009
 2048 627 2048 627 2050 627 c 0,1010,1011
 2055 627 2055 627 2055 618 c 2,1012,-1
 2055.5 616.5 l 0,1013,1014
 2056 615 2056 615 2058 615 c 2,1015,-1
 2060.5 615.5 l 0,1016,1017
 2063 616 2063 616 2065 618 c 2,1018,-1
 2071 618 l 1,1019,-1
 2071 615 l 2,1020,1021
 2071 612 2071 612 2070 609.5 c 128,-1,1022
 2069 607 2069 607 2062 607 c 2,1023,-1
 2058 607 l 1,1024,-1
 2055 607 l 1,1025,-1
 2055 492 l 1,1026,-1
 2057 489.5 l 0,1027,1028
 2059 487 2059 487 2062 487 c 0,1029,1030
 2073 487 2073 487 2074 483 c 2,1031,-1
 2074 479 l 1,968,969
2047 607 m 1,1032,1033
 2043 603 2043 603 2039 603 c 1,1034,-1
 2039 492 l 1,1035,-1
 2047 492 l 1,1036,-1
 2047 607 l 1,1032,1033
50 445 m 1,1037,-1
 50 425 l 1,1038,-1
 2469 425 l 1,1039,-1
 2469 445 l 1,1040,-1
 50 445 l 1,1037,-1
514 298 m 2,1041,1042
 514 313 514 313 513.5 322.5 c 128,-1,1043
 513 332 513 332 511.5 337 c 128,-1,1044
 510 342 510 342 506 344 c 128,-1,1045
 502 346 502 346 495 347 c 2,1046,-1
 483 347 l 1,1047,1048
 476 356 476 356 483 364 c 1,1049,1050
 509 364 509 364 536 366 c 128,-1,1051
 563 368 563 368 595 368 c 0,1052,1053
 622 368 622 368 645.5 362.5 c 128,-1,1054
 669 357 669 357 680 352 c 0,1055,1056
 700 341 700 341 709.5 326 c 128,-1,1057
 719 311 719 311 719 294 c 0,1058,1059
 719 264 719 264 703 251 c 128,-1,1060
 687 238 687 238 673 231 c 0,1061,1062
 669 228 669 228 669 224 c 0,1063,1064
 693 183 693 183 708.5 158.5 c 128,-1,1065
 724 134 724 134 738 123 c 0,1066,1067
 755 112 755 112 770 112 c 1,1068,1069
 774 106 774 106 770 100 c 0,1070,1071
 766 100 766 100 755.5 98 c 128,-1,1072
 745 96 745 96 734 96 c 0,1073,1074
 704 96 704 96 684 107 c 128,-1,1075
 664 118 664 118 649 138 c 0,1076,1077
 638 155 638 155 630.5 170.5 c 128,-1,1078
 623 186 623 186 614 201 c 0,1079,1080
 611 210 611 210 605.5 213 c 128,-1,1081
 600 216 600 216 592 216 c 0,1082,1083
 581 216 581 216 579 215 c 128,-1,1084
 577 214 577 214 577 208 c 2,1085,-1
 577 159 l 2,1086,1087
 577 145 577 145 578 136.5 c 128,-1,1088
 579 128 579 128 581 124 c 128,-1,1089
 583 120 583 120 587.5 118.5 c 128,-1,1090
 592 117 592 117 599 116 c 2,1091,-1
 610 112 l 1,1092,-1
 610 100 l 1,1093,-1
 545 100 l 1,1094,-1
 479 100 l 2,1095,1096
 476 100 476 100 476 105 c 0,1097,1098
 476 111 476 111 479 112 c 2,1099,-1
 491 116 l 2,1100,1101
 498 117 498 117 502.5 118.5 c 128,-1,1102
 507 120 507 120 509.5 124 c 128,-1,1103
 512 128 512 128 513 136 c 128,-1,1104
 514 144 514 144 514 159 c 2,1105,-1
 514 298 l 2,1041,1042
577 247 m 2,1106,1107
 577 239 577 239 580 235 c 128,-1,1108
 583 231 583 231 603 231 c 0,1109,1110
 614 231 614 231 621.5 234.5 c 128,-1,1111
 629 238 629 238 638 244 c 0,1112,1113
 640 250 640 250 646.5 259.5 c 128,-1,1114
 653 269 653 269 653 290 c 0,1115,1116
 653 317 653 317 637.5 332 c 128,-1,1117
 622 347 622 347 595 347 c 0,1118,1119
 581 347 581 347 579 345 c 128,-1,1120
 577 343 577 343 577 329 c 2,1121,-1
 577 247 l 2,1106,1107
882 159 m 2,1122,1123
 882 145 882 145 883 136.5 c 128,-1,1124
 884 128 884 128 886.5 124 c 128,-1,1125
 889 120 889 120 893 118.5 c 128,-1,1126
 897 117 897 117 904 116 c 2,1127,-1
 917 112 l 2,1128,1129
 920 109 920 109 920 104 c 256,1130,1131
 920 100 920 100 917 100 c 2,1132,-1
 850 100 l 1,1133,-1
 780 100 l 2,1134,1135
 778 100 778 100 778 104 c 256,1136,1137
 778 108 778 108 780 112 c 2,1138,-1
 797 116 l 2,1139,1140
 804 117 804 117 808.5 118.5 c 128,-1,1141
 813 120 813 120 815 124 c 128,-1,1142
 817 128 817 128 818 136 c 128,-1,1143
 819 144 819 144 819 159 c 2,1144,-1
 819 305 l 2,1145,1146
 819 334 819 334 815 340.5 c 128,-1,1147
 811 347 811 347 797 347 c 1,1148,-1
 780 352 l 2,1149,1150
 778 354 778 354 778 359 c 256,1151,1152
 778 364 778 364 780 368 c 0,1153,1154
 800 365 800 365 816.5 364.5 c 128,-1,1155
 833 364 833 364 850 364 c 0,1156,1157
 865 364 865 364 882 364.5 c 128,-1,1158
 899 365 899 365 917 368 c 0,1159,1160
 920 365 920 365 920 359 c 256,1161,1162
 920 354 920 354 917 352 c 2,1163,-1
 904 347 l 1,1164,1165
 890 347 890 347 886 341 c 128,-1,1166
 882 335 882 335 882 305 c 2,1167,-1
 882 159 l 2,1122,1123
974 298 m 2,1168,1169
 974 313 974 313 973.5 322.5 c 128,-1,1170
 973 332 973 332 971.5 337 c 128,-1,1171
 970 342 970 342 966.5 344 c 128,-1,1172
 963 346 963 346 955 347 c 2,1173,-1
 943 347 l 2,1174,1175
 941 347 941 347 941 355 c 256,1176,1177
 941 363 941 363 943 364 c 0,1178,1179
 970 364 970 364 995.5 366 c 128,-1,1180
 1021 368 1021 368 1056 368 c 0,1181,1182
 1088 368 1088 368 1109.5 364 c 128,-1,1183
 1131 360 1131 360 1145 352 c 0,1184,1185
 1159 343 1159 343 1167.5 330.5 c 128,-1,1186
 1176 318 1176 318 1176 301 c 0,1187,1188
 1176 289 1176 289 1170.5 279.5 c 128,-1,1189
 1165 270 1165 270 1158 264 c 128,-1,1190
 1151 258 1151 258 1143.5 255 c 128,-1,1191
 1136 252 1136 252 1129 252 c 0,1192,1193
 1126 252 1126 252 1123.5 249 c 128,-1,1194
 1121 246 1121 246 1121 244 c 2,1195,-1
 1129 244 l 1,1196,1197
 1156 238 1156 238 1175.5 222 c 128,-1,1198
 1195 206 1195 206 1195 174 c 0,1199,1200
 1195 147 1195 147 1180 130.5 c 128,-1,1201
 1165 114 1165 114 1142 108 c 0,1202,1203
 1122 103 1122 103 1098.5 101.5 c 128,-1,1204
 1075 100 1075 100 1052 100 c 2,1205,-1
 1010 100 l 1,1206,-1
 940 100 l 2,1207,1208
 937 100 937 100 937 105 c 0,1209,1210
 937 111 937 111 940 112 c 2,1211,-1
 951 116 l 2,1212,1213
 958 117 958 117 963 118.5 c 128,-1,1214
 968 120 968 120 970 124 c 128,-1,1215
 972 128 972 128 973 136 c 128,-1,1216
 974 144 974 144 974 159 c 2,1217,-1
 974 298 l 2,1168,1169
1036 259 m 2,1218,1219
 1036 254 1036 254 1039 253 c 128,-1,1220
 1042 252 1042 252 1060 252 c 0,1221,1222
 1089 252 1089 252 1101.5 264 c 128,-1,1223
 1114 276 1114 276 1114 294 c 0,1224,1225
 1114 321 1114 321 1096.5 334 c 128,-1,1226
 1079 347 1079 347 1056 347 c 0,1227,1228
 1042 347 1042 347 1039 343 c 128,-1,1229
 1036 339 1036 339 1036 325 c 2,1230,-1
 1036 259 l 2,1218,1219
1036 166 m 2,1231,1232
 1036 142 1036 142 1042.5 129 c 128,-1,1233
 1049 116 1049 116 1075 116 c 256,1234,1235
 1102 116 1102 116 1113.5 131.5 c 128,-1,1236
 1125 147 1125 147 1125 174 c 0,1237,1238
 1125 200 1125 200 1109 215.5 c 128,-1,1239
 1093 231 1093 231 1060 231 c 0,1240,1241
 1043 231 1043 231 1039.5 229 c 128,-1,1242
 1036 227 1036 227 1036 216 c 2,1243,-1
 1036 166 l 2,1231,1232
1237 305 m 2,1244,1245
 1237 319 1237 319 1236 328 c 128,-1,1246
 1235 337 1235 337 1233 341.5 c 128,-1,1247
 1231 346 1231 346 1226.5 348 c 128,-1,1248
 1222 350 1222 350 1214 352 c 2,1249,-1
 1203 352 l 2,1250,1251
 1200 354 1200 354 1200 359 c 256,1252,1253
 1200 364 1200 364 1203 368 c 0,1254,1255
 1220 365 1220 365 1237 364.5 c 128,-1,1256
 1254 364 1254 364 1269 364 c 0,1257,1258
 1286 364 1286 364 1302 364.5 c 128,-1,1259
 1318 365 1318 365 1335 368 c 0,1260,1261
 1337 365 1337 365 1337 359 c 256,1262,1263
 1337 354 1337 354 1335 352 c 2,1264,-1
 1323 352 l 2,1265,1266
 1316 350 1316 350 1311.5 348 c 128,-1,1267
 1307 346 1307 346 1304.5 341.5 c 128,-1,1268
 1302 337 1302 337 1300.5 328 c 128,-1,1269
 1299 319 1299 319 1299 305 c 2,1270,-1
 1299 213 l 2,1271,1272
 1299 196 1299 196 1301.5 178.5 c 128,-1,1273
 1304 161 1304 161 1311.5 147 c 128,-1,1274
 1319 133 1319 133 1334 124.5 c 128,-1,1275
 1349 116 1349 116 1373 116 c 0,1276,1277
 1416 116 1416 116 1431.5 144.5 c 128,-1,1278
 1447 173 1447 173 1447 216 c 2,1279,-1
 1447 262 l 2,1280,1281
 1447 289 1447 289 1446.5 310 c 128,-1,1282
 1446 331 1446 331 1443 337 c 0,1283,1284
 1440 342 1440 342 1432 345 c 128,-1,1285
 1424 348 1424 348 1415 352 c 1,1286,-1
 1405 352 l 2,1287,1288
 1401 354 1401 354 1401 359 c 256,1289,1290
 1401 364 1401 364 1405 368 c 0,1291,1292
 1422 365 1422 365 1436.5 364.5 c 128,-1,1293
 1451 364 1451 364 1462 364 c 0,1294,1295
 1476 364 1476 364 1488.5 364.5 c 128,-1,1296
 1501 365 1501 365 1512 368 c 0,1297,1298
 1515 365 1515 365 1516 359 c 256,1299,1300
 1516 354 1516 354 1512 352 c 2,1301,-1
 1505 352 l 1,1302,1303
 1496 348 1496 348 1490 345 c 128,-1,1304
 1484 342 1484 342 1482 337 c 0,1305,1306
 1479 331 1479 331 1477 310 c 128,-1,1307
 1475 289 1475 289 1475 262 c 2,1308,-1
 1475 220 l 2,1309,1310
 1475 190 1475 190 1469.5 165 c 128,-1,1311
 1464 140 1464 140 1447 123 c 0,1312,1313
 1433 109 1433 109 1408.5 100.5 c 128,-1,1314
 1384 92 1384 92 1358 92 c 0,1315,1316
 1304 92 1304 92 1269 116 c 0,1317,1318
 1252 127 1252 127 1244.5 150 c 128,-1,1319
 1237 173 1237 173 1237 208 c 2,1320,-1
 1237 305 l 2,1244,1245
1818 170 m 1,1321,-1
 1818 104 l 2,1322,1323
 1816 101 1816 101 1808 96.5 c 128,-1,1324
 1800 92 1800 92 1792 92 c 1,1325,-1
 1781.5 106.5 l 0,1326,1327
 1771 121 1771 121 1756 138 c 2,1328,-1
 1652 252 l 2,1329,1330
 1635 276 1635 276 1623.5 288 c 128,-1,1331
 1612 300 1612 300 1606 305 c 1,1332,1333
 1602 301 1602 301 1602 278 c 2,1334,-1
 1602 201 l 2,1335,1336
 1602 177 1602 177 1604.5 156.5 c 128,-1,1337
 1607 136 1607 136 1609 128 c 0,1338,1339
 1616 116 1616 116 1636 116 c 1,1340,-1
 1648 112 l 2,1341,1342
 1651 109 1651 109 1649.5 104.5 c 0,1343,-1
 1648 100 l 1,1344,-1
 1586 100 l 1,1345,-1
 1536 100 l 1,1346,-1
 1534.5 104.5 l 0,1347,1348
 1533 109 1533 109 1536 112 c 2,1349,-1
 1544 116 l 1,1350,1351
 1564 116 1564 116 1571 128 c 0,1352,1353
 1574 136 1574 136 1574.5 156.5 c 128,-1,1354
 1575 177 1575 177 1575 201 c 2,1355,-1
 1575 301 l 1,1356,-1
 1575 337 l 2,1357,1358
 1572 342 1572 342 1565.5 345 c 128,-1,1359
 1559 348 1559 348 1547 352 c 1,1360,-1
 1536 352 l 2,1361,1362
 1533 354 1533 354 1533 359 c 256,1363,1364
 1533 364 1533 364 1536 368 c 0,1365,1366
 1553 365 1553 365 1568 364.5 c 128,-1,1367
 1583 364 1583 364 1598 364 c 0,1368,1369
 1609 364 1609 364 1618 364.5 c 128,-1,1370
 1627 365 1627 365 1636 368 c 1,1371,1372
 1639 353 1639 353 1658.5 329.5 c 128,-1,1373
 1678 306 1678 306 1710 274 c 2,1374,-1
 1745 236 l 2,1375,1376
 1759 219 1759 219 1770.5 208.5 c 128,-1,1377
 1782 198 1782 198 1787 189 c 1,1378,1379
 1791 191 1791 191 1791.5 197 c 128,-1,1380
 1792 203 1792 203 1792 208 c 2,1381,-1
 1792 262 l 2,1382,1383
 1792 289 1792 289 1789 308.5 c 128,-1,1384
 1786 328 1786 328 1784 337 c 0,1385,1386
 1781 342 1781 342 1774 345 c 128,-1,1387
 1767 348 1767 348 1756 352 c 1,1388,-1
 1745 352 l 1,1389,-1
 1745 368 l 1,1390,1391
 1765 365 1765 365 1778.5 364.5 c 128,-1,1392
 1792 364 1792 364 1807 364 c 0,1393,1394
 1818 364 1818 364 1830 364.5 c 128,-1,1395
 1842 365 1842 365 1857 368 c 1,1396,1397
 1857 365 1857 365 1859 359.5 c 128,-1,1398
 1861 354 1861 354 1857 352 c 2,1399,-1
 1849 352 l 1,1400,1401
 1838 348 1838 348 1831.5 345 c 128,-1,1402
 1825 342 1825 342 1823 337 c 0,1403,1404
 1819 328 1819 328 1818.5 308.5 c 128,-1,1405
 1818 289 1818 289 1818 262 c 2,1406,-1
 1818 170 l 1,1321,-1
1947 189 m 2,1407,1408
 1938 189 1938 189 1935.5 188 c 128,-1,1409
 1933 187 1933 187 1931 181 c 2,1410,-1
 1916 135 l 2,1411,1412
 1912 130 1912 130 1911.5 126 c 128,-1,1413
 1911 122 1911 122 1911 120 c 2,1414,-1
 1914.5 118 l 0,1415,1416
 1918 116 1918 116 1926 116 c 2,1417,-1
 1938 112 l 2,1418,1419
 1940 109 1940 109 1941 104 c 256,1420,1421
 1941 100 1941 100 1938 100 c 2,1422,-1
 1888 100 l 1,1423,-1
 1841 100 l 2,1424,1425
 1839 100 1839 100 1839 104 c 256,1426,1427
 1839 108 1839 108 1841 112 c 2,1428,-1
 1853 116 l 2,1429,1430
 1859 116 1859 116 1866.5 120 c 128,-1,1431
 1874 124 1874 124 1880 135 c 256,1432,1433
 1886 146 1886 146 1892.5 161.5 c 128,-1,1434
 1899 177 1899 177 1908 198 c 2,1435,-1
 1947 298 l 2,1436,1437
 1955 315 1955 315 1960 327 c 128,-1,1438
 1965 339 1965 339 1965 347 c 1,1439,1440
 1980 351 1980 351 1992 361 c 0,1441,-1
 2004 371 l 2,1442,1443
 2007 371 2007 371 2009 370 c 128,-1,1444
 2011 369 2011 369 2011 364 c 0,1445,1446
 2015 356 2015 356 2021 343 c 128,-1,1447
 2027 330 2027 330 2035 309 c 2,1448,-1
 2093 151 l 2,1449,1450
 2101 134 2101 134 2107.5 126.5 c 128,-1,1451
 2114 119 2114 119 2125 116 c 2,1452,-1
 2140 112 l 2,1453,1454
 2142 112 2142 112 2142 105 c 0,1455,1456
 2142 100 2142 100 2140 100 c 2,1457,-1
 2071 100 l 1,1458,-1
 2011 100 l 2,1459,1460
 2009 100 2009 100 2007.5 104.5 c 128,-1,1461
 2006 109 2006 109 2011 112 c 2,1462,-1
 2023 116 l 2,1463,1464
 2031 116 2031 116 2033 118 c 0,1465,-1
 2035 120 l 2,1466,1467
 2035 122 2035 122 2034 130 c 128,-1,1468
 2033 138 2033 138 2028 146 c 2,1469,-1
 2016 181 l 2,1470,1471
 2016 187 2016 187 2011.5 188 c 128,-1,1472
 2007 189 2007 189 1996 189 c 2,1473,-1
 1947 189 l 2,1407,1408
1993 213 m 2,1474,1475
 2001 213 2001 213 2002 214.5 c 128,-1,1476
 2003 216 2003 216 2001 224 c 2,1477,-1
 1989 255 l 2,1478,1479
 1987 269 1987 269 1981.5 280.5 c 128,-1,1480
 1976 292 1976 292 1973 298 c 1,1481,1482
 1970 292 1970 292 1965 279 c 128,-1,1483
 1960 266 1960 266 1954 255 c 2,1484,-1
 1947 224 l 1,1485,1486
 1941 216 1941 216 1943 214.5 c 128,-1,1487
 1945 213 1945 213 1954 213 c 2,1488,-1
 1993 213 l 2,1474,1475
231 316 m 2,1489,1490
 231 327 231 327 229 329.5 c 128,-1,1491
 227 332 227 332 216 332 c 2,1492,-1
 181 332 l 2,1493,1494
 146 332 146 332 132.5 317.5 c 128,-1,1495
 119 303 119 303 108 270 c 1,1496,1497
 102 270 102 270 94.5 271 c 128,-1,1498
 87 272 87 272 84 278 c 1,1499,1500
 93 305 93 305 96.5 329 c 128,-1,1501
 100 353 100 353 103 371 c 1,1502,-1
 112 371 l 1,1503,-1
 120 371 l 1,1504,1505
 121 367 121 367 122.5 364 c 128,-1,1506
 124 361 124 361 128.5 360 c 128,-1,1507
 133 359 133 359 142 359 c 256,1508,1509
 151 359 151 359 169 359 c 2,1510,-1
 393 359 l 2,1511,1512
 423 359 423 359 434 360.5 c 128,-1,1513
 445 362 445 362 448 371 c 1,1514,-1
 456 371 l 2,1515,1516
 463 371 463 371 463 368 c 0,1517,1518
 462 362 462 362 460.5 351 c 128,-1,1519
 459 340 459 340 458 326.5 c 128,-1,1520
 457 313 457 313 456.5 299.5 c 128,-1,1521
 456 286 456 286 456 274 c 0,1522,1523
 454 271 454 271 444 271 c 0,1524,1525
 436 271 436 271 432 274 c 0,1526,1527
 427 301 427 301 415 316.5 c 128,-1,1528
 403 332 403 332 371 332 c 2,1529,-1
 332 332 l 2,1530,1531
 324 332 324 332 320 330 c 128,-1,1532
 316 328 316 328 316 316 c 2,1533,-1
 316 77 l 2,1534,1535
 316 59 316 59 317 47.5 c 128,-1,1536
 318 36 318 36 321.5 30.5 c 128,-1,1537
 325 25 325 25 331 22.5 c 128,-1,1538
 337 20 337 20 347 19 c 2,1539,-1
 371 14 l 2,1540,1541
 376 12 376 12 376 5 c 256,1542,1543
 376 -2 376 -2 371 -4 c 0,1544,1545
 341 -4 341 -4 319.5 -2.5 c 128,-1,1546
 298 -1 298 -1 278 -1 c 0,1547,1548
 254 -1 254 -1 230 -2.5 c 128,-1,1549
 206 -4 206 -4 174 -4 c 0,1550,1551
 170 -2 170 -2 170 5 c 256,1552,1553
 170 12 170 12 174 14 c 2,1554,-1
 200 19 l 2,1555,1556
 210 20 210 20 216 22.5 c 128,-1,1557
 222 25 222 25 225.5 30.5 c 128,-1,1558
 229 36 229 36 230 47 c 128,-1,1559
 231 58 231 58 231 77 c 2,1560,-1
 231 316 l 2,1489,1490
2271 104 m 2,1561,1562
 2271 84 2271 84 2274 71.5 c 128,-1,1563
 2277 59 2277 59 2283 53 c 0,1564,1565
 2289 45 2289 45 2301 41.5 c 128,-1,1566
 2313 38 2313 38 2345 38 c 0,1567,1568
 2363 38 2363 38 2377 39.5 c 128,-1,1569
 2391 41 2391 41 2403 47.5 c 128,-1,1570
 2415 54 2415 54 2425.5 67.5 c 128,-1,1571
 2436 81 2436 81 2449 104 c 0,1572,1573
 2451 106 2451 106 2458.5 105.5 c 128,-1,1574
 2466 105 2466 105 2469 100 c 0,1575,1576
 2469 90 2469 90 2466.5 77.5 c 128,-1,1577
 2464 65 2464 65 2460 52 c 128,-1,1578
 2456 39 2456 39 2452 28 c 128,-1,1579
 2448 17 2448 17 2445 11 c 1,1580,1581
 2421 13 2421 13 2383 13.5 c 128,-1,1582
 2345 14 2345 14 2310 14 c 2,1583,-1
 2232 14 l 2,1584,1585
 2212 14 2212 14 2189 13.5 c 128,-1,1586
 2166 13 2166 13 2140 11 c 0,1587,1588
 2134 13 2134 13 2133.5 20.5 c 128,-1,1589
 2133 28 2133 28 2135 31 c 2,1590,-1
 2159 35 l 2,1591,1592
 2169 36 2169 36 2175 38 c 128,-1,1593
 2181 40 2181 40 2184 45.5 c 128,-1,1594
 2187 51 2187 51 2188 62.5 c 128,-1,1595
 2189 74 2189 74 2189 92 c 2,1596,-1
 2189 290 l 2,1597,1598
 2189 308 2189 308 2188 319.5 c 128,-1,1599
 2187 331 2187 331 2184 336.5 c 128,-1,1600
 2181 342 2181 342 2175 344 c 128,-1,1601
 2169 346 2169 346 2159 347 c 2,1602,-1
 2140 352 l 2,1603,1604
 2136 354 2136 354 2136.5 361.5 c 128,-1,1605
 2137 369 2137 369 2143 371 c 0,1606,1607
 2167 369 2167 369 2188 368.5 c 128,-1,1608
 2209 368 2209 368 2232 368 c 0,1609,1610
 2252 368 2252 368 2273.5 368.5 c 128,-1,1611
 2295 369 2295 369 2318 371 c 0,1612,1613
 2320 369 2320 369 2320 361 c 256,1614,1615
 2320 354 2320 354 2318 352 c 2,1616,-1
 2303 347 l 2,1617,1618
 2293 346 2293 346 2286.5 344 c 128,-1,1619
 2280 342 2280 342 2276.5 336.5 c 128,-1,1620
 2273 331 2273 331 2272 319.5 c 128,-1,1621
 2271 308 2271 308 2271 290 c 2,1622,-1
 2271 104 l 2,1561,1562
EndSplineSet
Validated: 133
EndChar

StartChar: three
Encoding: 51 51 43
Width: 3073
Flags: W
LayerCount: 2
Fore
SplineSet
55 458 m 1,0,-1
 55 440 l 1,1,-1
 3020 440 l 1,2,-1
 3020 458 l 1,3,-1
 55 458 l 1,0,-1
538 183 m 2,4,5
 538 167 538 167 540.5 158.5 c 128,-1,6
 543 150 543 150 545 144 c 0,7,8
 550 139 550 139 558 136.5 c 128,-1,9
 566 134 566 134 591 134 c 0,10,11
 606 134 606 134 616.5 134.5 c 128,-1,12
 627 135 627 135 635 139.5 c 128,-1,13
 643 144 643 144 650 154.5 c 128,-1,14
 657 165 657 165 667 183 c 0,15,16
 669 185 669 185 675.5 183.5 c 128,-1,17
 682 182 682 182 684 179 c 0,18,19
 684 164 684 164 678 144.5 c 128,-1,20
 672 125 672 125 667 114 c 1,21,22
 649 116 649 116 620.5 116.5 c 128,-1,23
 592 117 592 117 565 117 c 2,24,-1
 507 117 l 2,25,26
 494 117 494 117 477.5 116.5 c 128,-1,27
 461 116 461 116 440 114 c 0,28,29
 438 116 438 116 436 122 c 128,-1,30
 434 128 434 128 437 128 c 2,31,-1
 455 131 l 2,32,33
 462 132 462 132 466.5 133.5 c 128,-1,34
 471 135 471 135 472.5 139 c 128,-1,35
 474 143 474 143 474.5 151 c 128,-1,36
 475 159 475 159 475 172 c 2,37,-1
 475 318 l 2,38,39
 475 332 475 332 474.5 340.5 c 128,-1,40
 474 349 474 349 472.5 353.5 c 128,-1,41
 471 358 471 358 466.5 359.5 c 128,-1,42
 462 361 462 361 455 364 c 2,43,-1
 444 364 l 2,44,45
 439 366 439 366 439 370 c 0,46,47
 439 375 439 375 444 378 c 2,48,-1
 507 378 l 1,49,-1
 572 378 l 1,50,51
 580 370 580 370 572 364 c 1,52,-1
 562 364 l 2,53,54
 547 361 547 361 542.5 354 c 128,-1,55
 538 347 538 347 538 318 c 2,56,-1
 538 183 l 2,4,5
993 249 m 0,57,58
 993 183 993 183 955 146.5 c 128,-1,59
 917 110 917 110 851 110 c 0,60,61
 791 110 791 110 753 146 c 128,-1,62
 715 182 715 182 715 246 c 0,63,64
 715 275 715 275 725.5 299.5 c 128,-1,65
 736 324 736 324 754.5 342 c 128,-1,66
 773 360 773 360 798.5 370.5 c 128,-1,67
 824 381 824 381 855 381 c 0,68,69
 917 381 917 381 955 345.5 c 128,-1,70
 993 310 993 310 993 249 c 0,57,58
851 364 m 0,71,72
 814 364 814 364 796 333 c 128,-1,73
 778 302 778 302 778 253 c 0,74,75
 778 235 778 235 781.5 212.5 c 128,-1,76
 785 190 785 190 794.5 172 c 128,-1,77
 804 154 804 154 819.5 141 c 128,-1,78
 835 128 835 128 858 128 c 0,79,80
 896 128 896 128 913.5 161.5 c 128,-1,81
 931 195 931 195 931 242 c 0,82,83
 931 267 931 267 925.5 289 c 128,-1,84
 920 311 920 311 909 327.5 c 128,-1,85
 898 344 898 344 883.5 354 c 128,-1,86
 869 364 869 364 851 364 c 0,71,72
1307 249 m 0,87,88
 1307 183 1307 183 1268.5 146.5 c 128,-1,89
 1230 110 1230 110 1163 110 c 0,90,91
 1104 110 1104 110 1066 146 c 128,-1,92
 1028 182 1028 182 1028 246 c 0,93,94
 1028 275 1028 275 1038.5 299.5 c 128,-1,95
 1049 324 1049 324 1067 342 c 128,-1,96
 1085 360 1085 360 1111 370.5 c 128,-1,97
 1137 381 1137 381 1167 381 c 0,98,99
 1230 381 1230 381 1268.5 345.5 c 128,-1,100
 1307 310 1307 310 1307 249 c 0,87,88
1163 364 m 0,101,102
 1126 364 1126 364 1108.5 333 c 128,-1,103
 1091 302 1091 302 1091 253 c 0,104,105
 1091 235 1091 235 1094.5 212.5 c 128,-1,106
 1098 190 1098 190 1107 172 c 128,-1,107
 1116 154 1116 154 1131.5 141 c 128,-1,108
 1147 128 1147 128 1170 128 c 0,109,110
 1209 128 1209 128 1226.5 161.5 c 128,-1,111
 1244 195 1244 195 1244 242 c 0,112,113
 1244 267 1244 267 1238.5 289 c 128,-1,114
 1233 311 1233 311 1222 327.5 c 128,-1,115
 1211 344 1211 344 1196 354 c 128,-1,116
 1181 364 1181 364 1163 364 c 0,101,102
1352 311 m 2,117,118
 1352 341 1352 341 1350 349 c 128,-1,119
 1348 357 1348 357 1334 359 c 2,120,-1
 1323 359 l 2,121,122
 1321 362 1321 362 1321.5 368 c 128,-1,123
 1322 374 1322 374 1327 374 c 0,124,125
 1351 374 1351 374 1375.5 376 c 128,-1,126
 1400 378 1400 378 1432 378 c 0,127,128
 1456 378 1456 378 1480 375 c 128,-1,129
 1504 372 1504 372 1525 364 c 0,130,131
 1565 351 1565 351 1585.5 318 c 128,-1,132
 1606 285 1606 285 1606 249 c 0,133,134
 1606 210 1606 210 1587.5 180.5 c 128,-1,135
 1569 151 1569 151 1532 134 c 0,136,137
 1515 124 1515 124 1489.5 119 c 128,-1,138
 1464 114 1464 114 1435 114 c 0,139,140
 1419 114 1419 114 1406.5 115.5 c 128,-1,141
 1394 117 1394 117 1383 117 c 0,142,143
 1367 117 1367 117 1351.5 116.5 c 128,-1,144
 1336 116 1336 116 1320 114 c 0,145,146
 1317 116 1317 116 1317 122 c 256,147,148
 1317 128 1317 128 1320 128 c 2,149,-1
 1330 131 l 2,150,151
 1337 132 1337 132 1341.5 133.5 c 128,-1,152
 1346 135 1346 135 1348 139 c 128,-1,153
 1350 143 1350 143 1351 151 c 128,-1,154
 1352 159 1352 159 1352 172 c 2,155,-1
 1352 311 l 2,117,118
1407 185 m 2,156,157
 1407 154 1407 154 1417 144 c 0,158,159
 1426 131 1426 131 1449 131 c 0,160,161
 1475 131 1475 131 1492.5 141.5 c 128,-1,162
 1510 152 1510 152 1521.5 168.5 c 128,-1,163
 1533 185 1533 185 1538 205 c 128,-1,164
 1543 225 1543 225 1543 246 c 0,165,166
 1543 301 1543 301 1515 330 c 128,-1,167
 1487 359 1487 359 1432 359 c 0,168,169
 1415 359 1415 359 1410 353 c 0,170,171
 1410 351 1410 351 1408.5 346 c 128,-1,172
 1407 341 1407 341 1407 333 c 2,173,-1
 1407 185 l 2,156,157
1619 364 m 2,174,175
 1616 366 1616 366 1616 372 c 256,176,177
 1616 378 1616 378 1619 378 c 2,178,-1
 1668 378 l 1,179,-1
 1710 378 l 1,180,181
 1710 360 1710 360 1719 339.5 c 128,-1,182
 1728 319 1728 319 1741 290 c 2,183,-1
 1765 234 l 2,184,185
 1767 229 1767 229 1775.5 217 c 128,-1,186
 1784 205 1784 205 1786 197 c 1,187,188
 1791 205 1791 205 1796.5 214.5 c 128,-1,189
 1802 224 1802 224 1810 242 c 2,190,-1
 1831 284 l 2,191,192
 1838 299 1838 299 1843 311 c 128,-1,193
 1848 323 1848 323 1853 333.5 c 128,-1,194
 1858 344 1858 344 1861 354.5 c 128,-1,195
 1864 365 1864 365 1866 378 c 1,196,197
 1879 375 1879 375 1889.5 376.5 c 128,-1,198
 1900 378 1900 378 1908 378 c 2,199,-1
 1954 378 l 2,200,201
 1959 375 1959 375 1959.5 370.5 c 128,-1,202
 1960 366 1960 366 1957 364 c 2,203,-1
 1943 359 l 2,204,205
 1932 357 1932 357 1925 352.5 c 128,-1,206
 1918 348 1918 348 1918 333 c 0,207,208
 1918 303 1918 303 1918.5 279.5 c 128,-1,209
 1919 256 1919 256 1919.5 235.5 c 128,-1,210
 1920 215 1920 215 1920.5 196.5 c 128,-1,211
 1921 178 1921 178 1921 159 c 0,212,213
 1924 146 1924 146 1926.5 139.5 c 128,-1,214
 1929 133 1929 133 1943 131 c 2,215,-1
 1954 128 l 2,216,217
 1956 128 1956 128 1956 122 c 256,218,219
 1956 116 1956 116 1954 114 c 0,220,221
 1940 116 1940 116 1926.5 116.5 c 128,-1,222
 1913 117 1913 117 1897 117 c 0,223,224
 1884 117 1884 117 1869 116.5 c 128,-1,225
 1854 116 1854 116 1838 114 c 0,226,227
 1836 116 1836 116 1836 122 c 256,228,229
 1836 128 1836 128 1838 128 c 2,230,-1
 1849 131 l 2,231,232
 1864 133 1864 133 1867 138 c 128,-1,233
 1870 143 1870 143 1870 162 c 2,234,-1
 1866 262 l 1,235,-1
 1866 308 l 1,236,237
 1846 261 1846 261 1823 212 c 128,-1,238
 1800 163 1800 163 1780 114 c 0,239,240
 1777 114 1777 114 1776 112 c 128,-1,241
 1775 110 1775 110 1773 110 c 0,242,243
 1770 110 1770 110 1765.5 112 c 0,244,-1
 1761 114 l 1,245,246
 1755 132 1755 132 1744.5 157 c 128,-1,247
 1734 182 1734 182 1721.5 209.5 c 128,-1,248
 1709 237 1709 237 1697 263 c 128,-1,249
 1685 289 1685 289 1675 308 c 1,250,251
 1675 290 1675 290 1674.5 276 c 128,-1,252
 1674 262 1674 262 1671 249 c 2,253,-1
 1671 159 l 2,254,255
 1671 143 1671 143 1674.5 138 c 128,-1,256
 1678 133 1678 133 1689 131 c 2,257,-1
 1706 128 l 2,258,259
 1709 128 1709 128 1707.5 122 c 128,-1,260
 1706 116 1706 116 1706 114 c 1,261,262
 1693 116 1693 116 1682 116.5 c 128,-1,263
 1671 117 1671 117 1658 117 c 0,264,265
 1647 117 1647 117 1636 116.5 c 128,-1,266
 1625 116 1625 116 1612 114 c 0,267,268
 1610 116 1610 116 1610 122 c 256,269,270
 1610 128 1610 128 1612 128 c 2,271,-1
 1619 131 l 1,272,273
 1635 133 1635 133 1638 138 c 128,-1,274
 1641 143 1641 143 1644 162 c 0,275,276
 1644 175 1644 175 1646.5 199 c 128,-1,277
 1649 223 1649 223 1651 253 c 2,278,-1
 1651 333 l 2,279,280
 1651 348 1651 348 1645 353 c 128,-1,281
 1639 358 1639 358 1626 364 c 1,282,-1
 1619 364 l 2,174,175
2246 249 m 0,283,284
 2246 183 2246 183 2205.5 146.5 c 128,-1,285
 2165 110 2165 110 2102 110 c 0,286,287
 2042 110 2042 110 2002.5 146 c 128,-1,288
 1963 182 1963 182 1963 246 c 0,289,290
 1963 275 1963 275 1974 299.5 c 128,-1,291
 1985 324 1985 324 2003.5 342 c 128,-1,292
 2022 360 2022 360 2048.5 370.5 c 128,-1,293
 2075 381 2075 381 2106 381 c 0,294,295
 2168 381 2168 381 2207 345.5 c 128,-1,296
 2246 310 2246 310 2246 249 c 0,283,284
2102 364 m 0,297,298
 2066 364 2066 364 2048 333 c 128,-1,299
 2030 302 2030 302 2030 253 c 0,300,301
 2030 235 2030 235 2033.5 212.5 c 128,-1,302
 2037 190 2037 190 2046 172 c 128,-1,303
 2055 154 2055 154 2070.5 141 c 128,-1,304
 2086 128 2086 128 2109 128 c 0,305,306
 2149 128 2149 128 2165.5 161.5 c 128,-1,307
 2182 195 2182 195 2182 242 c 0,308,309
 2182 267 2182 267 2176.5 289 c 128,-1,310
 2171 311 2171 311 2160.5 327.5 c 128,-1,311
 2150 344 2150 344 2135 354 c 128,-1,312
 2120 364 2120 364 2102 364 c 0,297,298
2559 249 m 0,313,314
 2559 183 2559 183 2518.5 146.5 c 128,-1,315
 2478 110 2478 110 2415 110 c 0,316,317
 2356 110 2356 110 2316 146 c 128,-1,318
 2276 182 2276 182 2276 246 c 0,319,320
 2276 275 2276 275 2287 299.5 c 128,-1,321
 2298 324 2298 324 2317 342 c 128,-1,322
 2336 360 2336 360 2362 370.5 c 128,-1,323
 2388 381 2388 381 2419 381 c 0,324,325
 2482 381 2482 381 2520.5 345.5 c 128,-1,326
 2559 310 2559 310 2559 249 c 0,313,314
2415 364 m 0,327,328
 2379 364 2379 364 2361 333 c 128,-1,329
 2343 302 2343 302 2343 253 c 0,330,331
 2343 235 2343 235 2346 212.5 c 128,-1,332
 2349 190 2349 190 2357.5 172 c 128,-1,333
 2366 154 2366 154 2381.5 141 c 128,-1,334
 2397 128 2397 128 2422 128 c 0,335,336
 2462 128 2462 128 2479 161.5 c 128,-1,337
 2496 195 2496 195 2496 242 c 0,338,339
 2496 267 2496 267 2490 289 c 128,-1,340
 2484 311 2484 311 2473.5 327.5 c 128,-1,341
 2463 344 2463 344 2448 354 c 128,-1,342
 2433 364 2433 364 2415 364 c 0,327,328
2966 95 m 1,343,-1
 2966 2 l 2,344,345
 2964 -3 2964 -3 2952 -6 c 128,-1,346
 2940 -9 2940 -9 2927 -9 c 1,347,348
 2913 9.5 l 0,349,350
 2899 28 2899 28 2877 54 c 2,351,-1
 2732 218 l 2,352,353
 2702 249 2702 249 2686.5 267 c 128,-1,354
 2671 285 2671 285 2663 290 c 1,355,356
 2659 287 2659 287 2659 256 c 2,357,-1
 2659 141 l 2,358,359
 2659 106 2659 106 2661 78 c 128,-1,360
 2663 50 2663 50 2665 37 c 0,361,362
 2670 29 2670 29 2680 26 c 128,-1,363
 2690 23 2690 23 2704 19 c 2,364,-1
 2721 16 l 2,365,366
 2726 13 2726 13 2725 5 c 128,-1,367
 2724 -3 2724 -3 2721 -5 c 0,368,369
 2694 -3 2694 -3 2675.5 -2.5 c 128,-1,370
 2657 -2 2657 -2 2638 -2 c 0,371,372
 2621 -2 2621 -2 2602 -2.5 c 128,-1,373
 2583 -3 2583 -3 2565 -5 c 0,374,375
 2563 -3 2563 -3 2563 5 c 256,376,377
 2563 13 2563 13 2565 16 c 2,378,-1
 2575 19 l 2,379,380
 2588 22 2588 22 2598.5 25.5 c 128,-1,381
 2609 29 2609 29 2614 37 c 0,382,383
 2616 50 2616 50 2618 78 c 128,-1,384
 2620 106 2620 106 2620 141 c 2,385,-1
 2620 290 l 2,386,387
 2620 315 2620 315 2619.5 323.5 c 128,-1,388
 2619 332 2619 332 2616 339 c 0,389,390
 2614 344 2614 344 2605.5 349 c 128,-1,391
 2597 354 2597 354 2578 357 c 2,392,-1
 2562 359 l 2,393,394
 2560 362 2560 362 2560 371 c 256,395,396
 2560 379 2560 379 2565 381 c 0,397,398
 2589 379 2589 379 2611.5 378.5 c 128,-1,399
 2634 378 2634 378 2652 378 c 0,400,401
 2667 378 2667 378 2681.5 378.5 c 128,-1,402
 2696 379 2696 379 2707 381 c 1,403,404
 2710 361 2710 361 2739 328.5 c 128,-1,405
 2768 296 2768 296 2812 249 c 2,406,-1
 2865 189 l 2,407,408
 2885 169 2885 169 2898.5 153.5 c 128,-1,409
 2912 138 2912 138 2923 128 c 1,410,411
 2926 133 2926 133 2926.5 140 c 128,-1,412
 2927 147 2927 147 2927 156 c 2,413,-1
 2927 234 l 2,414,415
 2927 269 2927 269 2923.5 298 c 128,-1,416
 2920 327 2920 327 2915 339 c 0,417,418
 2913 350 2913 350 2904 352 c 128,-1,419
 2895 354 2895 354 2881 357 c 2,420,-1
 2865 359 l 2,421,422
 2860 362 2860 362 2861 370.5 c 128,-1,423
 2862 379 2862 379 2865 381 c 0,424,425
 2891 379 2891 379 2910 378.5 c 128,-1,426
 2929 378 2929 378 2948 378 c 0,427,428
 2965 378 2965 378 2982 378.5 c 128,-1,429
 2999 379 2999 379 3020 381 c 0,430,431
 3023 379 3023 379 3023 371 c 256,432,433
 3023 363 3023 363 3020 359 c 2,434,-1
 3006 357 l 2,435,436
 2995 354 2995 354 2986.5 352 c 128,-1,437
 2978 350 2978 350 2976 339 c 0,438,439
 2971 327 2971 327 2968.5 298 c 128,-1,440
 2966 269 2966 269 2966 234 c 2,441,-1
 2966 95 l 1,343,-1
103 287 m 2,442,443
 103 310 103 310 102.5 323 c 128,-1,444
 102 336 102 336 99.5 343 c 128,-1,445
 97 350 97 350 91.5 352.5 c 128,-1,446
 86 355 86 355 76 357 c 2,447,-1
 57 357 l 2,448,449
 56 358 56 358 55 361.5 c 128,-1,450
 54 365 54 365 54 368 c 0,451,452
 54 372 54 372 55.5 375 c 128,-1,453
 57 378 57 378 61 378 c 0,454,455
 97 380 97 380 134 382 c 128,-1,456
 171 384 171 384 217 384 c 256,457,458
 263 384 263 384 292.5 379.5 c 128,-1,459
 322 375 322 375 343 364 c 0,460,461
 363 351 363 351 376 332.5 c 128,-1,462
 389 314 389 314 389 290 c 0,463,464
 389 272 389 272 381.5 259 c 128,-1,465
 374 246 374 246 363 237 c 128,-1,466
 352 228 352 228 341 223.5 c 128,-1,467
 330 219 330 219 322 218 c 0,468,469
 320 218 320 218 315.5 215.5 c 128,-1,470
 311 213 311 213 311 211 c 2,471,-1
 313 209 l 0,472,473
 315 207 315 207 318 207 c 0,474,475
 357 199 357 199 384.5 175.5 c 128,-1,476
 412 152 412 152 412 110 c 0,477,478
 412 71 412 71 390.5 48 c 128,-1,479
 369 25 369 25 340 16 c 0,480,481
 308 5 308 5 276 1.5 c 128,-1,482
 244 -2 244 -2 214 -2 c 0,483,484
 197 -2 197 -2 180.5 0 c 128,-1,485
 164 2 164 2 149 2 c 2,486,-1
 55 2 l 2,487,488
 50 4 50 4 50 11 c 0,489,490
 50 19 50 19 55 19 c 2,491,-1
 72 24 l 2,492,493
 82 27 82 27 88 29.5 c 128,-1,494
 94 32 94 32 97.5 37.5 c 128,-1,495
 101 43 101 43 102 54.5 c 128,-1,496
 103 66 103 66 103 85 c 2,497,-1
 103 287 l 2,442,443
190 232 m 2,498,499
 190 221 190 221 194 219.5 c 128,-1,500
 198 218 198 218 221 218 c 0,501,502
 264 218 264 218 281 237.5 c 128,-1,503
 298 257 298 257 298 284 c 0,504,505
 298 321 298 321 275 339 c 128,-1,506
 252 357 252 357 217 357 c 0,507,508
 197 357 197 357 193.5 352 c 128,-1,509
 190 347 190 347 190 330 c 2,510,-1
 190 232 l 2,498,499
190 99 m 2,511,512
 190 65 190 65 199.5 46 c 128,-1,513
 209 27 209 27 246 27 c 0,514,515
 281 27 281 27 297.5 49 c 128,-1,516
 314 71 314 71 314 106 c 0,517,518
 314 143 314 143 292 166 c 128,-1,519
 270 189 270 189 224 189 c 0,520,521
 198 189 198 189 194 186.5 c 128,-1,522
 190 184 190 184 190 169 c 2,523,-1
 190 99 l 2,511,512
892 607 m 0,524,525
 890 604 890 604 889.5 602 c 128,-1,526
 889 600 889 600 886 600 c 0,527,528
 881 600 881 600 875 598 c 128,-1,529
 869 596 869 596 864 596 c 2,530,-1
 848 596 l 1,531,-1
 848 506 l 2,532,533
 848 504 848 504 852 501.5 c 128,-1,534
 856 499 856 499 861 499 c 2,535,-1
 871 499 l 2,536,537
 875 499 875 499 876 496 c 2,538,-1
 876 492 l 1,539,-1
 837 492 l 1,540,-1
 815 492 l 2,541,542
 810 490 810 490 808 489 c 0,543,-1
 806 488 l 2,544,545
 802 488 802 488 802 496 c 1,546,-1
 826 499 l 2,547,548
 829 503 829 503 829 527 c 2,549,-1
 829 580 l 1,550,-1
 829 596 l 1,551,-1
 827 598 l 0,552,553
 825 600 825 600 822 600 c 2,554,-1
 815 600 l 1,555,-1
 812 600 l 1,556,-1
 808 600 l 2,557,558
 798 600 798 600 793.5 598 c 0,559,-1
 789 596 l 2,560,561
 786 596 786 596 785 589 c 2,562,-1
 785 583 l 1,563,564
 780 583 780 583 779 585 c 128,-1,565
 778 587 778 587 778 589 c 0,566,567
 778 600 778 600 781 603 c 0,568,569
 784 608 784 608 789 609 c 128,-1,570
 794 610 794 610 802 610 c 2,571,-1
 829 610 l 1,572,-1
 864 610 l 2,573,574
 890 610 890 610 890 614 c 2,575,-1
 890 617 l 1,576,-1
 890 622 l 2,577,578
 892 624 892 624 894 626.5 c 0,579,-1
 896 629 l 2,580,581
 898 629 898 629 898.5 627 c 0,582,-1
 899 625 l 1,583,-1
 903 622 l 1,584,585
 903 612 903 612 892 607 c 0,524,525
966 503 m 1,586,-1
 973 510 l 2,587,588
 975 510 975 510 977.5 508 c 0,589,-1
 980 506 l 257,590,-1
 977.5 504.5 l 0,591,592
 975 503 975 503 973 503 c 2,593,-1
 970.5 501 l 0,594,595
 968 499 968 499 966 499 c 0,596,597
 962 496 962 496 958 492 c 1,598,-1
 952 492 l 2,599,600
 948 492 948 492 948 499 c 2,601,-1
 948 506 l 1,602,-1
 948 513 l 1,603,-1
 948 541 l 2,604,605
 946 546 946 546 942.5 550.5 c 128,-1,606
 939 555 939 555 931 555 c 1,607,-1
 928.5 553.5 l 0,608,609
 926 552 926 552 924 552 c 0,610,611
 920 548 920 548 917 548 c 2,612,-1
 917 538 l 1,613,-1
 917 520 l 1,614,-1
 917 503 l 1,615,-1
 917 496 l 2,616,617
 914 493 914 493 910.5 491.5 c 128,-1,618
 907 490 907 490 899 488 c 1,619,-1
 899 499 l 1,620,-1
 899 531 l 1,621,-1
 899 572 l 1,622,-1
 899 580 l 1,623,-1
 899 596 l 2,624,625
 899 601 899 601 890 607 c 1,626,-1
 890 610 l 2,627,628
 892 610 892 610 895 610.5 c 128,-1,629
 898 611 898 611 903 614 c 2,630,-1
 912 614 l 1,631,-1
 917 614 l 1,632,-1
 917 583 l 1,633,-1
 917 555 l 1,634,-1
 917 558 l 1,635,636
 922 560 922 560 927.5 562.5 c 128,-1,637
 933 565 933 565 938 565 c 256,638,639
 943 565 943 565 946.5 562.5 c 128,-1,640
 950 560 950 560 955 558 c 0,641,642
 965 548 965 548 966 513 c 2,643,-1
 966 503 l 1,586,-1
1035 548 m 1,644,-1
 1028 548 l 2,645,646
 1025 546 1025 546 1020 543 c 128,-1,647
 1015 540 1015 540 1008 535 c 0,648,649
 994 531 994 531 993 524 c 0,650,651
 993 519 993 519 994 515 c 128,-1,652
 995 511 995 511 1000 506 c 0,653,654
 1002 504 1002 504 1005.5 501.5 c 128,-1,655
 1009 499 1009 499 1014 499 c 0,656,657
 1016 499 1016 499 1019 501.5 c 128,-1,658
 1022 504 1022 504 1024 506 c 0,659,660
 1027 509 1027 509 1029 509.5 c 0,661,-1
 1031 510 l 2,662,663
 1035 510 1035 510 1035 506 c 0,664,665
 1035 504 1035 504 1032.5 501 c 128,-1,666
 1030 498 1030 498 1028 496 c 0,667,668
 1020 491 1020 491 1014.5 489.5 c 128,-1,669
 1009 488 1009 488 1004 488 c 0,670,671
 991 488 991 488 987 496 c 0,672,673
 976 507 976 507 976 524 c 2,674,-1
 976 527 l 2,675,676
 976 545 976 545 985 553 c 128,-1,677
 994 561 994 561 1010 561 c 0,678,679
 1013 561 1013 561 1017.5 560.5 c 128,-1,680
 1022 560 1022 560 1024 558 c 0,681,682
 1027 556 1027 556 1028 554 c 128,-1,683
 1029 552 1029 552 1031 552 c 2,684,-1
 1031 555 l 1,685,-1
 1035 555 l 2,686,687
 1038 555 1038 555 1038 552 c 2,688,-1
 1035 548 l 1,644,-1
1004 555 m 2,689,690
 999 555 999 555 993 535 c 1,691,692
 995 537 995 537 998 538 c 128,-1,693
 1001 539 1001 539 1004 541 c 0,694,695
 1009 541 1009 541 1011.5 543 c 0,696,-1
 1014 545 l 257,697,-1
 1012 547 l 0,698,699
 1010 549 1010 549 1010 552 c 1,700,701
 1008 552 1008 552 1007 552.5 c 0,702,-1
 1004 555 l 2,689,690
1400 548 m 1,703,-1
 1393 548 l 1,704,705
 1388 543 1388 543 1372 535 c 0,706,707
 1359 531 1359 531 1359 524 c 0,708,709
 1359 519 1359 519 1359.5 515 c 128,-1,710
 1360 511 1360 511 1365 506 c 0,711,712
 1368 504 1368 504 1371 501.5 c 128,-1,713
 1374 499 1374 499 1379 499 c 0,714,715
 1382 499 1382 499 1385 501.5 c 128,-1,716
 1388 504 1388 504 1390 506 c 0,717,718
 1392 509 1392 509 1394.5 509.5 c 0,719,-1
 1397 510 l 2,720,721
 1400 510 1400 510 1400 506 c 0,722,723
 1400 501 1400 501 1393 496 c 256,724,725
 1386 491 1386 491 1380 489.5 c 128,-1,726
 1374 488 1374 488 1369 488 c 0,727,728
 1359 488 1359 488 1352 496 c 0,729,730
 1342 506 1342 506 1341 524 c 2,731,-1
 1341 527 l 2,732,733
 1341 545 1341 545 1351 553 c 128,-1,734
 1361 561 1361 561 1376 561 c 0,735,736
 1378 561 1378 561 1383 560.5 c 128,-1,737
 1388 560 1388 560 1390 558 c 256,738,739
 1392 556 1392 556 1393 554 c 128,-1,740
 1394 552 1394 552 1397 552 c 2,741,-1
 1397 555 l 1,742,-1
 1400 555 l 2,743,744
 1404 555 1404 555 1404 552 c 2,745,-1
 1400 548 l 1,703,-1
1369 555 m 2,746,747
 1364 555 1364 555 1359 535 c 1,748,749
 1361 537 1361 537 1363.5 538 c 128,-1,750
 1366 539 1366 539 1369 541 c 0,751,752
 1374 541 1374 541 1376.5 543 c 0,753,-1
 1379 545 l 257,754,-1
 1377.5 547 l 0,755,756
 1376 549 1376 549 1376 552 c 1,757,758
 1373 552 1373 552 1372 552.5 c 0,759,-1
 1369 555 l 2,746,747
1188 510 m 1,760,-1
 1188 475 l 1,761,-1
 1185 475 l 1,762,763
 1185 471 1185 471 1182 471 c 2,764,-1
 1182 499 l 1,765,766
 1155 489 1155 489 1140 488 c 2,767,-1
 1133 488 l 2,768,769
 1122 490 1122 490 1114 495.5 c 128,-1,770
 1106 501 1106 501 1101 506 c 256,771,772
 1096 511 1096 511 1093 520.5 c 128,-1,773
 1090 530 1090 530 1084 541 c 1,774,-1
 1084 552 l 2,775,776
 1084 559 1084 559 1086.5 566.5 c 128,-1,777
 1089 574 1089 574 1091 583 c 256,778,779
 1093 591 1093 591 1096 594 c 128,-1,780
 1099 597 1099 597 1101 600 c 0,781,782
 1109 606 1109 606 1118 610 c 0,783,784
 1126 613 1126 613 1132 615 c 128,-1,785
 1138 617 1138 617 1143 617 c 0,786,787
 1146 617 1146 617 1153 612.5 c 128,-1,788
 1160 608 1160 608 1170 600 c 2,789,-1
 1175 596 l 1,790,791
 1180 604 1180 604 1182.5 609 c 0,792,-1
 1185 614 l 1,793,-1
 1188 610 l 1,794,-1
 1187.5 608 l 0,795,796
 1187 606 1187 606 1185 603 c 0,797,798
 1180 590 1180 590 1175 580.5 c 128,-1,799
 1170 571 1170 571 1170 568 c 2,800,-1
 1178 568 l 2,801,802
 1181 568 1181 568 1183.5 568.5 c 128,-1,803
 1186 569 1186 569 1191 572 c 1,804,-1
 1191 541 l 2,805,806
 1189 526 1189 526 1188.5 522 c 0,807,-1
 1188 510 l 1,760,-1
1128 603 m 0,808,809
 1126 603 1126 603 1121.5 600.5 c 128,-1,810
 1117 598 1117 598 1114 593 c 0,811,812
 1105 582 1105 582 1105 572 c 0,813,814
 1105 568 1105 568 1108 565 c 2,815,-1
 1111 565 l 2,816,817
 1133 565 1133 565 1146 566.5 c 128,-1,818
 1159 568 1159 568 1167 568 c 1,819,820
 1161 579 1161 579 1150 589 c 0,821,822
 1145 597 1145 597 1139 600 c 128,-1,823
 1133 603 1133 603 1128 603 c 0,808,809
1163 552 m 2,824,825
 1105 552 1105 552 1105 548 c 0,826,827
 1110 528 1110 528 1125 517 c 0,828,829
 1130 512 1130 512 1138 507.5 c 128,-1,830
 1146 503 1146 503 1157 503 c 0,831,832
 1162 503 1162 503 1169.5 505 c 128,-1,833
 1177 507 1177 507 1182 510 c 1,834,-1
 1182 531 l 1,835,-1
 1182 552 l 1,836,-1
 1178 552 l 1,837,-1
 1163 552 l 2,824,825
1240 503 m 0,838,839
 1229 492 1229 492 1211 492 c 1,840,-1
 1211 517 l 1,841,-1
 1211 589 l 2,842,843
 1211 592 1211 592 1209.5 596.5 c 128,-1,844
 1208 601 1208 601 1205 603 c 2,845,-1
 1202 607 l 1,846,-1
 1206 609 l 0,847,848
 1210 611 1210 611 1216 614 c 2,849,-1
 1226 614 l 1,850,-1
 1230 614 l 1,851,-1
 1230 589 l 1,852,-1
 1230 580 l 1,853,-1
 1230 503 l 1,854,855
 1235 505 1235 505 1237.5 507.5 c 0,856,-1
 1240 510 l 257,857,-1
 1242 509.5 l 0,858,859
 1244 509 1244 509 1244 506 c 2,860,-1
 1243.5 504.5 l 0,861,862
 1243 503 1243 503 1240 503 c 0,838,839
1327 499 m 2,863,-1
 1324.5 498.5 l 0,864,865
 1322 498 1322 498 1320 496 c 2,866,-1
 1316 492 l 1,867,-1
 1310 488 l 2,868,869
 1303 488 1303 488 1303 503 c 1,870,-1
 1300.5 500.5 l 0,871,872
 1298 498 1298 498 1295 496 c 0,873,874
 1290 491 1290 491 1285.5 489.5 c 128,-1,875
 1281 488 1281 488 1279 488 c 0,876,877
 1268 488 1268 488 1261 496 c 0,878,879
 1252 506 1252 506 1251 527 c 0,880,881
 1251 565 1251 565 1286 565 c 1,882,-1
 1303 558 l 1,883,-1
 1303 565 l 2,884,885
 1303 580 1303 580 1302.5 590 c 128,-1,886
 1302 600 1302 600 1299 600 c 2,887,-1
 1296.5 602 l 0,888,889
 1294 604 1294 604 1292 607 c 2,890,-1
 1288 610 l 2,891,892
 1288 614 1288 614 1299 614 c 0,893,894
 1304 616 1304 616 1307.5 616.5 c 128,-1,895
 1311 617 1311 617 1316 617 c 0,896,897
 1320 617 1320 617 1320 614 c 2,898,-1
 1320 610 l 1,899,-1
 1320 607 l 1,900,-1
 1320 506 l 1,901,-1
 1320 503 l 1,902,903
 1325 505 1325 505 1326 507.5 c 0,904,-1
 1327 510 l 1,905,906
 1334 510 1334 510 1334 503 c 1,907,-1
 1331.5 502.5 l 0,908,909
 1329 502 1329 502 1327 499 c 2,863,-1
1303 538 m 2,910,911
 1303 545 1303 545 1295 552 c 0,912,913
 1293 554 1293 554 1290.5 556 c 0,914,-1
 1288 558 l 2,915,916
 1283 558 1283 558 1278.5 555.5 c 128,-1,917
 1274 553 1274 553 1272 548 c 0,918,919
 1272 546 1272 546 1270 541.5 c 128,-1,920
 1268 537 1268 537 1268 531 c 256,921,922
 1268 526 1268 526 1270.5 520.5 c 128,-1,923
 1273 515 1273 515 1275 510 c 0,924,925
 1281 499 1281 499 1288 499 c 1,926,-1
 1295 506 l 2,927,928
 1302 513 1302 513 1303 517 c 2,929,-1
 1303 538 l 2,910,911
1477 545 m 2,930,931
 1475 545 1475 545 1474 546.5 c 128,-1,932
 1473 548 1473 548 1469 548 c 1,933,934
 1469 552 1469 552 1462 552 c 2,935,-1
 1460.5 551.5 l 0,936,937
 1459 551 1459 551 1456 548 c 2,938,-1
 1449 541 l 1,939,-1
 1449 499 l 1,940,-1
 1448.5 497 l 0,941,942
 1448 495 1448 495 1446 492 c 0,943,944
 1441 490 1441 490 1437.5 489 c 128,-1,945
 1434 488 1434 488 1432 488 c 2,946,-1
 1432 506 l 1,947,-1
 1432 524 l 1,948,-1
 1432 538 l 1,949,-1
 1432 545 l 2,950,951
 1432 552 1432 552 1420 552 c 1,952,953
 1420 554 1420 554 1418.5 555 c 128,-1,954
 1417 556 1417 556 1417 558 c 2,955,-1
 1420 558 l 1,956,-1
 1427 558 l 2,957,958
 1430 558 1430 558 1433.5 559.5 c 128,-1,959
 1437 561 1437 561 1442 561 c 2,960,-1
 1446 561 l 2,961,962
 1449 561 1449 561 1449 558 c 2,963,-1
 1449 555 l 1,964,-1
 1449 552 l 2,965,966
 1452 552 1452 552 1454.5 554 c 128,-1,967
 1457 556 1457 556 1460 558 c 0,968,969
 1465 560 1465 560 1467.5 562.5 c 128,-1,970
 1470 565 1470 565 1474 565 c 2,971,-1
 1476 563 l 0,972,973
 1478 561 1478 561 1481 561 c 0,974,975
 1483 561 1483 561 1483.5 559.5 c 0,976,-1
 1484 558 l 2,977,978
 1484 555 1484 555 1481 552 c 0,979,980
 1481 549 1481 549 1480 548 c 0,981,-1
 1477 545 l 2,930,931
1571 482 m 2,982,-1
 1567 482 l 2,983,984
 1562 482 1562 482 1552.5 483.5 c 128,-1,985
 1543 485 1543 485 1532 488 c 2,986,-1
 1525 488 l 2,987,988
 1523 488 1523 488 1522 485.5 c 128,-1,989
 1521 483 1521 483 1518 478 c 2,990,-1
 1518 468 l 1,991,-1
 1515 464 l 1,992,-1
 1510 464 l 1,993,-1
 1508 468 l 1,994,995
 1510 473 1510 473 1513 480 c 128,-1,996
 1516 487 1516 487 1518 499 c 0,997,998
 1521 507 1521 507 1522 512 c 128,-1,999
 1523 517 1523 517 1525 517 c 0,1000,1001
 1528 514 1528 514 1531.5 511 c 128,-1,1002
 1535 508 1535 508 1543 503 c 0,1003,1004
 1556 498 1556 498 1564.5 495 c 128,-1,1005
 1573 492 1573 492 1578 492 c 2,1006,-1
 1585 492 l 2,1007,1008
 1590 495 1590 495 1592.5 500 c 128,-1,1009
 1595 505 1595 505 1598 513 c 0,1010,1011
 1600 516 1600 516 1601 520.5 c 128,-1,1012
 1602 525 1602 525 1602 527 c 0,1013,1014
 1602 540 1602 540 1598 545 c 0,1015,1016
 1595 547 1595 547 1592.5 549.5 c 128,-1,1017
 1590 552 1590 552 1587 552 c 0,1018,1019
 1585 552 1585 552 1579.5 549.5 c 128,-1,1020
 1574 547 1574 547 1561 545 c 0,1021,1022
 1550 542 1550 542 1544 540 c 128,-1,1023
 1538 538 1538 538 1536 538 c 0,1024,1025
 1525 538 1525 538 1518 545 c 0,1026,1027
 1518 550 1518 550 1516.5 553 c 128,-1,1028
 1515 556 1515 556 1515 561 c 0,1029,1030
 1515 575 1515 575 1517.5 583.5 c 128,-1,1031
 1520 592 1520 592 1525 600 c 0,1032,1033
 1533 611 1533 611 1541 614 c 128,-1,1034
 1549 617 1549 617 1558 617 c 0,1035,1036
 1568 617 1568 617 1578 607 c 0,1037,1038
 1585 602 1585 602 1588 599 c 0,1039,-1
 1591 596 l 257,1040,-1
 1593 598.5 l 0,1041,1042
 1595 601 1595 601 1598 603 c 0,1043,1044
 1600 608 1600 608 1601.5 609 c 128,-1,1045
 1603 610 1603 610 1606 610 c 2,1046,-1
 1609 610 l 1,1047,-1
 1609 607 l 1,1048,-1
 1606.5 602.5 l 0,1049,1050
 1604 598 1604 598 1598 593 c 0,1051,1052
 1595 585 1595 585 1593 579.5 c 128,-1,1053
 1591 574 1591 574 1591 572 c 2,1054,-1
 1594 572 l 2,1055,1056
 1599 569 1599 569 1604.5 566.5 c 128,-1,1057
 1610 564 1610 564 1612 561 c 0,1058,1059
 1614 556 1614 556 1616.5 551 c 128,-1,1060
 1619 546 1619 546 1619 541 c 0,1061,1062
 1619 521 1619 521 1609 503 c 0,1063,1064
 1601 492 1601 492 1591.5 488 c 128,-1,1065
 1582 484 1582 484 1571 482 c 2,982,-1
1550 607 m 0,1066,1067
 1541 607 1541 607 1536 596 c 0,1068,1069
 1532 593 1532 593 1532 575 c 0,1070,1071
 1532 568 1532 568 1536 565 c 0,1072,1073
 1541 558 1541 558 1546 558 c 0,1074,1075
 1550 558 1550 558 1567 565 c 1,1076,1077
 1578 565 1578 565 1585 572 c 1,1078,1079
 1571 587 1571 587 1563 597 c 128,-1,1080
 1555 607 1555 607 1550 607 c 0,1066,1067
1661 488 m 0,1081,1082
 1647 488 1647 488 1636 499 c 0,1083,1084
 1634 504 1634 504 1631.5 509.5 c 128,-1,1085
 1629 515 1629 515 1629 520 c 0,1086,1087
 1629 531 1629 531 1631.5 537.5 c 128,-1,1088
 1634 544 1634 544 1636 552 c 0,1089,1090
 1641 557 1641 557 1649 561 c 128,-1,1091
 1657 565 1657 565 1664 565 c 0,1092,1093
 1667 565 1667 565 1671.5 563 c 128,-1,1094
 1676 561 1676 561 1678 561 c 0,1095,1096
 1688 556 1688 556 1689 552 c 0,1097,1098
 1689 549 1689 549 1688.5 546.5 c 128,-1,1099
 1688 544 1688 544 1682 541 c 2,1100,-1
 1678 541 l 1,1101,-1
 1678 545 l 1,1102,1103
 1670 550 1670 550 1666.5 552.5 c 128,-1,1104
 1663 555 1663 555 1658 555 c 0,1105,1106
 1656 555 1656 555 1655 554 c 128,-1,1107
 1654 553 1654 553 1651 548 c 0,1108,1109
 1649 543 1649 543 1648.5 540 c 128,-1,1110
 1648 537 1648 537 1648 531 c 0,1111,1112
 1648 522 1648 522 1655 510 c 0,1113,1114
 1660 499 1660 499 1671 499 c 0,1115,1116
 1674 499 1674 499 1676.5 501.5 c 128,-1,1117
 1679 504 1679 504 1682 506 c 0,1118,1119
 1684 509 1684 509 1686.5 511 c 0,1120,-1
 1689 513 l 1,1121,-1
 1692 510 l 2,1122,1123
 1692 505 1692 505 1682 499 c 0,1124,1125
 1672 488 1672 488 1661 488 c 0,1081,1082
1748 545 m 2,1126,-1
 1745 548 l 2,1127,1128
 1742 551 1742 551 1740 551.5 c 0,1129,-1
 1738 552 l 257,1130,-1
 1735.5 551.5 l 0,1131,1132
 1733 551 1733 551 1731 548 c 0,1133,1134
 1726 546 1726 546 1724.5 543.5 c 0,1135,-1
 1723 541 l 1,1136,-1
 1723 499 l 1,1137,-1
 1720.5 497 l 0,1138,1139
 1718 495 1718 495 1716 492 c 0,1140,1141
 1712 489 1712 489 1706 488 c 0,1142,1143
 1703 488 1703 488 1703 506 c 2,1144,-1
 1703 524 l 1,1145,-1
 1703 538 l 1,1146,-1
 1703 545 l 2,1147,1148
 1703 552 1703 552 1696 552 c 0,1149,1150
 1692 555 1692 555 1692 558 c 2,1151,-1
 1696 558 l 1,1152,-1
 1703 558 l 2,1153,1154
 1705 558 1705 558 1707.5 559.5 c 128,-1,1155
 1710 561 1710 561 1712 561 c 2,1156,-1
 1719 561 l 2,1157,1158
 1723 561 1723 561 1723 558 c 2,1159,-1
 1723 555 l 1,1160,-1
 1723 552 l 1,1161,-1
 1726 554 l 0,1162,1163
 1729 556 1729 556 1734 558 c 0,1164,1165
 1737 560 1737 560 1739.5 562.5 c 128,-1,1166
 1742 565 1742 565 1745 565 c 2,1167,-1
 1747 563 l 0,1168,1169
 1749 561 1749 561 1752 561 c 0,1170,1171
 1754 561 1754 561 1756.5 559.5 c 0,1172,-1
 1759 558 l 1,1173,1174
 1755 555 1755 555 1755 552 c 0,1175,1176
 1753 549 1753 549 1752 547 c 128,-1,1177
 1751 545 1751 545 1748 545 c 2,1126,-1
1821 513 m 0,1178,1179
 1818 511 1818 511 1815.5 506.5 c 128,-1,1180
 1813 502 1813 502 1807 499 c 0,1181,1182
 1791 489 1791 489 1786 488 c 2,1183,-1
 1783 488 l 2,1184,1185
 1775 488 1775 488 1767.5 493.5 c 128,-1,1186
 1760 499 1760 499 1755 510 c 2,1187,-1
 1753.5 514.5 l 0,1188,1189
 1752 519 1752 519 1752 524 c 0,1190,1191
 1752 526 1752 526 1753.5 529 c 128,-1,1192
 1755 532 1755 532 1755 538 c 0,1193,1194
 1755 551 1755 551 1768 555 c 0,1195,1196
 1772 558 1772 558 1789 565 c 1,1197,-1
 1793 565 l 2,1198,1199
 1798 565 1798 565 1803 562.5 c 128,-1,1200
 1808 560 1808 560 1814 558 c 0,1201,1202
 1824 544 1824 544 1824 531 c 0,1203,1204
 1824 528 1824 528 1822.5 523 c 128,-1,1205
 1821 518 1821 518 1821 513 c 0,1178,1179
1783 555 m 2,1206,-1
 1780 555 l 2,1207,1208
 1777 553 1777 553 1775 551.5 c 128,-1,1209
 1773 550 1773 550 1773 545 c 0,1210,1211
 1769 541 1769 541 1768 535 c 0,1212,1213
 1768 530 1768 530 1768.5 524.5 c 128,-1,1214
 1769 519 1769 519 1773 517 c 0,1215,1216
 1775 512 1775 512 1781.5 507 c 128,-1,1217
 1788 502 1788 502 1793 499 c 0,1218,1219
 1803 499 1803 499 1803 510 c 2,1220,-1
 1803 527 l 2,1221,1222
 1803 532 1803 532 1802 537.5 c 128,-1,1223
 1801 543 1801 543 1796 548 c 0,1224,1225
 1794 551 1794 551 1789.5 553 c 128,-1,1226
 1785 555 1785 555 1783 555 c 2,1206,-1
1870 503 m 0,1227,1228
 1859 492 1859 492 1842 492 c 1,1229,-1
 1842 517 l 1,1230,-1
 1842 589 l 2,1231,1232
 1842 592 1842 592 1839.5 596.5 c 128,-1,1233
 1837 601 1837 601 1835 603 c 2,1234,-1
 1831 607 l 2,1235,1236
 1834 607 1834 607 1837 609 c 128,-1,1237
 1840 611 1840 611 1845 614 c 2,1238,-1
 1857 614 l 1,1239,-1
 1860 614 l 1,1240,-1
 1860 589 l 1,1241,-1
 1860 580 l 1,1242,-1
 1860 503 l 1,1243,1244
 1865 505 1865 505 1867.5 507.5 c 0,1245,-1
 1870 510 l 2,1246,1247
 1873 510 1873 510 1873 506 c 2,1248,-1
 1872.5 504.5 l 0,1249,1250
 1872 503 1872 503 1870 503 c 0,1227,1228
1918 503 m 2,1251,1252
 1913 498 1913 498 1906 495 c 128,-1,1253
 1899 492 1899 492 1890 492 c 1,1254,-1
 1890 517 l 1,1255,-1
 1890 589 l 2,1256,1257
 1890 592 1890 592 1887.5 596.5 c 128,-1,1258
 1885 601 1885 601 1880 603 c 1,1259,-1
 1880 607 l 1,1260,-1
 1882.5 609 l 0,1261,1262
 1885 611 1885 611 1890 614 c 2,1263,-1
 1905 614 l 1,1264,-1
 1908 614 l 1,1265,-1
 1908 589 l 1,1266,-1
 1908 580 l 1,1267,-1
 1908 503 l 2,1268,1269
 1911 505 1911 505 1913 507.5 c 128,-1,1270
 1915 510 1915 510 1918 510 c 2,1271,-1
 1919.5 509.5 l 0,1272,1273
 1921 509 1921 509 1921 506 c 2,1274,-1
 1918 503 l 2,1251,1252
1988 510 m 0,1275,1276
 1985 505 1985 505 1982 501.5 c 128,-1,1277
 1979 498 1979 498 1974 496 c 0,1278,1279
 1962 489 1962 489 1954 488 c 2,1280,-1
 1947 488 l 1,1281,1282
 1933 492 1933 492 1932 503 c 0,1283,1284
 1932 511 1932 511 1943 517 c 1,1285,1286
 1948 506 1948 506 1953.5 502.5 c 128,-1,1287
 1959 499 1959 499 1967 499 c 2,1288,-1
 1969 499.5 l 0,1289,1290
 1971 500 1971 500 1974 503 c 2,1291,-1
 1974 510 l 2,1292,1293
 1974 517 1974 517 1970 520 c 0,1294,1295
 1970 524 1970 524 1963 524 c 0,1296,1297
 1961 527 1961 527 1957 527 c 2,1298,-1
 1947 527 l 2,1299,1300
 1942 527 1942 527 1938 529.5 c 128,-1,1301
 1934 532 1934 532 1932 535 c 2,1302,-1
 1932 545 l 2,1303,1304
 1932 557 1932 557 1943 561 c 0,1305,1306
 1951 564 1951 564 1957 566 c 128,-1,1307
 1963 568 1963 568 1970 568 c 0,1308,1309
 1973 568 1973 568 1975.5 566.5 c 128,-1,1310
 1978 565 1978 565 1981 565 c 2,1311,-1
 1982.5 562.5 l 0,1312,1313
 1984 560 1984 560 1984 558 c 256,1314,1315
 1984 556 1984 556 1977 552 c 1,1316,-1
 1974 552 l 2,1317,1318
 1970 552 1970 552 1967 555 c 0,1319,1320
 1967 557 1967 557 1965 559 c 128,-1,1321
 1963 561 1963 561 1961 561 c 0,1322,1323
 1956 561 1956 561 1951.5 559 c 128,-1,1324
 1947 557 1947 557 1947 552 c 0,1325,1326
 1947 541 1947 541 1957 541 c 2,1327,-1
 1970 541 l 2,1328,1329
 1973 541 1973 541 1975.5 539.5 c 128,-1,1330
 1978 538 1978 538 1981 538 c 2,1331,-1
 1983 536.5 l 0,1332,1333
 1985 535 1985 535 1988 535 c 1,1334,1335
 1988 533 1988 533 1989.5 529 c 128,-1,1336
 1991 525 1991 525 1991 520 c 0,1337,1338
 1991 513 1991 513 1988 510 c 0,1275,1276
2123 492 m 1,1339,-1
 2102 492 l 1,1340,-1
 2092 492 l 1,1341,-1
 2051 488 l 1,1342,-1
 2051 496 l 1,1343,-1
 2064 496 l 2,1344,1345
 2066 498 2066 498 2070.5 499 c 128,-1,1346
 2075 500 2075 500 2075 503 c 1,1347,1348
 2078 503 2078 503 2078.5 507 c 128,-1,1349
 2079 511 2079 511 2079 513 c 2,1350,-1
 2079 580 l 1,1351,-1
 2075 596 l 2,1352,1353
 2075 603 2075 603 2072 603 c 1,1354,1355
 2072 606 2072 606 2067.5 606.5 c 128,-1,1356
 2063 607 2063 607 2058 607 c 0,1357,1358
 2044 607 2044 607 2044 610 c 2,1359,-1
 2044 614 l 1,1360,-1
 2047 614 l 2,1361,1362
 2050 614 2050 614 2057 613.5 c 128,-1,1363
 2064 613 2064 613 2075 610 c 2,1364,-1
 2085 610 l 2,1365,1366
 2090 610 2090 610 2094.5 612 c 0,1367,-1
 2099 614 l 1,1368,-1
 2099 622 l 1,1369,-1
 2102 622 l 2,1370,1371
 2106 622 2106 622 2106 617 c 0,1372,1373
 2106 614 2106 614 2109 614 c 2,1374,-1
 2116 614 l 1,1375,-1
 2120 614 l 1,1376,-1
 2120 610 l 2,1377,1378
 2120 608 2120 608 2119 607.5 c 128,-1,1379
 2118 607 2118 607 2113 607 c 256,1380,1381
 2108 607 2108 607 2107 606.5 c 128,-1,1382
 2106 606 2106 606 2106 603 c 2,1383,-1
 2106 503 l 2,1384,1385
 2106 499 2106 499 2116 499 c 0,1386,1387
 2127 499 2127 499 2127 492 c 1,1388,-1
 2123 492 l 1,1339,-1
2099 603 m 1,1389,1390
 2095 603 2095 603 2092 600 c 2,1391,-1
 2092 503 l 1,1392,-1
 2094 502.5 l 0,1393,1394
 2096 502 2096 502 2099 499 c 2,1395,-1
 2099 603 l 1,1389,1390
2192 492 m 1,1396,-1
 2172 492 l 1,1397,-1
 2163 492 l 1,1398,-1
 2116 488 l 1,1399,-1
 2116 496 l 1,1400,-1
 2134 496 l 2,1401,1402
 2136 498 2136 498 2139 499 c 128,-1,1403
 2142 500 2142 500 2144 503 c 0,1404,1405
 2147 503 2147 503 2147.5 507 c 128,-1,1406
 2148 511 2148 511 2148 513 c 2,1407,-1
 2148 580 l 1,1408,-1
 2144 596 l 2,1409,1410
 2144 599 2144 599 2142.5 601 c 0,1411,-1
 2141 603 l 2,1412,1413
 2141 606 2141 606 2136.5 606.5 c 128,-1,1414
 2132 607 2132 607 2127 607 c 0,1415,1416
 2113 607 2113 607 2113 610 c 2,1417,-1
 2113 614 l 1,1418,-1
 2116 614 l 2,1419,1420
 2119 614 2119 614 2126 613.5 c 128,-1,1421
 2133 613 2133 613 2144 610 c 2,1422,-1
 2156 610 l 2,1423,1424
 2161 610 2161 610 2165 612 c 0,1425,-1
 2169 614 l 1,1426,-1
 2169 622 l 1,1427,-1
 2172 622 l 2,1428,1429
 2176 622 2176 622 2176 617 c 0,1430,1431
 2176 614 2176 614 2179 614 c 2,1432,-1
 2185 614 l 1,1433,-1
 2189 614 l 1,1434,-1
 2189 610 l 2,1435,1436
 2189 607 2189 607 2182 607 c 2,1437,-1
 2179 607 l 2,1438,1439
 2176 607 2176 607 2176 603 c 2,1440,-1
 2176 503 l 2,1441,1442
 2176 499 2176 499 2182 499 c 0,1443,1444
 2187 499 2187 499 2192 497 c 128,-1,1445
 2197 495 2197 495 2197 492 c 2,1446,-1
 2192 492 l 1,1396,-1
2169 603 m 1,1447,1448
 2165 603 2165 603 2163 600 c 2,1449,-1
 2163 503 l 1,1450,-1
 2164.5 502.5 l 0,1451,1452
 2166 502 2166 502 2169 499 c 2,1453,-1
 2169 603 l 1,1447,1448
2263 492 m 1,1454,-1
 2242 492 l 1,1455,-1
 2231 492 l 1,1456,-1
 2185 488 l 1,1457,-1
 2185 496 l 1,1458,-1
 2204 496 l 2,1459,1460
 2206 498 2206 498 2208.5 499 c 128,-1,1461
 2211 500 2211 500 2213 503 c 2,1462,-1
 2215 507 l 0,1463,1464
 2217 511 2217 511 2217 513 c 2,1465,-1
 2217 580 l 1,1466,-1
 2213 596 l 2,1467,1468
 2213 599 2213 599 2212 601 c 0,1469,-1
 2211 603 l 2,1470,1471
 2211 606 2211 606 2206.5 606.5 c 128,-1,1472
 2202 607 2202 607 2197 607 c 0,1473,1474
 2180 607 2180 607 2179 610 c 2,1475,-1
 2182 614 l 1,1476,-1
 2185 614 l 2,1477,1478
 2188 614 2188 614 2195.5 613.5 c 128,-1,1479
 2203 613 2203 613 2213 610 c 2,1480,-1
 2224 610 l 2,1481,1482
 2229 610 2229 610 2233.5 612 c 0,1483,-1
 2238 614 l 1,1484,-1
 2238 622 l 1,1485,-1
 2242 622 l 2,1486,1487
 2246 622 2246 622 2246 617 c 0,1488,1489
 2246 614 2246 614 2249 614 c 2,1490,-1
 2256 614 l 1,1491,-1
 2260 614 l 1,1492,-1
 2260 610 l 2,1493,1494
 2260 607 2260 607 2253 607 c 2,1495,-1
 2249 607 l 2,1496,1497
 2246 607 2246 607 2246 603 c 2,1498,-1
 2246 503 l 2,1499,1500
 2246 499 2246 499 2253 499 c 0,1501,1502
 2263 499 2263 499 2263 492 c 1,1454,-1
2238 603 m 1,1503,1504
 2234 603 2234 603 2231 600 c 2,1505,-1
 2231 503 l 1,1506,-1
 2233 502.5 l 0,1507,1508
 2235 502 2235 502 2238 499 c 2,1509,-1
 2238 603 l 1,1503,1504
EndSplineSet
Validated: 133
EndChar

